<svg width="462" height="562" viewBox="0 0 462 562" fill="none" xmlns="http://www.w3.org/2000/svg">
<g clip-path="url(#clip0_26_1399)">
<path d="M340.935 468.654L147.951 438.145C130.147 435.33 118.066 419.223 120.985 402.174L170.721 111.732C174.662 88.7173 201.777 47.3239 225.821 51.1251L396.209 78.0615C420.254 81.8627 432.139 129.406 428.195 152.436L378.459 442.878C375.54 459.926 358.74 471.468 340.92 468.651L340.935 468.654Z" fill="#F5C636"/>
<mask id="mask0_26_1399" style="mask-type:luminance" maskUnits="userSpaceOnUse" x="120" y="50" width="309" height="420">
<path d="M340.935 468.654L147.951 438.145C130.147 435.33 118.066 419.223 120.985 402.174L170.721 111.732C174.662 88.7173 201.777 47.3239 225.821 51.1251L396.209 78.0615C420.254 81.8627 432.139 129.406 428.195 152.436L378.459 442.878C375.54 459.926 358.74 471.468 340.92 468.651L340.935 468.654Z" fill="white"/>
</mask>
<g mask="url(#mask0_26_1399)">
<path d="M128.839 317.145C128.839 317.145 180.285 386.405 257.758 401.498C351.289 419.717 413.954 333.326 413.954 333.326L382.644 516.169L30.5853 443.997L128.839 317.145Z" fill="#ED4265"/>
</g>
<path d="M357.104 284.094L194.162 258.334C179.391 255.999 165.446 265.611 163.016 279.804L146.476 376.393C144.046 390.585 154.05 403.983 168.821 406.318L331.763 432.078C346.534 434.413 360.479 424.801 362.909 410.608L379.449 314.019C381.879 299.827 371.875 286.429 357.104 284.094Z" fill="#E5A34C"/>
<path d="M233.863 142.341L219.048 139.999C214.397 139.264 210.006 142.29 209.241 146.759L186.686 278.472C185.921 282.941 189.071 287.16 193.722 287.895L208.537 290.237C213.188 290.972 217.579 287.946 218.344 283.477L240.899 151.764C241.664 147.295 238.514 143.076 233.863 142.341Z" fill="#AE304E"/>
<path d="M230.357 217.533L197.281 212.304C194.18 211.814 191.252 213.832 190.742 216.811L187.399 236.337C186.888 239.317 188.988 242.129 192.089 242.619L225.166 247.849C228.267 248.339 231.194 246.321 231.704 243.342L235.048 223.816C235.558 220.836 233.458 218.024 230.357 217.533Z" stroke="white" stroke-width="2.34" stroke-miterlimit="10"/>
<path d="M373.04 164.132L358.226 161.79C353.575 161.055 349.184 164.082 348.418 168.551L325.864 300.263C325.098 304.732 328.248 308.951 332.9 309.687L347.714 312.029C352.365 312.764 356.756 309.737 357.521 305.268L380.076 173.556C380.841 169.087 377.691 164.868 373.04 164.132Z" fill="#AE304E"/>
<path d="M369.537 239.31L336.46 234.081C333.359 233.591 330.432 235.609 329.922 238.588L326.578 258.114C326.068 261.094 328.168 263.906 331.269 264.396L364.346 269.625C367.447 270.116 370.374 268.098 370.884 265.118L374.228 245.592C374.738 242.613 372.638 239.8 369.537 239.31Z" stroke="white" stroke-width="2.34" stroke-miterlimit="10"/>
<path d="M270.653 68.6914C270.653 68.6914 274.084 40.2359 280.134 32.9115C286.183 25.587 347.758 38.0765 350.958 41.8045C354.159 45.5325 347.56 84.0714 347.56 84.0714L333.711 78.1934L339.249 48.2341L287.848 41.0267L283.244 67.9116L270.656 68.6767L270.653 68.6914Z" fill="#AE304E"/>
<path d="M369.239 204.996L209.043 179.671C186.432 176.096 186.17 67.6363 186.17 67.6363C187.465 60.0722 208.289 48.3684 230.915 51.9453L391.111 77.2706C413.722 80.845 429.56 98.3447 428.265 105.909C428.265 105.909 391.865 208.573 369.239 204.996Z" fill="#ED4265"/>
<path d="M348.108 120.398L257.269 106.037L251.398 140.325L342.237 154.686L348.108 120.398Z" fill="white"/>
</g>
<g clip-path="url(#clip1_26_1399)">
<path d="M236.159 521.204C292.693 472.708 297.607 389.36 247.134 335.04C196.661 280.72 109.914 275.999 53.3793 324.494C-3.15528 372.99 -8.06906 456.339 42.404 510.659C92.8771 564.979 179.624 569.7 236.159 521.204Z" fill="#F6C731"/>
<path d="M138.082 536.229C203.253 539.776 259.077 491.889 262.769 429.272C266.46 366.654 216.622 313.017 151.451 309.47C86.2802 305.923 30.4563 353.809 26.7647 416.427C23.0731 479.045 72.9118 532.682 138.082 536.229Z" fill="white"/>
<path d="M151.451 309.47C216.627 313.017 266.46 366.664 262.769 429.272C259.078 491.88 203.243 539.775 138.082 536.229" fill="white"/>
<path d="M138.867 296.479L149.191 347.797L165.481 297.928L138.867 296.479Z" fill="#F6C731"/>
<path d="M13.2444 428.518L66.6545 418.598L14.752 402.946L13.2444 428.518Z" fill="#F6C731"/>
<path d="M150.666 549.219L140.341 497.916L124.052 547.771L150.666 549.219Z" fill="#F6C731"/>
<path d="M276.289 417.181L222.894 427.101L274.782 442.752L276.289 417.181Z" fill="#F6C731"/>
<path d="M118.515 416.57L152.461 399.252L112.551 366.427L118.515 416.57Z" fill="#EE426A"/>
<path d="M112.551 366.427L135.488 407.911L152.461 399.252L112.551 366.427Z" fill="#AE304E"/>
<path d="M136.889 449.815L170.835 432.497L176.799 482.64L136.889 449.815Z" fill="#EE426A"/>
<path d="M176.799 482.64L153.862 441.156L170.835 432.497L176.799 482.64Z" fill="#AE304E"/>
<path d="M143.346 446.952C156.237 447.654 167.279 438.182 168.009 425.796C168.739 413.41 158.881 402.8 145.99 402.099C133.099 401.397 122.057 410.869 121.327 423.255C120.597 435.641 130.455 446.25 143.346 446.952Z" stroke="#167DE5" stroke-width="6.37" stroke-miterlimit="10"/>
</g>
<defs>
<clipPath id="clip0_26_1399">
<rect width="359.219" height="466.774" fill="white" transform="matrix(0.987733 0.15615 -0.168785 0.985653 106.616 0)"/>
</clipPath>
<clipPath id="clip1_26_1399">
<rect width="274.431" height="263.748" fill="white" transform="matrix(0.998522 0.0543457 -0.0588523 0.998267 15.5222 283.754)"/>
</clipPath>
</defs>
</svg>
