<svg width="312" height="279" viewBox="0 0 312 279" fill="none" xmlns="http://www.w3.org/2000/svg">
<g clip-path="url(#clip0_402_310)">
<path d="M242.86 141.06C204.88 141.06 174.1 171.84 174.1 209.82C174.1 247.8 204.89 278.58 242.86 278.58C280.83 278.58 311.62 247.79 311.62 209.82C311.62 171.85 280.84 141.06 242.86 141.06ZM247.87 268.82L242.87 249.02L237.87 268.82C209.16 266.41 186.28 243.54 183.87 214.82L203.67 209.82L183.87 204.82C186.27 176.11 209.15 153.23 237.87 150.83L242.87 170.62L247.87 150.83C276.58 153.23 299.46 176.11 301.86 204.82L282.07 209.82L301.86 214.82C299.46 243.53 276.58 266.41 247.87 268.82Z" fill="white"/>
<path d="M242.859 222.399C249.327 222.399 254.569 217.157 254.569 210.689C254.569 204.222 249.327 198.979 242.859 198.979C236.392 198.979 231.149 204.222 231.149 210.689C231.149 217.157 236.392 222.399 242.859 222.399Z" stroke="white" stroke-width="4.93" stroke-miterlimit="10"/>
<path d="M252.69 25.7197H230.82V47.5997C230.82 52.5997 226.73 56.6797 221.74 56.6797H218.82C218.51 56.6797 218.2 56.6597 217.89 56.6297C217.44 56.5797 216.99 56.4997 216.56 56.3897C216.33 56.3297 216.11 56.2697 215.89 56.1897C215.87 56.1897 215.85 56.1797 215.83 56.1697C215.68 56.1197 215.54 56.0697 215.39 55.9997C215.36 55.9897 215.32 55.9797 215.29 55.9597C215.18 55.9197 215.07 55.8697 214.96 55.8097C214.59 55.6397 214.24 55.4397 213.9 55.2297C213.75 55.1297 213.62 55.0297 213.48 54.9297C213.43 54.8997 213.39 54.8697 213.34 54.8297C213.2 54.7197 213.05 54.6097 212.92 54.4997C212.74 54.3397 212.58 54.1897 212.41 54.0197C212.3 53.9197 212.2 53.8197 212.11 53.7097C212.11 53.7097 212.11 53.7097 212.11 53.6997C211.92 53.4897 211.74 53.2597 211.56 53.0297V53.0197C211.38 52.7897 211.22 52.5497 211.07 52.2997C210.61 51.5497 210.26 50.7297 210.04 49.8597C209.98 49.6397 209.93 49.4197 209.89 49.1997C209.85 48.9797 209.82 48.7597 209.8 48.5297C209.77 48.3797 209.76 48.2197 209.76 48.0697C209.76 47.9897 209.75 47.9097 209.75 47.8297C209.75 47.7497 209.75 47.6797 209.75 47.5997V25.7197H66.74V47.5997C66.74 47.9897 66.72 48.3697 66.67 48.7497C66.64 48.9397 66.61 49.1297 66.58 49.3097C66.51 49.6797 66.41 50.0397 66.3 50.3997C66.18 50.7497 66.05 51.0897 65.89 51.4297C65.82 51.5897 65.74 51.7597 65.65 51.9197C65.65 51.9197 65.6467 51.9231 65.64 51.9297C65.5 52.1797 65.35 52.4297 65.19 52.6697C65.19 52.6797 65.18 52.6797 65.18 52.6797C65.02 52.9097 64.85 53.1397 64.67 53.3697C64.57 53.4897 64.47 53.5997 64.37 53.7097C64.28 53.8197 64.17 53.9197 64.07 54.0197C63.76 54.3197 63.44 54.6097 63.09 54.8697C63.09 54.8697 63.0867 54.8697 63.08 54.8697C62.9 55.0197 62.71 55.1497 62.52 55.2697C62.47 55.2997 62.42 55.3297 62.37 55.3597C62.27 55.4297 62.17 55.4897 62.06 55.5397C61.28 55.9697 60.44 56.2897 59.55 56.4797C59.45 56.4997 59.35 56.5197 59.24 56.5397C59.14 56.5597 59.04 56.5797 58.94 56.5897C58.92 56.5897 58.91 56.5997 58.89 56.5997C58.81 56.6097 58.72 56.6197 58.63 56.6297C58.5 56.6397 58.36 56.6597 58.21 56.6597C58.03 56.6697 57.85 56.6797 57.67 56.6797H54.75C54.52 56.6797 54.28 56.6697 54.05 56.6497C53.84 56.6397 53.62 56.6097 53.41 56.5797C53.2 56.5497 52.99 56.5097 52.78 56.4597C52.54 56.4097 52.29 56.3397 52.06 56.2697C51.89 56.2197 51.73 56.1597 51.57 56.0997C51.18 55.9597 50.8 55.7797 50.43 55.5797C50.3 55.5197 50.17 55.4397 50.05 55.3597C49.92 55.2797 49.79 55.1997 49.67 55.1297C49.43 54.9697 49.2 54.7997 48.98 54.6097C48.76 54.4197 48.54 54.2197 48.34 54.0197C47.71 53.4097 47.18 52.6997 46.77 51.9197C46.69 51.7997 46.62 51.6697 46.57 51.5297C46.43 51.2697 46.32 50.9997 46.22 50.7197C46.17 50.5697 46.12 50.4297 46.08 50.2797C45.86 49.5997 45.72 48.8897 45.69 48.1497C45.68 48.0797 45.68 48.0197 45.68 47.9597C45.66 47.8397 45.66 47.7197 45.66 47.5997V25.7197H23.78C10.65 25.7197 0 36.3697 0 49.4997V239.7C0 252.83 10.65 263.48 23.78 263.48H186.09C182.59 259.79 179.46 255.76 176.75 251.44H36.52C22.93 251.44 11.91 240.42 11.91 226.83V79.5997H263.45V134.44C267.97 135.67 272.32 137.3 276.47 139.28V49.4997C276.47 36.3697 265.82 25.7197 252.69 25.7197Z" fill="white"/>
<path d="M66.7499 10.58V47.6C66.7499 52.6 62.6599 56.68 57.6699 56.68H54.7499C49.7499 56.68 45.6699 52.6 45.6699 47.6V10.58C45.6699 5.58 49.7499 1.5 54.7499 1.5H57.6699C62.6599 1.5 66.7499 5.58 66.7499 10.58Z" stroke="white" stroke-width="3" stroke-miterlimit="10"/>
<path d="M230.82 10.58V47.6C230.82 52.6 226.73 56.68 221.74 56.68H218.82C213.82 56.68 209.74 52.6 209.74 47.6V10.58C209.74 5.58 213.82 1.5 218.82 1.5H221.74C226.73 1.5 230.82 5.58 230.82 10.58Z" stroke="white" stroke-width="3" stroke-miterlimit="10"/>
<path d="M242.799 104.13H33.6895V123.83H242.799V104.13Z" fill="white"/>
<path d="M199.65 144.729C191.72 149.999 184.81 156.679 179.28 164.419H33.6797V144.729H199.65Z" fill="white"/>
<path d="M168.66 185.32C166.59 191.57 165.3 198.17 164.89 205.02H33.6797V185.32H168.66Z" fill="white"/>
</g>
<defs>
<clipPath id="clip0_402_310">
<rect width="311.62" height="278.58" fill="white"/>
</clipPath>
</defs>
</svg>
