<svg width="646" height="269" viewBox="0 0 646 269" fill="none" xmlns="http://www.w3.org/2000/svg">
<g clip-path="url(#clip0_102_717)">
<path d="M272.975 107.578C294.61 101.6 328.854 93.7291 371.593 90.9478C422.144 87.6558 478.477 83.3042 533.057 103.198C544.88 107.512 571.767 118.457 609.955 121.91C623.332 123.121 634.329 123.064 641.26 122.856C642.843 172.076 644.426 221.296 646 270.516C431.956 271.548 217.912 272.579 3.86809 273.61C2.57873 256.005 1.28936 238.4 0 220.795C17.1884 215.346 34.3767 209.897 51.5651 204.458C118.157 200.598 186.19 195.405 255.569 188.697C271.999 187.108 288.325 185.453 304.555 183.74C305.304 165.066 306.063 146.393 306.812 127.719H293.918C293.596 124.606 293.273 121.494 292.951 118.382C289.557 118.788 286.173 119.195 282.778 119.611C279.508 115.6 276.237 111.599 272.966 107.588L272.975 107.578Z" fill="#167DE5"/>
<path d="M130.112 22.7228C132.843 15.1454 135.573 7.57742 138.303 0C148.268 1.38115 158.232 2.75284 168.196 4.134C168.518 11.2479 168.84 18.3618 169.163 25.4851C176.558 30.9908 183.943 36.5059 191.338 42.0116C185.071 42.7022 178.805 43.3928 172.538 44.0739C171.704 53.9595 170.869 63.8452 170.035 73.7308C171.922 75.3201 173.808 76.8999 175.695 78.4892V90.3803C173.145 91.1749 170.594 91.9696 168.035 92.7548C167.257 98.9321 166.48 105.119 165.702 111.296C162.488 112.886 159.265 114.465 156.051 116.055C156.269 167.091 156.497 218.118 156.715 269.154H112.108C111.995 217.645 111.89 166.136 111.777 114.626C108.449 113.519 105.121 112.403 101.794 111.296C101.111 104.958 100.428 98.6199 99.7362 92.2818C97.167 91.1371 94.5977 89.983 92.019 88.8383C91.2131 85.1679 90.4168 81.4974 89.6109 77.8175C92.1138 75.6606 94.6261 73.5132 97.129 71.3564C96.5507 62.4924 95.9724 53.6284 95.3941 44.7645C90.0944 43.3833 84.7853 42.0116 79.4856 40.6305C96.3611 34.6612 113.237 28.692 130.103 22.7228H130.112Z" fill="#167DE5"/>
<path d="M389.872 205.99H344.971V262.778H389.872V205.99Z" fill="#F6C93B"/>
<path d="M439.834 205.678H394.934V262.466H439.834V205.678Z" fill="#F6C93B"/>
<path d="M489.797 205.678H444.897V262.466H489.797V205.678Z" fill="#F6C93B"/>
<path d="M539.116 204.732H494.215V261.52H539.116V204.732Z" fill="#F6C93B"/>
<path d="M589.078 204.42H544.178V261.208H589.078V204.42Z" fill="#F6C93B"/>
<path d="M639.041 204.42H594.141V261.208H639.041V204.42Z" fill="#F6C93B"/>
<path d="M273.042 107.711C276.313 111.599 279.574 115.497 282.845 119.385C331.575 102.243 373.574 97.8443 401.893 96.9834C430.961 96.1036 467.992 94.9779 511.935 108.818C537.267 116.802 553.934 126.3 588.301 131.853C610.457 135.429 629.134 135.618 641.743 135.164C641.639 131.011 641.535 126.858 641.43 122.705C624.811 123.187 599.526 122.44 569.966 115.137C552.341 110.776 540.689 105.933 533.759 103.303C443.248 68.9441 324.427 95.3184 303.408 99.9917C290.126 102.943 279.479 105.866 273.051 107.72L273.042 107.711Z" fill="#F6C93B"/>
<path d="M390.507 201.733H345.607C345.502 173.628 345.398 145.522 345.294 117.417C351.333 115.26 358.32 113.169 366.161 111.504C375.281 109.565 383.614 108.61 390.82 108.193C390.715 139.373 390.611 170.563 390.507 201.743V201.733Z" fill="#F6C93B"/>
<path d="M440.47 201.421H395.569C395.332 170.184 395.095 138.948 394.858 107.711C399.712 106.093 405.609 104.561 412.407 103.69C423.888 102.205 433.729 103.123 440.868 104.4C440.735 136.744 440.602 169.078 440.47 201.421Z" fill="#F6C93B"/>
<path d="M490.423 201.421H445.523C445.39 169.238 445.257 137.056 445.125 104.873C451.789 104.797 459.838 105.204 468.836 106.765C477.216 108.212 484.46 110.312 490.413 112.441V201.412L490.423 201.421Z" fill="#F6C93B"/>
<path d="M539.125 200.948H494.225C494.301 171.689 494.386 142.42 494.462 113.16C499.904 114.446 505.801 116.14 512.011 118.363C522.591 122.156 531.616 126.612 539.049 130.907C539.078 154.254 539.106 177.601 539.125 200.948Z" fill="#F6C93B"/>
<path d="M589.078 200.627H544.178C543.808 177.544 543.439 154.453 543.069 131.37C549.459 132.562 556.2 134.038 563.225 135.864C572.573 138.295 581.209 141.01 589.078 143.829V200.617V200.627Z" fill="#F6C93B"/>
<path d="M639.041 143.839H594.141V200.627H639.041V143.839Z" fill="#F6C93B"/>
<path d="M168.489 70.486H155.236V45.5591H170.035C169.523 53.8649 169.001 62.1802 168.489 70.486Z" fill="#F6C93B"/>
<path d="M152.922 45.2469H139.668V70.1739H152.922V45.2469Z" fill="#F6C93B"/>
<path d="M137.677 44.9253H124.424V69.8522H137.677V44.9253Z" fill="#F6C93B"/>
<path d="M122.433 44.9253H109.179V69.8522H122.433V44.9253Z" fill="#F6C93B"/>
<path d="M156.345 197.315C146.106 198.943 135.876 200.579 125.637 202.206C125.419 173.552 125.192 144.888 124.974 116.234C135.355 116.178 145.736 116.13 156.117 116.073C156.193 143.157 156.269 170.232 156.336 197.315H156.345Z" fill="#F6C93B"/>
<path d="M175.666 90.6736H115.36C114.734 86.3125 114.109 81.942 113.483 77.581C134.208 77.5242 154.932 77.4769 175.666 77.4202V90.6736Z" fill="#F6C93B"/>
<path d="M165.731 111.656C148.836 111.684 131.932 111.712 115.038 111.731C114.042 105.346 113.047 98.951 112.052 92.5656C130.719 92.7264 149.386 92.8777 168.044 93.0385C167.267 99.2443 166.499 105.45 165.721 111.656H165.731Z" fill="#F6C93B"/>
<path d="M132.046 26.3081H170.48C177.325 31.3597 184.18 36.4019 191.025 41.4535H104.875C113.929 36.4019 122.992 31.3597 132.046 26.3081Z" fill="#F6C93B"/>
<path d="M228.928 243.092C229.308 242.941 229.886 242.761 230.588 242.752C232.019 242.733 233.043 243.414 233.422 243.688L256.792 266.401L304.129 272.38L367.042 273.572L380.827 281.944L379.926 285.236L362.852 285.832V298.386L332.599 299.284L324.209 297.194L325.109 293.608L314.624 293.012L313.429 290.619L309.239 290.316C309.163 289.541 309.087 288.774 309.011 287.999C310.538 288.046 312.055 288.103 313.581 288.15C313.628 287.232 313.685 286.305 313.733 285.388C317.098 284.943 320.473 284.489 323.839 284.044C324.01 283.127 324.19 282.2 324.36 281.282C328.228 280.762 332.097 280.232 335.965 279.712C320.085 279.986 304.214 280.26 288.334 280.535C279.621 279.144 270.909 277.744 262.196 276.353C255.18 273.667 248.165 270.971 241.149 268.284C237.082 259.893 233.015 251.493 228.938 243.102L228.928 243.092Z" fill="#AE304E"/>
<path d="M387.549 277.29C384.316 272.891 381.064 270.044 378.789 268.322C375.888 266.118 373.972 265.285 373.176 264.964C370.199 263.753 367.526 263.45 365.762 263.393C279.337 263.024 192.912 262.646 106.486 262.277C99.0724 260.035 91.6586 257.793 84.2447 255.551C66.6487 236.272 49.0432 216.992 31.4472 197.713C25.8346 197.193 20.2126 196.663 14.6001 196.142C21.7106 218.79 28.8305 241.427 35.941 264.074C21.2934 263.809 19.9756 266.638 19.767 267.433C18.6294 271.841 34.6232 279.371 35.941 279.986C44.7579 284.082 52.0201 285.331 57.0638 286.267C80.7843 290.638 75.4088 291.603 96.6075 295.235C109.321 297.411 124.016 298.764 137.725 299.946C150.372 301.034 156.705 301.574 162.289 301.81C171.002 302.179 176.595 302.103 192.997 301.961C203.103 301.876 213.219 301.876 223.325 301.734C239.917 301.517 279.745 301.365 371.536 301.507C376.371 301.451 384.107 300.694 392.28 296.579C396.593 294.403 403.761 290.799 403.514 286.494C403.287 282.427 396.745 278.444 387.558 277.299L387.549 277.29Z" fill="#EE426A"/>
<path d="M140.854 259.798C141.233 259.647 141.811 259.467 142.513 259.458C143.944 259.439 144.968 260.12 145.347 260.394L168.717 283.108L216.054 289.086L278.967 290.278L292.752 298.65L291.851 301.943L274.777 302.539V315.092L244.524 315.991L236.134 313.9L237.034 310.315L226.549 309.719L225.354 307.325L221.164 307.023C221.088 306.247 221.012 305.481 220.936 304.705C222.463 304.752 223.98 304.809 225.506 304.856C225.553 303.939 225.61 303.011 225.658 302.094C229.023 301.649 232.398 301.195 235.764 300.751C235.935 299.833 236.115 298.906 236.285 297.988C240.154 297.468 244.022 296.938 247.89 296.418C232.01 296.692 216.139 296.967 200.259 297.241C191.546 295.85 182.834 294.45 174.121 293.06C167.105 290.373 160.09 287.677 153.074 284.99C149.007 276.599 144.94 268.199 140.863 259.808L140.854 259.798Z" fill="#AE304E"/>
</g>
<defs>
<clipPath id="clip0_102_717">
<rect width="646" height="269" fill="white"/>
</clipPath>
</defs>
</svg>
