<svg width="1920" height="781" viewBox="0 0 1920 781" fill="none" xmlns="http://www.w3.org/2000/svg">
<g opacity="0.36">
<path d="M-97.0754 431.002V267.867H-67.524V149.702H-46.6748V52.7056H-37.0382C-37.0382 52.7056 -29.619 22.4603 -26.0767 1H-0.444099C3.05633 22.6137 9.75038 52.6638 9.75038 52.6638H20.2377V149.702H40.2222V267.867H68.0304V431.002H86.3693V691.44H-113.49V431.002H-97.0754Z" fill="#2E99D5"/>
<path d="M-12.6745 501.351H24.9795L24.9795 437.946H-12.6745L-12.6745 501.351Z" fill="#F7CB3B"/>
<path d="M-12.6745 582.131H24.9795L24.9795 518.726H-12.6745L-12.6745 582.131Z" fill="#F7CB3B"/>
<path d="M-12.6745 668.265H24.9795L24.9795 604.86H-12.6745L-12.6745 668.265Z" fill="#F7CB3B"/>
<path d="M-46.2843 427.404H16.8628L16.8628 379.617H-46.2843L-46.2843 427.404Z" fill="#EF456E"/>
<path d="M-46.9538 375.336H16.1934L16.1934 327.549H-46.9538L-46.9538 375.336Z" fill="#EF456E"/>
<path d="M-46.1867 323.003H16.9604L16.9604 275.216H-46.1867L-46.1867 323.003Z" fill="#EF456E"/>
<path d="M-31.8083 270.307H2.66602L2.66602 215.701H-31.8083L-31.8083 270.307Z" fill="#F7CB3B"/>
<path d="M-31.4738 211.574H3.00049L3.00049 156.968H-31.4738L-31.4738 211.574Z" fill="#F7CB3B"/>
<path d="M882.821 423.123C882.974 448.976 883.114 474.815 883.267 500.668C879.906 500.668 876.545 500.668 873.184 500.668C873.184 560.698 873.714 631.731 873.714 691.761H1003.83L1003.3 157.302H999.604V132.425H989.075V113.601H979.215V132.425H939.762V157.302H873.184V423.123C876.392 423.123 879.613 423.123 882.821 423.123ZM892.234 500.668C892.388 474.815 892.527 448.976 892.68 423.123C905.385 423.123 918.09 423.123 930.781 423.123C930.781 448.976 930.781 474.815 930.781 500.668C917.923 500.668 905.078 500.668 892.22 500.668H892.234Z" fill="#2E99D5"/>
<path d="M882.263 181.51H994.75V169.406H882.263V181.51Z" fill="#F7CB3B"/>
<path d="M882.263 216.147H994.75V204.044H882.263V216.147Z" fill="#F7CB3B"/>
<path d="M882.263 249.767H994.75V237.663H882.263V249.767Z" fill="#F7CB3B"/>
<path d="M882.263 284.391H994.75V272.287H882.263V284.391Z" fill="#F7CB3B"/>
<path d="M882.263 319.684H994.75V307.58H882.263V319.684Z" fill="#F7CB3B"/>
<path d="M944.685 407.882H994.207V345.579H944.685V407.882Z" fill="#F7CB3B"/>
<path d="M882.709 407.882H932.231V345.579H882.709V407.882Z" fill="white" stroke="#616AB1" stroke-width="0.2" stroke-linejoin="round"/>
<path d="M943.792 448.223H994.444V421.771H943.792V448.223Z" fill="white" stroke="#616AB1" stroke-width="0.2" stroke-linejoin="round"/>
<path d="M972.493 498.883H994.681V454.052H972.493V498.883Z" fill="#EF456E"/>
<path d="M943.904 499.106H966.092V454.275H943.904V499.106Z" fill="#EF456E"/>
<path d="M40.4451 286.594C44.1966 253.086 70.666 226.592 103.829 223.426V182.946H117.538V223.468C150.534 226.787 176.836 253.211 180.56 286.594H200.265V654.544H22.7617V286.594H40.4312H40.4451Z" fill="#2E99D5"/>
<path d="M152.18 343.585H180.574V308.194H152.18V343.585Z" fill="#FFD340"/>
<path d="M115.586 343.752H143.979V308.361H115.586V343.752Z" fill="white"/>
<path d="M77.904 343.585H106.298V308.194H77.904V343.585Z" fill="#FFD340"/>
<path d="M41.1286 343.906H69.5225V308.515H41.1286V343.906Z" fill="#FFD340"/>
<path d="M152.027 385.446H180.42V350.055H152.027V385.446Z" fill="white"/>
<path d="M76.9556 385.766H143.645V350.376H76.9556V385.766Z" fill="white"/>
<path d="M40.8078 385.948H69.2017V350.557H40.8078V385.948Z" fill="#FFD340"/>
<path d="M152.027 426.735H180.42V391.344H152.027V426.735Z" fill="white"/>
<path d="M115.084 427.237H143.478V391.846H115.084V427.237Z" fill="#FFD340"/>
<path d="M40.8078 427.237H69.2017V391.846H40.8078V427.237Z" fill="white"/>
<path d="M115.865 469.572H179.876V434.181H115.865V469.572Z" fill="white"/>
<path d="M77.1925 468.61H105.586L105.586 393.017H77.1925L77.1925 468.61Z" fill="white"/>
<path d="M40.487 468.596H68.8809V433.205H40.487V468.596Z" fill="#FFD340"/>
<path d="M697.354 295.03C697.354 286.19 697.354 277.349 697.354 268.508C702.054 268.55 706.754 268.592 711.439 268.634V239.657H719.988V268.718C723.614 268.745 727.24 268.787 730.866 268.815C735.901 277.558 740.949 286.301 745.983 295.058H758.27V690.269H605.492V295.03H697.326H697.354Z" fill="#2E99D5"/>
<path d="M748.089 308.152H720.979V339.638H748.089V308.152Z" fill="white"/>
<path d="M712.22 308.584H685.109V340.071H712.22V308.584Z" fill="white"/>
<path d="M677.23 308.877H650.119V340.364H677.23V308.877Z" fill="white"/>
<path d="M642.546 309.17H615.436V340.656H642.546V309.17Z" fill="white"/>
<path d="M712.513 345.83H685.402V377.316H712.513V345.83Z" fill="white"/>
<path d="M677.523 346.123H650.412V377.609H677.523V346.123Z" fill="white"/>
<path d="M642.825 346.415H615.714V377.902H642.825V346.415Z" fill="white"/>
<path d="M749.107 384.093H720.686V415.579H749.107V384.093Z" fill="white"/>
<path d="M712.471 384.135H685.36V415.621H712.471V384.135Z" fill="white"/>
<path d="M677.872 384.428H650.761V415.914H677.872V384.428Z" fill="white"/>
<path d="M748.689 420.976H721.578V452.462H748.689V420.976Z" fill="white"/>
<path d="M677.844 421.701H650.733V453.187H677.844V421.701Z" fill="white"/>
<path d="M643.146 421.994H616.035V453.48H643.146V421.994Z" fill="white"/>
<path d="M748.981 458.207H721.871V489.694H748.981V458.207Z" fill="white"/>
<path d="M713.126 458.653H686.016V490.14H713.126V458.653Z" fill="white"/>
<path d="M678.136 458.946H651.025V490.433H678.136V458.946Z" fill="white"/>
<path d="M643.439 459.239H616.328V490.725H643.439V459.239Z" fill="white"/>
<path d="M749.707 496.917H721.285V528.403H749.707V496.917Z" fill="white"/>
<path d="M713.071 496.958H685.96V528.445H713.071V496.958Z" fill="white"/>
<path d="M643.397 497.544H616.286V529.031H643.397V497.544Z" fill="white"/>
<path d="M721.271 376.87H748.382V345.384H721.271V376.87Z" fill="#F6C82F"/>
<path d="M615.673 416.207H642.784V384.72H615.673V416.207Z" fill="#F6C82F"/>
<path d="M685.723 452.895H712.834V421.408H685.723V452.895Z" fill="#F6C82F"/>
<path d="M651.374 528.738H678.485V497.251H651.374V528.738Z" fill="#F6C82F"/>
<path d="M748.313 349.232V325.833H756.583V349.232H872.403V325.833H880.687V349.232H889.236V722.062H741.451V349.232H748.313Z" fill="#2E99D5"/>
<path d="M829.408 384.121H875.974V363.971H829.408V384.121Z" fill="#FFD340"/>
<path d="M774.908 384.051H821.473V363.902H774.908V384.051Z" fill="white" stroke="#616AB1" stroke-width="0.2" stroke-linejoin="round"/>
<path d="M828.92 414.018H875.485V393.868H828.92V414.018Z" fill="white" stroke="#616AB1" stroke-width="0.2" stroke-linejoin="round"/>
<path d="M775.521 443.161H822.086V423.012H775.521V443.161Z" fill="white" stroke="#5F68B0" stroke-width="0.2" stroke-linejoin="round"/>
<path d="M828.822 470.604H875.388V450.454H828.822V470.604Z" fill="#EF456B"/>
<path d="M775.703 470.883H822.268V450.733H775.703V470.883Z" fill="white"/>
<path d="M829.018 443.078H875.583V422.928H829.018V443.078Z" fill="white" stroke="#616AB1" stroke-width="0.2" stroke-linejoin="round"/>
<path d="M774.852 413.739H821.417V393.589H774.852V413.739Z" fill="#FFD240"/>
<path d="M752.72 691.594H875.695V482.986H752.72V691.594Z" fill="#FFD240"/>
<mask id="mask0_416_243" style="mask-type:luminance" maskUnits="userSpaceOnUse" x="752" y="482" width="124" height="210">
<path d="M752.72 691.594H875.695V482.986H752.72V691.594Z" fill="white"/>
</mask>
<g mask="url(#mask0_416_243)">
<path d="M841.778 527.483C844.01 534.831 842.42 542.891 844.428 550.296C846.924 559.471 854.609 566.36 862.851 571.101C871.093 575.842 880.185 579.007 888.288 583.957C896.767 589.131 904.144 596.242 913.349 600.007C922.553 603.772 934.853 602.977 940.32 594.681C943.235 590.26 943.611 584.655 943.36 579.37C942.398 558.383 933.18 538.68 922.539 520.566C904.103 489.233 873.491 460.648 833.885 467.857C822.728 469.893 804.347 477.046 808.726 491.451C813.454 506.985 836.688 510.791 841.778 527.497V527.483Z" fill="#EF456E"/>
<path d="M825.001 654.809C809.005 680.829 815.964 722.327 840.704 732.66C863.338 742.128 894.772 722.955 904.674 696.781C913.544 673.341 906.975 639.4 883.156 629.765C861.428 620.98 836.102 636.765 825.015 654.795L825.001 654.809Z" fill="#EF456E"/>
<path d="M738.202 553.81C738.453 531.457 740.043 521.891 747.378 515.337C760.655 503.499 784.697 508.714 798.894 516.941C812.854 525.043 828.251 542.361 825.782 561.019C825.085 566.304 823.16 570.473 821.584 573.234C821.584 573.234 817.791 581.531 819.534 586.105C819.534 586.119 819.562 586.161 819.576 586.23C819.73 586.635 820.19 587.862 820.608 589.521C820.762 590.121 820.901 590.804 821.027 591.599C821.473 594.541 821.849 596.981 820.483 598.78C819.032 600.705 816.341 600.914 814.681 601.053C812.994 601.193 811.585 600.928 810.679 600.677C809.396 601.918 808.057 603.689 807.876 605.92C807.652 608.583 809.228 610.187 808.392 611.274C807.178 612.85 802.465 611.246 802.395 611.539C802.339 611.776 805.798 612.055 806.565 613.91C807.192 615.416 805.561 616.476 804.389 619.627C802.632 624.41 804.71 626.655 802.646 630.615C802.646 630.615 801.433 632.609 799.494 634.31C795.966 637.392 777.962 626.209 767.084 629.737C755.606 633.46 756.666 652.034 751.436 652.354C743.194 652.856 737.658 599.324 738.174 553.81H738.202Z" fill="white" stroke="#EF456B" stroke-width="0.2" stroke-linejoin="round"/>
</g>
<path d="M766.554 471.775H768.381V364.041H766.554V471.775Z" fill="#EF456B"/>
<path d="M763.165 471.775H764.992V364.041H763.165V471.775Z" fill="#EF456B"/>
<path d="M759.79 471.775H761.617V364.041H759.79V471.775Z" fill="#EF456B"/>
<path d="M756.541 471.775H758.368V364.041H756.541V471.775Z" fill="#EF456B"/>
<path d="M753.012 471.775H754.839V364.041H753.012V471.775Z" fill="#EF456B"/>
<path d="M794.306 510.777C794.488 510.847 795.338 511.237 795.199 514.751C794.767 526.576 784.558 538.666 788.226 549.236C789.007 551.495 789.481 550.937 790.569 553.851C793.637 562.037 791.224 569.873 790.304 573.067C787.027 584.459 779.063 590.776 776.177 592.854C773.123 595.67 768.674 596.633 764.574 595.364C760.292 594.039 757.071 590.497 756.248 586.216C755.425 582.772 753.598 573.095 758.298 562.497C759.693 559.359 763.081 551.829 770.849 547.284C773.82 545.541 773.75 546.391 775.786 545.053C785.116 538.875 783.568 522.825 790.862 513.413C791.475 512.618 793.219 510.359 794.306 510.763V510.777Z" fill="#EF456E"/>
<path d="M793.539 512.521C794.251 512.772 790.583 525.238 789.174 530.035C787.319 536.337 785.646 541.483 784.502 544.913C785.604 546.433 787.013 548.72 788.086 551.732C790.959 559.889 789.007 567.085 788.407 569.33C784.851 582.479 771.1 595.364 764.211 592.533C757.545 589.8 756.68 572.161 762.384 560.796C766.345 552.903 773.611 547.786 774.168 547.409C776.748 545.624 779.133 544.481 780.89 543.756C782.02 540.423 783.749 535.445 786.05 529.491C786.608 528.041 792.73 512.256 793.539 512.534V512.521Z" fill="#F3F5F6"/>
<path d="M779.998 553.224C784.475 555.078 785.018 565.453 782.257 572.774C779.719 579.509 773.123 586.955 768.437 585.561C763.765 584.166 761.966 574.266 764.211 566.945C766.791 558.579 775.396 551.314 780.012 553.224H779.998Z" fill="#EF456E"/>
<path d="M168.72 299.59V721.518H344.285H503.519V721.504H643.453V507.389H630.999V496.415H636.187V493.919H572.412L503.757 493.905V496.401H509.809V507.389H503.519V430.472H480.857V418.759H486.575V415.998H416.316L344.285 415.984V299.59H331.204V280.542H271.292V299.59H168.734H168.72ZM519.404 496.387V507.375H512.584V496.387H519.404ZM528.441 496.387V507.375H522.179V496.387H528.441ZM537.394 496.387V507.375H531.216V496.387H537.394ZM546.013 496.387V507.375H540.183V496.387H546.013ZM554.743 496.387V507.375H548.788V496.387H554.743ZM564.435 496.387V507.375H557.532V496.387H564.435ZM573.57 496.401V507.375H567.211V496.387H567.531L573.584 496.401H573.57ZM583.165 496.401V507.375H576.345V496.401H583.165ZM592.216 496.401V507.375H585.954V496.401H592.216ZM601.169 496.401V507.375H594.991V496.401H601.169ZM609.787 496.401V507.375H603.958V496.401H609.787ZM618.518 496.401V507.375H612.563V496.401H618.518ZM628.21 507.375H621.307V496.401H628.21V507.375ZM357.91 418.731V430.458H350.393V418.731H357.91ZM367.867 418.731V430.458H360.964V418.731H367.867ZM377.741 418.731V430.458H370.936V418.731H377.741ZM387.224 418.731V430.458H380.795V418.731H387.224ZM396.861 418.731V430.458H390.293V418.731H396.861ZM407.53 418.731V430.458H399.915V418.731H407.53ZM417.599 418.745V430.458H410.584V418.731H410.933L417.599 418.745ZM428.17 418.745V430.458H420.653V418.745H428.17ZM438.141 418.745V430.458H431.238V418.745H438.141ZM448.001 418.745V430.458H441.195V418.745H448.001ZM457.484 418.745V430.458H451.055V418.745H457.484ZM467.121 418.745V430.458H460.552V418.745H467.121ZM477.789 430.458H470.175V418.745H477.789V430.458ZM344.271 430.458V418.731H347.325V430.458H344.271Z" fill="#2E99D5"/>
<path d="M216.359 244.454H184.172V287.947H216.359V244.454Z" fill="#3D7CBD"/>
<path d="M208.326 317.09H182.442V339.039H208.326V317.09Z" fill="white"/>
<path d="M236.386 316.574H210.502V338.523H236.386V316.574Z" fill="#F7CB3B"/>
<path d="M208.326 341.437H182.442V363.386H208.326V341.437Z" fill="white"/>
<path d="M236.386 340.921H210.502V362.87H236.386V340.921Z" fill="#F7CB3B"/>
<path d="M208.326 365.77H182.442V387.719H208.326V365.77Z" fill="white"/>
<path d="M236.386 365.268H210.502V387.216H236.386V365.268Z" fill="#F7CB3B"/>
<path d="M208.326 414.45H182.442V436.398H208.326V414.45Z" fill="white"/>
<path d="M236.386 413.948H210.502V435.896H236.386V413.948Z" fill="#F7CB3B"/>
<path d="M208.326 390.117H182.442V412.065H208.326V390.117Z" fill="white"/>
<path d="M236.386 389.601H210.502V411.55H236.386V389.601Z" fill="#F7CB3B"/>
<path d="M208.326 438.797H182.442V460.745H208.326V438.797Z" fill="white"/>
<path d="M236.386 438.281H210.502V460.229H236.386V438.281Z" fill="#F7CB3B"/>
<path d="M208.326 463.144H182.442V485.092H208.326V463.144Z" fill="white"/>
<path d="M236.386 462.628H210.502V484.576H236.386V462.628Z" fill="#F7CB3B"/>
<path d="M208.326 511.823H182.442V533.772H208.326V511.823Z" fill="white"/>
<path d="M236.386 511.307H210.502V533.256H236.386V511.307Z" fill="#F7CB3B"/>
<path d="M208.326 487.476H182.442V509.425H208.326V487.476Z" fill="white"/>
<path d="M236.386 486.96H210.502V508.909H236.386V486.96Z" fill="#F7CB3B"/>
<path d="M208.326 560.043H182.442V581.991H208.326V560.043Z" fill="white"/>
<path d="M236.386 559.987H210.502V581.935H236.386V559.987Z" fill="#F7CB3B"/>
<path d="M208.326 536.156H182.442V558.105H208.326V536.156Z" fill="white"/>
<path d="M236.386 535.654H210.502V557.602H236.386V535.654Z" fill="#F7CB3B"/>
<path d="M208.326 584.39H182.442V606.338H208.326V584.39Z" fill="white"/>
<path d="M236.386 584.334H210.502V606.282H236.386V584.334Z" fill="#F7CB3B"/>
<path d="M208.326 608.722H182.442V630.671H208.326V608.722Z" fill="white"/>
<path d="M236.386 608.667H210.502V630.615H236.386V608.667Z" fill="#F7CB3B"/>
<path d="M208.326 657.402H182.442V679.351H208.326V657.402Z" fill="white"/>
<path d="M236.386 657.36H210.502V679.309H236.386V657.36Z" fill="#F7CB3B"/>
<path d="M282.114 339.067H256.23V361.015H282.114V339.067Z" fill="white"/>
<path d="M312.405 316.351H286.521V338.3H312.405V316.351Z" fill="#F7CB3B"/>
<path d="M282.114 384.511H256.23V406.46H282.114V384.511Z" fill="white"/>
<path d="M312.405 361.796H286.521V383.745H312.405V361.796Z" fill="#F7CB3B"/>
<path d="M282.114 429.956H256.23V451.904H282.114V429.956Z" fill="white"/>
<path d="M312.405 407.241H286.521V429.189H312.405V407.241Z" fill="#F7CB3B"/>
<path d="M282.114 475.401H256.23V497.349H282.114V475.401Z" fill="white"/>
<path d="M312.405 452.685H286.521V474.634H312.405V452.685Z" fill="#F7CB3B"/>
<path d="M282.114 520.845H256.23V542.794H282.114V520.845Z" fill="white"/>
<path d="M312.405 498.116H286.521V520.064H312.405V498.116Z" fill="#F7CB3B"/>
<path d="M282.114 566.29H256.23V588.238H282.114V566.29Z" fill="white"/>
<path d="M312.405 543.561H286.521V565.509H312.405V543.561Z" fill="#F7CB3B"/>
<path d="M282.114 611.735H256.23V633.683H282.114V611.735Z" fill="white"/>
<path d="M312.405 589.005H286.521V610.954H312.405V589.005Z" fill="#F7CB3B"/>
<path d="M282.114 657.179H256.23V679.128H282.114V657.179Z" fill="white"/>
<path d="M312.405 634.45H286.521V656.398H312.405V634.45Z" fill="#F7CB3B"/>
<path d="M208.326 633.069H182.442V655.018H208.326V633.069Z" fill="white"/>
<path d="M236.386 633.014H210.502V654.962H236.386V633.014Z" fill="#F7CB3B"/>
<path d="M451.948 446.396H426.064V468.345H451.948V446.396Z" fill="white"/>
<path d="M482.252 446.341H456.368V468.289H482.252V446.341Z" fill="#F7CB3B"/>
<path d="M451.208 490.335H425.325V512.283H451.208V490.335Z" fill="white"/>
<path d="M481.513 490.293H455.629V512.242H481.513V490.293Z" fill="#F7CB3B"/>
<path d="M452.673 539.419H426.789V561.368H452.673V539.419Z" fill="white"/>
<path d="M482.977 539.363H457.094V561.312H482.977V539.363Z" fill="#F7CB3B"/>
<path d="M452.673 590.692H426.789V612.641H452.673V590.692Z" fill="white"/>
<path d="M482.977 590.637H457.094V612.585H482.977V590.637Z" fill="#F7CB3B"/>
<path d="M453.649 639.442H427.765V661.39H453.649V639.442Z" fill="white"/>
<path d="M483.939 639.386H458.056V661.335H483.939V639.386Z" fill="#F7CB3B"/>
<path d="M378.69 446.396H352.806V468.345H378.69V446.396Z" fill="white" stroke="#616AB1" stroke-width="0.2" stroke-linejoin="round"/>
<path d="M408.994 446.341H383.11V468.289H408.994V446.341Z" fill="#F7CB3B"/>
<path d="M377.951 490.335H352.067V512.283H377.951V490.335Z" fill="white" stroke="#616AB1" stroke-width="0.2" stroke-linejoin="round"/>
<path d="M408.255 490.293H382.372V512.242H408.255V490.293Z" fill="#F7CB3B"/>
<path d="M379.415 539.419H353.531V561.368H379.415V539.419Z" fill="white" stroke="#616AB1" stroke-width="0.2" stroke-linejoin="round"/>
<path d="M409.72 539.363H383.836V561.312H409.72V539.363Z" fill="#F7CB3B"/>
<path d="M379.415 590.692H353.531V612.641H379.415V590.692Z" fill="white" stroke="#616AB1" stroke-width="0.2" stroke-linejoin="round"/>
<path d="M409.72 590.637H383.836V612.585H409.72V590.637Z" fill="#F7CB3B"/>
<path d="M380.391 639.442H354.507V661.39H380.391V639.442Z" fill="white" stroke="#616AB1" stroke-width="0.2" stroke-linejoin="round"/>
<path d="M410.681 639.386H384.798V661.335H410.681V639.386Z" fill="#F7CB3B"/>
<path d="M622.799 528.752H509.977V695.763H622.799V528.752Z" fill="#EF456E"/>
<path d="M217.809 286.036H182.136V292.451H217.809V286.036Z" fill="#3D7CBD"/>
<path d="M187.644 292.046H184.548V301.054H187.644V292.046Z" fill="#3D7CBD"/>
<path d="M216.247 292.311H213.151V301.319H216.247V292.311Z" fill="#3D7CBD"/>
</g>
<g style="mix-blend-mode:overlay" opacity="0.49">
<path d="M1003.84 691.761L1003.31 157.302H999.618V132.425H989.089V113.601H979.229V132.425H939.776V157.302H873.198V325.82H872.431V349.232H758.312V295.03H746.025C740.991 286.287 735.942 277.544 730.908 268.787C727.282 268.759 723.656 268.718 720.03 268.69V239.63H711.481V268.606C706.781 268.564 702.082 268.522 697.396 268.48V295.003H605.562V493.877H572.454L503.799 493.863V496.359H509.851V507.347H503.562V430.43H480.899V418.717H486.617V415.956H416.358L344.327 415.942V299.548H331.246V280.5H271.334V299.548H216.289V292.423H217.865V286.009H216.415V244.426H184.228V286.009H182.192V286.566H180.616C176.878 253.184 150.576 226.759 117.594 223.44V182.918H103.885V223.398C77.2068 225.95 54.8794 243.59 45.2009 267.839H40.2919V149.675H20.3074V52.6638H9.82009C9.82009 52.6638 3.05632 22.6137 -0.444107 1H-26.0767C-29.619 22.4604 -37.0382 52.7056 -37.0382 52.7056H-46.6748V149.703H-67.524V267.867H-97.0754V431.002H-113.49V691.44H86.3832V654.558H168.72V721.518H503.52L643.453 721.504V690.255H741.451V722.062H827.218C830.858 726.747 835.363 730.443 840.718 732.674C854.901 738.6 872.529 733.287 886.168 722.062H889.25V719.343C895.972 713.054 901.467 705.301 904.688 696.809C905.302 695.177 905.832 693.504 906.306 691.789H1003.86L1003.84 691.761ZM213.152 299.59H200.266V292.465H213.152V299.59ZM470.175 418.745H477.789V430.458H470.175V418.745ZM460.552 418.745H467.121V430.458H460.552V418.745ZM451.055 418.745H457.484V430.458H451.055V418.745ZM441.195 418.745H448.001V430.458H441.195V418.745ZM431.238 418.745H438.141V430.458H431.238V418.745ZM399.915 418.731H407.53V430.458H399.915V418.731ZM390.293 418.731H396.861V430.458H390.293V418.731ZM370.936 418.731H377.741V430.458H370.936V418.731ZM360.964 418.731H367.868V430.458H360.964V418.731ZM347.339 430.458H344.285V418.731H347.339V430.458ZM350.393 418.731H357.91V430.458H350.393V418.731ZM380.796 418.731H387.225V430.458H380.796V418.731ZM417.599 430.458H410.584V418.731H410.933L417.599 418.745V430.458ZM420.653 418.745H428.17V430.458H420.653V418.745ZM603.944 496.401H605.52V507.375H603.944V496.401ZM594.991 496.401H601.169V507.375H594.991V496.401ZM585.954 496.401H592.216V507.375H585.954V496.401ZM576.345 496.401H583.165V507.375H576.345V496.401ZM567.211 496.387H567.531L573.584 496.401V507.375H567.225V496.387H567.211ZM557.518 496.387H564.422V507.375H557.518V496.387ZM548.788 496.387H554.743V507.375H548.788V496.387ZM540.17 496.387H545.999V507.375H540.17V496.387ZM531.216 496.387H537.394V507.375H531.216V496.387ZM522.179 496.387H528.441V507.375H522.179V496.387ZM512.571 496.387H519.39V507.375H512.571V496.387ZM892.332 484.367C892.443 463.952 892.569 443.538 892.681 423.123H930.781V500.668H908.663C903.712 494.686 898.259 489.164 892.318 484.367H892.332Z" fill="#496F75"/>
</g>
<g opacity="0.36">
<path d="M1145.92 430.002V266.867H1175.48V148.702H1196.33V51.7056H1205.96C1205.96 51.7056 1213.38 21.4603 1216.92 0H1242.56C1246.06 21.6137 1252.75 51.6638 1252.75 51.6638H1263.24V148.702H1283.22V266.867H1311.03V430.002H1329.37V690.44H1129.51V430.002H1145.92Z" fill="#2E99D5"/>
<path d="M1230.33 500.351H1267.98V436.946H1230.33V500.351Z" fill="#F7CB3B"/>
<path d="M1189.77 500.546H1227.42V437.141H1189.77V500.546Z" fill="#F7CB3B"/>
<path d="M1230.33 581.131H1267.98V517.726H1230.33V581.131Z" fill="#F7CB3B"/>
<path d="M1189.77 581.312H1227.42V517.907H1189.77V581.312Z" fill="#F7CB3B"/>
<path d="M1230.33 667.265H1267.98V603.86H1230.33V667.265Z" fill="#F7CB3B"/>
<path d="M1189.77 667.446H1227.42V604.041H1189.77V667.446Z" fill="#F7CB3B"/>
<path d="M1196.72 426.404H1259.86V378.617H1196.72V426.404Z" fill="#EF456E"/>
<path d="M1196.05 374.336H1259.19V326.549H1196.05V374.336Z" fill="#EF456E"/>
<path d="M1196.81 322.003H1259.96V274.216H1196.81V322.003Z" fill="#EF456E"/>
<path d="M1211.19 269.307H1245.67V214.701H1211.19V269.307Z" fill="#F7CB3B"/>
<path d="M1211.53 210.574H1246V155.968H1211.53V210.574Z" fill="#F7CB3B"/>
<path d="M1219.31 148.326H1238.27V65.148H1219.31V148.326Z" fill="#F7CB3B"/>
<path d="M1283.45 285.594C1287.2 252.086 1313.67 225.592 1346.83 222.426V181.946H1360.54V222.468C1393.53 225.787 1419.84 252.211 1423.56 285.594H1443.27V653.544H1265.76V285.594H1283.43H1283.45Z" fill="#2E99D5"/>
<path d="M1395.18 342.585H1423.57V307.194H1395.18V342.585Z" fill="#FFD340"/>
<path d="M1358.59 342.752H1386.98V307.361H1358.59V342.752Z" fill="white"/>
<path d="M1320.9 342.585H1349.3V307.194H1320.9V342.585Z" fill="#FFD340"/>
<path d="M1284.13 342.906H1312.52V307.515H1284.13V342.906Z" fill="#FFD340"/>
<path d="M1395.03 384.446H1423.42V349.055H1395.03V384.446Z" fill="white"/>
<path d="M1319.96 384.766H1386.64V349.376H1319.96V384.766Z" fill="white"/>
<path d="M1283.81 384.948H1312.2V349.557H1283.81V384.948Z" fill="#FFD340"/>
<path d="M1395.03 425.735H1423.42V390.344H1395.03V425.735Z" fill="white"/>
<path d="M1358.08 426.237H1386.48V390.846H1358.08V426.237Z" fill="#FFD340"/>
<path d="M1283.81 426.237H1312.2V390.846H1283.81V426.237Z" fill="white"/>
<path d="M1358.87 468.572H1422.88V433.181H1358.87V468.572Z" fill="white"/>
<path d="M1320.19 467.61H1348.59V392.017H1320.19V467.61Z" fill="white"/>
<path d="M1283.49 467.596H1311.88V432.205H1283.49V467.596Z" fill="#FFD340"/>
<path d="M1940.35 294.03C1940.35 285.19 1940.35 276.349 1940.35 267.508C1945.05 267.55 1949.75 267.592 1954.44 267.634V238.657H1962.99V267.718C1966.61 267.745 1970.24 267.787 1973.87 267.815C1978.9 276.558 1983.95 285.301 1988.98 294.058H2001.27V689.269H1848.49V294.03H1940.33H1940.35Z" fill="#2E99D5"/>
<path d="M1920.23 307.877H1893.12V339.364H1920.23V307.877Z" fill="white"/>
<path d="M1885.55 308.17H1858.44V339.656H1885.55V308.17Z" fill="white"/>
<path d="M1920.52 345.123H1893.41V376.609H1920.52V345.123Z" fill="white"/>
<path d="M1885.83 345.415H1858.71V376.902H1885.83V345.415Z" fill="white"/>
<path d="M1920.87 383.428H1893.76V414.914H1920.87V383.428Z" fill="white"/>
<path d="M1920.84 420.701H1893.73V452.187H1920.84V420.701Z" fill="white"/>
<path d="M1886.15 420.994H1859.04V452.48H1886.15V420.994Z" fill="white"/>
<path d="M1921.14 457.946H1894.03V489.433H1921.14V457.946Z" fill="white"/>
<path d="M1886.44 458.239H1859.33V489.725H1886.44V458.239Z" fill="white"/>
<path d="M1886.4 496.544H1859.29V528.031H1886.4V496.544Z" fill="white"/>
<path d="M1858.67 415.207H1885.78V383.72H1858.67V415.207Z" fill="#F6C82F"/>
<path d="M1894.37 527.738H1921.49V496.251H1894.37V527.738Z" fill="#F6C82F"/>
<path d="M1411.72 298.59V720.518H1587.28H1746.52V720.504H1886.45V506.389H1874V495.415H1879.19V492.919H1815.41L1746.76 492.905V495.401H1752.81V506.389H1746.52V429.472H1723.86V417.759H1729.58V414.998H1659.32L1587.28 414.984V298.59H1574.2V279.542H1514.29V298.59H1411.73H1411.72ZM1762.4 495.387V506.375H1755.58V495.387H1762.4ZM1771.44 495.387V506.375H1765.18V495.387H1771.44ZM1780.39 495.387V506.375H1774.22V495.387H1780.39ZM1789.01 495.387V506.375H1783.18V495.387H1789.01ZM1797.74 495.387V506.375H1791.79V495.387H1797.74ZM1807.44 495.387V506.375H1800.53V495.387H1807.44ZM1816.57 495.401V506.375H1810.21V495.387H1810.53L1816.58 495.401H1816.57ZM1826.16 495.401V506.375H1819.35V495.401H1826.16ZM1835.22 495.401V506.375H1828.95V495.401H1835.22ZM1844.17 495.401V506.375H1837.99V495.401H1844.17ZM1852.79 495.401V506.375H1846.96V495.401H1852.79ZM1861.52 495.401V506.375H1855.56V495.401H1861.52ZM1871.21 506.375H1864.31V495.401H1871.21V506.375ZM1600.91 417.731V429.458H1593.39V417.731H1600.91ZM1610.87 417.731V429.458H1603.96V417.731H1610.87ZM1620.74 417.731V429.458H1613.94V417.731H1620.74ZM1630.22 417.731V429.458H1623.8V417.731H1630.22ZM1639.86 417.731V429.458H1633.29V417.731H1639.86ZM1650.53 417.731V429.458H1642.92V417.731H1650.53ZM1660.6 417.745V429.458H1653.58V417.731H1653.93L1660.6 417.745ZM1671.17 417.745V429.458H1663.65V417.745H1671.17ZM1681.14 417.745V429.458H1674.24V417.745H1681.14ZM1691 417.745V429.458H1684.2V417.745H1691ZM1700.48 417.745V429.458H1694.05V417.745H1700.48ZM1710.12 417.745V429.458H1703.55V417.745H1710.12ZM1720.79 429.458H1713.17V417.745H1720.79V429.458ZM1587.27 429.458V417.731H1590.33V429.458H1587.27Z" fill="#2E99D5"/>
<path d="M1459.36 243.454H1427.17V286.947H1459.36V243.454Z" fill="#3D7CBD"/>
<path d="M1451.33 316.09H1425.44V338.039H1451.33V316.09Z" fill="white"/>
<path d="M1479.39 315.574H1453.5V337.523H1479.39V315.574Z" fill="#F7CB3B"/>
<path d="M1451.33 340.437H1425.44V362.386H1451.33V340.437Z" fill="white"/>
<path d="M1479.39 339.921H1453.5V361.87H1479.39V339.921Z" fill="#F7CB3B"/>
<path d="M1451.33 364.77H1425.44V386.719H1451.33V364.77Z" fill="white"/>
<path d="M1479.39 364.268H1453.5V386.216H1479.39V364.268Z" fill="#F7CB3B"/>
<path d="M1451.33 413.45H1425.44V435.398H1451.33V413.45Z" fill="white"/>
<path d="M1479.39 412.948H1453.5V434.896H1479.39V412.948Z" fill="#F7CB3B"/>
<path d="M1451.33 389.117H1425.44V411.065H1451.33V389.117Z" fill="white"/>
<path d="M1479.39 388.601H1453.5V410.55H1479.39V388.601Z" fill="#F7CB3B"/>
<path d="M1451.33 437.797H1425.44V459.745H1451.33V437.797Z" fill="white"/>
<path d="M1479.39 437.281H1453.5V459.229H1479.39V437.281Z" fill="#F7CB3B"/>
<path d="M1451.33 462.144H1425.44V484.092H1451.33V462.144Z" fill="white"/>
<path d="M1479.39 461.628H1453.5V483.576H1479.39V461.628Z" fill="#F7CB3B"/>
<path d="M1451.33 510.823H1425.44V532.772H1451.33V510.823Z" fill="white"/>
<path d="M1479.39 510.307H1453.5V532.256H1479.39V510.307Z" fill="#F7CB3B"/>
<path d="M1451.33 486.476H1425.44V508.425H1451.33V486.476Z" fill="white"/>
<path d="M1479.39 485.96H1453.5V507.909H1479.39V485.96Z" fill="#F7CB3B"/>
<path d="M1451.33 559.043H1425.44V580.991H1451.33V559.043Z" fill="white"/>
<path d="M1479.39 558.987H1453.5V580.935H1479.39V558.987Z" fill="#F7CB3B"/>
<path d="M1451.33 535.156H1425.44V557.105H1451.33V535.156Z" fill="white"/>
<path d="M1479.39 534.654H1453.5V556.602H1479.39V534.654Z" fill="#F7CB3B"/>
<path d="M1451.33 583.39H1425.44V605.338H1451.33V583.39Z" fill="white"/>
<path d="M1479.39 583.334H1453.5V605.282H1479.39V583.334Z" fill="#F7CB3B"/>
<path d="M1451.33 607.722H1425.44V629.671H1451.33V607.722Z" fill="white"/>
<path d="M1479.39 607.667H1453.5V629.615H1479.39V607.667Z" fill="#F7CB3B"/>
<path d="M1451.33 656.402H1425.44V678.351H1451.33V656.402Z" fill="white"/>
<path d="M1479.39 656.36H1453.5V678.309H1479.39V656.36Z" fill="#F7CB3B"/>
<path d="M1525.11 338.067H1499.23V360.015H1525.11V338.067Z" fill="white"/>
<path d="M1555.41 315.351H1529.52V337.3H1555.41V315.351Z" fill="#F7CB3B"/>
<path d="M1525.11 383.511H1499.23V405.46H1525.11V383.511Z" fill="white"/>
<path d="M1555.41 360.796H1529.52V382.745H1555.41V360.796Z" fill="#F7CB3B"/>
<path d="M1525.11 428.956H1499.23V450.904H1525.11V428.956Z" fill="white"/>
<path d="M1555.41 406.241H1529.52V428.189H1555.41V406.241Z" fill="#F7CB3B"/>
<path d="M1525.11 474.401H1499.23V496.349H1525.11V474.401Z" fill="white"/>
<path d="M1555.41 451.685H1529.52V473.634H1555.41V451.685Z" fill="#F7CB3B"/>
<path d="M1525.11 519.845H1499.23V541.794H1525.11V519.845Z" fill="white"/>
<path d="M1555.41 497.116H1529.52V519.064H1555.41V497.116Z" fill="#F7CB3B"/>
<path d="M1525.11 565.29H1499.23V587.238H1525.11V565.29Z" fill="white"/>
<path d="M1555.41 542.561H1529.52V564.509H1555.41V542.561Z" fill="#F7CB3B"/>
<path d="M1525.11 610.735H1499.23V632.683H1525.11V610.735Z" fill="white"/>
<path d="M1555.41 588.005H1529.52V609.954H1555.41V588.005Z" fill="#F7CB3B"/>
<path d="M1525.11 656.179H1499.23V678.128H1525.11V656.179Z" fill="white"/>
<path d="M1555.41 633.45H1529.52V655.398H1555.41V633.45Z" fill="#F7CB3B"/>
<path d="M1451.33 632.069H1425.44V654.018H1451.33V632.069Z" fill="white"/>
<path d="M1479.39 632.014H1453.5V653.962H1479.39V632.014Z" fill="#F7CB3B"/>
<path d="M1694.95 445.396H1669.06V467.345H1694.95V445.396Z" fill="white"/>
<path d="M1725.25 445.341H1699.37V467.289H1725.25V445.341Z" fill="#F7CB3B"/>
<path d="M1694.21 489.335H1668.32V511.283H1694.21V489.335Z" fill="white"/>
<path d="M1724.51 489.293H1698.63V511.242H1724.51V489.293Z" fill="#F7CB3B"/>
<path d="M1695.67 538.419H1669.79V560.368H1695.67V538.419Z" fill="white"/>
<path d="M1725.98 538.363H1700.09V560.312H1725.98V538.363Z" fill="#F7CB3B"/>
<path d="M1695.67 589.692H1669.79V611.641H1695.67V589.692Z" fill="white"/>
<path d="M1725.98 589.637H1700.09V611.585H1725.98V589.637Z" fill="#F7CB3B"/>
<path d="M1696.65 638.442H1670.76V660.39H1696.65V638.442Z" fill="white"/>
<path d="M1726.94 638.386H1701.06V660.335H1726.94V638.386Z" fill="#F7CB3B"/>
<path d="M1621.69 445.396H1595.81V467.345H1621.69V445.396Z" fill="white" stroke="#616AB1" stroke-width="0.2" stroke-linejoin="round"/>
<path d="M1651.99 445.341H1626.11V467.289H1651.99V445.341Z" fill="#F7CB3B"/>
<path d="M1620.95 489.335H1595.07V511.283H1620.95V489.335Z" fill="white" stroke="#616AB1" stroke-width="0.2" stroke-linejoin="round"/>
<path d="M1651.25 489.293H1625.37V511.242H1651.25V489.293Z" fill="#F7CB3B"/>
<path d="M1622.41 538.419H1596.53V560.368H1622.41V538.419Z" fill="white" stroke="#616AB1" stroke-width="0.2" stroke-linejoin="round"/>
<path d="M1652.72 538.363H1626.83V560.312H1652.72V538.363Z" fill="#F7CB3B"/>
<path d="M1622.41 589.692H1596.53V611.641H1622.41V589.692Z" fill="white" stroke="#616AB1" stroke-width="0.2" stroke-linejoin="round"/>
<path d="M1652.72 589.637H1626.83V611.585H1652.72V589.637Z" fill="#F7CB3B"/>
<path d="M1623.39 638.442H1597.51V660.39H1623.39V638.442Z" fill="white" stroke="#616AB1" stroke-width="0.2" stroke-linejoin="round"/>
<path d="M1653.68 638.386H1627.8V660.335H1653.68V638.386Z" fill="#F7CB3B"/>
<path d="M1865.8 527.752H1752.98V694.763H1865.8V527.752Z" fill="#EF456E"/>
<path d="M1460.81 285.036H1425.14V291.451H1460.81V285.036Z" fill="#3D7CBD"/>
<path d="M1430.64 291.046H1427.55V300.054H1430.64V291.046Z" fill="#3D7CBD"/>
<path d="M1459.25 291.311H1456.15V300.319H1459.25V291.311Z" fill="#3D7CBD"/>
</g>
<g style="mix-blend-mode:overlay" opacity="0.49">
<path d="M2246.84 690.761L2246.31 156.302H2242.62V131.425H2232.09V112.601H2222.23V131.425H2182.78V156.302H2116.2V324.82H2115.43V348.232H2001.31V294.03H1989.03C1983.99 285.287 1978.94 276.544 1973.91 267.787C1970.28 267.759 1966.66 267.718 1963.03 267.69V238.63H1954.48V267.606C1949.78 267.564 1945.08 267.522 1940.4 267.48V294.003H1848.56V492.877H1815.45L1746.8 492.863V495.359H1752.85V506.347H1746.56V429.43H1723.9V417.717H1729.62V414.956H1659.36L1587.33 414.942V298.548H1574.25V279.5H1514.33V298.548H1459.29V291.423H1460.87V285.009H1459.41V243.426H1427.23V285.009H1425.19V285.566H1423.62C1419.88 252.184 1393.58 225.759 1360.59 222.44V181.918H1346.89V222.398C1320.21 224.95 1297.88 242.59 1288.2 266.839H1283.29V148.675H1263.31V51.6638H1252.82C1252.82 51.6638 1246.06 21.6137 1242.56 0H1216.92C1213.38 21.4604 1205.96 51.7056 1205.96 51.7056H1196.33V148.703H1175.48V266.867H1145.92V430.002H1129.51V690.44H1329.38V653.558H1411.72V720.518H1746.52L1886.45 720.504V689.255H1984.45V721.062H2070.22C2073.86 725.747 2078.36 729.443 2083.72 731.674C2097.9 737.6 2115.53 732.287 2129.17 721.062H2132.25V718.343C2138.97 712.054 2144.47 704.301 2147.69 695.809C2148.3 694.177 2148.83 692.504 2149.31 690.789H2246.86L2246.84 690.761ZM1456.15 298.59H1443.27V291.465H1456.15V298.59ZM1713.17 417.745H1720.79V429.458H1713.17V417.745ZM1703.55 417.745H1710.12V429.458H1703.55V417.745ZM1694.06 417.745H1700.48V429.458H1694.06V417.745ZM1684.2 417.745H1691V429.458H1684.2V417.745ZM1674.24 417.745H1681.14V429.458H1674.24V417.745ZM1642.92 417.731H1650.53V429.458H1642.92V417.731ZM1633.29 417.731H1639.86V429.458H1633.29V417.731ZM1613.94 417.731H1620.74V429.458H1613.94V417.731ZM1603.96 417.731H1610.87V429.458H1603.96V417.731ZM1590.34 429.458H1587.29V417.731H1590.34V429.458ZM1593.39 417.731H1600.91V429.458H1593.39V417.731ZM1623.8 417.731H1630.22V429.458H1623.8V417.731ZM1660.6 429.458H1653.58V417.731H1653.93L1660.6 417.745V429.458ZM1663.65 417.745H1671.17V429.458H1663.65V417.745ZM1846.94 495.401H1848.52V506.375H1846.94V495.401ZM1837.99 495.401H1844.17V506.375H1837.99V495.401ZM1828.95 495.401H1835.22V506.375H1828.95V495.401ZM1819.35 495.401H1826.16V506.375H1819.35V495.401ZM1810.21 495.387H1810.53L1816.58 495.401V506.375H1810.22V495.387H1810.21ZM1800.52 495.387H1807.42V506.375H1800.52V495.387ZM1791.79 495.387H1797.74V506.375H1791.79V495.387ZM1783.17 495.387H1789V506.375H1783.17V495.387ZM1774.22 495.387H1780.39V506.375H1774.22V495.387ZM1765.18 495.387H1771.44V506.375H1765.18V495.387ZM1755.57 495.387H1762.39V506.375H1755.57V495.387ZM2135.33 483.367C2135.44 462.952 2135.57 442.538 2135.68 422.123H2173.78V499.668H2151.66C2146.71 493.686 2141.26 488.164 2135.32 483.367H2135.33Z" fill="#496F75"/>
</g>
<rect x="-5" y="710" width="1925" height="74" fill="#A4D8EF"/>
<rect width="174" height="68" transform="matrix(1 0 0 -1 -5 722)" fill="#A4D8EF"/>
<rect width="118" height="68" transform="matrix(1 0 0 -1 623 746)" fill="#A4D8EF"/>
<rect width="529" height="68" transform="matrix(1 0 0 -1 883 746)" fill="#A4D8EF"/>
<rect width="83" height="133" transform="matrix(1 0 0 -1 1329 746)" fill="#A4D8EF"/>
<rect width="75" height="122" transform="matrix(1 0 0 -1 1866 735)" fill="#A4D8EF"/>
</svg>
