<svg width="278" height="168" viewBox="0 0 278 168" fill="none" xmlns="http://www.w3.org/2000/svg">
<g clip-path="url(#clip0_329_64)">
<path d="M270.275 0.658691H8.11564C4.12699 0.658691 0.893555 3.88842 0.893555 7.87249V160.054C0.893555 164.038 4.12699 167.268 8.11564 167.268H270.275C274.264 167.268 277.497 164.038 277.497 160.054V7.87249C277.497 3.88842 274.264 0.658691 270.275 0.658691Z" fill="#167DE5"/>
<path d="M277.497 27.9946H0.893555V58.1592H277.497V27.9946Z" fill="#2D2628"/>
<path d="M124.93 83.2222H10.0693V108.656H124.93V83.2222Z" fill="white"/>
<path d="M46.5137 119.513H13.7917C11.7359 119.513 10.0693 121.178 10.0693 123.231V141.229C10.0693 143.282 11.7359 144.947 13.7917 144.947H46.5137C48.5695 144.947 50.236 143.282 50.236 141.229V123.231C50.236 121.178 48.5695 119.513 46.5137 119.513Z" fill="#F6C731"/>
</g>
<defs>
<clipPath id="clip0_329_64">
<rect width="276.603" height="166.609" fill="white" transform="translate(0.893555 0.658691)"/>
</clipPath>
</defs>
</svg>
