<svg width="865" height="600" viewBox="0 0 865 600" fill="none" xmlns="http://www.w3.org/2000/svg">
<g opacity="0.5" clip-path="url(#clip0_62_2)">
<path d="M-549.772 121.944H39.4177V224.913H-579.277L-549.656 121.944H-549.772ZM26.3426 133.629H-539.589L-562.384 213.112H26.3426V133.629Z" fill="#2FA0DA"/>
<path d="M865 343.155C865 343.155 775.904 551.061 659.501 600H-864.384L-947 343.155H865Z" fill="#F3F5F7"/>
<mask id="mask0_62_2" style="mask-type:luminance" maskUnits="userSpaceOnUse" x="-947" y="343" width="1812" height="257">
<path d="M865 343.155C865 343.155 775.904 551.061 659.501 600H-864.384L-947 343.155H865Z" fill="white"/>
</mask>
<g mask="url(#mask0_62_2)">
<path d="M765.375 550.251C742.812 565.87 721.984 568.647 696.181 576.283H-896.204L-916.337 550.02L765.375 550.251Z" fill="#EE4585"/>
<path d="M774.516 527.806C770.466 531.855 766.3 535.904 762.019 539.838H-902.799L-906.502 527.806" fill="#EE4585"/>
</g>
<path d="M300.109 82.144L377.519 224.913H37.7976V82.144H300.109Z" fill="#F3F5F7"/>
<path d="M8.17623 130.39H-4.89893V192.171H8.17623V130.39Z" fill="#2FA0DA"/>
<path d="M543.098 343.154L490.219 247.937H118.1H-662.703L-707.251 343.154H543.098Z" fill="#F3F5F7"/>
<path d="M861.644 350.791C859.446 355.534 856.322 362.245 852.156 370.575H-939.595L-947 343.039H861.644V350.675V350.791Z" fill="#E7994D"/>
<path d="M177.227 0V97.4161H297.795L242.024 0H177.227Z" fill="#E7994D"/>
<mask id="mask1_62_2" style="mask-type:luminance" maskUnits="userSpaceOnUse" x="177" y="0" width="121" height="98">
<path d="M177.227 0V97.4161H297.795L242.024 0H177.227Z" fill="white"/>
</mask>
<g mask="url(#mask1_62_2)">
<path d="M266.438 31.3536L257.182 0H177.227V31.3536H266.438Z" fill="#B03167"/>
</g>
<path d="M37.7976 112.688V82.144H300.109L316.772 112.688H37.7976Z" fill="#E7994D"/>
<path d="M39.4175 166.371H-605.428V224.798H39.4175V166.371Z" fill="#F3F5F7"/>
<path d="M490.219 247.937H-662.703L-650.67 217.393H473.326L490.219 247.937Z" fill="#E7994D"/>
<path d="M327.764 133.05H276.968V195.642H361.667L327.764 133.05Z" fill="#2FA0DA"/>
<path d="M440.696 264.366H390.015V326.842H440.696V264.366Z" fill="#2FA0DA"/>
<path d="M360.394 264.366H309.713V326.842H360.394V264.366Z" fill="#2FA0DA"/>
<path d="M274.538 264.366H236.817V343.155H274.538V264.366Z" fill="#E74A9A"/>
<path d="M265.165 276.977H246.189V314.115H265.165V276.977Z" fill="#B03167"/>
<path d="M255.33 133.05H217.609V159.66H255.33V133.05Z" fill="#2FA0DA"/>
<path d="M255.33 169.032H217.609V195.642H255.33V169.032Z" fill="#2FA0DA"/>
<path d="M196.203 133.05H158.482V159.66H196.203V133.05Z" fill="#2FA0DA"/>
<path d="M196.203 169.032H158.482V195.642H196.203V169.032Z" fill="#2FA0DA"/>
<path d="M136.96 133.05H99.239V159.66H136.96V133.05Z" fill="#2FA0DA"/>
<path d="M136.96 169.032H99.239V195.642H136.96V169.032Z" fill="#2FA0DA"/>
<path d="M206.848 264.366H156.168V326.842H206.848V264.366Z" fill="#2FA0DA"/>
<path d="M122.959 264.366H72.2788V326.842H122.959V264.366Z" fill="#2FA0DA"/>
<path d="M39.1861 264.366H-11.4944V326.842H39.1861V264.366Z" fill="#2FA0DA"/>
<path d="M499.36 264.366H462.565V326.842H534.188L499.36 264.366Z" fill="#2FA0DA"/>
</g>
<defs>
<clipPath id="clip0_62_2">
<rect width="865" height="600" fill="white"/>
</clipPath>
</defs>
</svg>
