<svg width="1920" height="922" viewBox="0 0 1920 922" fill="none" xmlns="http://www.w3.org/2000/svg">
<g opacity="0.4">
<g opacity="0.5" clip-path="url(#clip0_136_230)">
<path d="M1470.93 630.876V391.529H1432.83V218.166H1405.93V75.8451H1393.52C1393.52 75.8451 1383.96 31.4735 1379.39 -0.0118713H1346.33C1341.81 31.6955 1333.18 75.7867 1333.18 75.7867H1319.65V218.154H1293.87V391.517H1258.02V630.864H1234.36V1012.98H1492.11V630.864H1470.94L1470.93 630.876Z" fill="#167DE5"/>
<path d="M1362.11 641.075H1313.55V734.106H1362.11V641.075Z" fill="#F6C93B"/>
<path d="M1414.41 641.355H1365.84V734.386H1414.41V641.355Z" fill="#F6C93B"/>
<path d="M1362.11 759.586H1313.55V852.617H1362.11V759.586Z" fill="#F6C93B"/>
<path d="M1414.41 759.867H1365.84V852.898H1414.41V759.867Z" fill="#F6C93B"/>
<path d="M1362.11 885.96H1313.55V978.991H1362.11V885.96Z" fill="#F6C93B"/>
<path d="M1414.41 886.241H1365.84V979.272H1414.41V886.241Z" fill="#F6C93B"/>
<path d="M1405.44 555.498H1324.01V625.607H1405.44V555.498Z" fill="#EE426A"/>
<path d="M1406.3 479.115H1324.88V549.224H1406.3V479.115Z" fill="#EE426A"/>
<path d="M1405.31 402.335H1323.88V472.444H1405.31V402.335Z" fill="#EE426A"/>
<path d="M1386.76 315.017H1342.32V395.127H1386.76V315.017Z" fill="#F6C93B"/>
<path d="M1386.32 228.833H1341.87V308.942H1386.32V228.833Z" fill="#F6C93B"/>
<path d="M1376.3 95.6011H1351.83V217.641H1376.3V95.6011Z" fill="#F6C93B"/>
</g>
<g opacity="0.5" clip-path="url(#clip1_136_230)">
<path d="M1111.25 788.064C1105.63 738.261 1065.99 698.875 1016.34 694.17V634H995.817V694.235C946.406 699.173 907.023 738.442 901.436 788.077H871.911V1335H1137.71V788.064H1111.25Z" fill="#167DE5"/>
<path d="M943.932 820.185H901.41V872.794H943.932V820.185Z" fill="#FFD23F"/>
<path d="M998.722 820.418H956.2V873.027H998.722V820.418Z" fill="white"/>
<path d="M1055.15 820.172H1012.63V872.781H1055.15V820.172Z" fill="#FFD23F"/>
<path d="M1110.2 820.664H1067.68V873.272H1110.2V820.664Z" fill="#FFD23F"/>
<path d="M944.166 882.398H901.644V935.007H944.166V882.398Z" fill="white"/>
<path d="M1056.55 882.889H956.694V935.498H1056.55V882.889Z" fill="white"/>
<path d="M1110.7 883.122H1068.18V935.73H1110.7V883.122Z" fill="#FFD23F"/>
</g>
<g opacity="0.5">
<path d="M726.072 640.836V594H709.454V640.836H476.791V594H460.172V640.836H442.982V1386.85H739.857V640.836H726.072Z" fill="#167DE5"/>
<path d="M563.142 670.303H469.607V710.615H563.142V670.303Z" fill="#FFD23F"/>
<path d="M672.624 670.179H579.089V710.491H672.624V670.179Z" fill="white" stroke="#6666FF" stroke-linejoin="round"/>
<path d="M564.161 730.151H470.626V770.463H564.161V730.151Z" fill="white" stroke="#6666FF" stroke-linejoin="round"/>
<path d="M671.418 788.465H577.883V828.776H671.418V788.465Z" fill="white" stroke="#6163FF" stroke-linejoin="round"/>
<path d="M564.347 843.386H470.812V883.698H564.347V843.386Z" fill="#EE4266"/>
<path d="M671.045 843.955H577.51V884.267H671.045V843.955Z" fill="white"/>
<path d="M563.962 788.279H470.427V828.591H563.962V788.279Z" fill="white" stroke="#6666FF" stroke-linejoin="round"/>
<path d="M672.748 729.594H579.213V769.906H672.748V729.594Z" fill="#FFD13F"/>
<path d="M717.185 908.472H470.179V1325.9H717.185V908.472Z" fill="#FFD13F"/>
<mask id="mask0_136_230" style="mask-type:luminance" maskUnits="userSpaceOnUse" x="470" y="908" width="248" height="418">
<path d="M717.185 908.472H470.179V1325.9H717.185V908.472Z" fill="white"/>
</mask>
<g mask="url(#mask0_136_230)">
<path d="M538.319 997.514C533.832 1012.21 537.039 1028.34 532.999 1043.16C527.99 1061.52 512.54 1075.29 495.996 1084.79C479.452 1094.28 461.192 1100.61 444.884 1110.53C427.843 1120.89 413.026 1135.1 394.555 1142.63C376.072 1150.16 351.374 1148.56 340.386 1131.96C334.532 1123.1 333.773 1111.89 334.271 1101.31C336.21 1059.33 354.705 1019.89 376.11 983.66C413.151 920.952 474.616 863.765 554.18 878.188C576.591 882.249 613.508 896.574 604.707 925.409C595.223 956.497 548.537 964.098 538.319 997.527V997.514Z" fill="#EE426A"/>
</g>
<path d="M689.429 670.464H685.75V886.025H689.429V670.464Z" fill="#EE4266"/>
<path d="M696.229 670.464H692.549V886.025H696.229V670.464Z" fill="#EE4266"/>
<path d="M703.027 670.464H699.348V886.025H703.027V670.464Z" fill="#EE4266"/>
<path d="M709.541 670.464H705.861V886.025H709.541V670.464Z" fill="#EE4266"/>
<path d="M716.626 670.464H712.947V886.025H716.626V670.464Z" fill="#EE4266"/>
</g>
<g opacity="0.5" clip-path="url(#clip2_136_230)">
<path d="M136.544 476.135V416.197C125.869 416.284 115.179 416.385 104.504 416.472V351H85.0591V416.645C76.8128 416.718 68.5665 416.79 60.3056 416.862C48.8451 436.615 37.3991 456.382 25.9386 476.135H-2V1369H345.349V476.135H136.544Z" fill="#167DE5"/>
<path d="M82.8489 505.771H21.1978V576.908H82.8489V505.771Z" fill="white"/>
<path d="M164.381 506.754H102.73V577.89H164.381V506.754Z" fill="white"/>
<path d="M243.936 507.419H182.285V578.555H243.936V507.419Z" fill="white"/>
<path d="M322.821 508.083H261.17V579.219H322.821V508.083Z" fill="white"/>
<path d="M163.727 590.895H102.076V662.031H163.727V590.895Z" fill="white"/>
<path d="M243.267 591.56H181.616V662.696H243.267V591.56Z" fill="white"/>
<path d="M322.152 592.21H260.501V663.346H322.152V592.21Z" fill="white"/>
<path d="M83.5179 677.333H18.8853V748.47H83.5179V677.333Z" fill="white"/>
<path d="M163.828 677.449H102.177V748.585H163.828V677.449Z" fill="white"/>
<path d="M242.496 678.114H180.845V749.25H242.496V678.114Z" fill="white"/>
<path d="M81.4671 760.651H19.8159V831.787H81.4671V760.651Z" fill="white"/>
<path d="M242.554 762.298H180.903V833.434H242.554V762.298Z" fill="white"/>
<path d="M321.44 762.963H259.789V834.099H321.44V762.963Z" fill="white"/>
<path d="M80.8128 844.792H19.1616V915.928H80.8128V844.792Z" fill="white"/>
<path d="M162.345 845.774H100.694V916.91H162.345V845.774Z" fill="white"/>
<path d="M241.885 846.439H180.234V917.575H241.885V846.439Z" fill="white"/>
<path d="M320.771 847.089H259.12V918.225H320.771V847.089Z" fill="white"/>
<path d="M82.1941 589.912H20.543V661.048H82.1941V589.912Z" fill="#F6C731"/>
<path d="M322.268 678.764H260.617V749.9H322.268V678.764Z" fill="#F6C731"/>
<path d="M163.014 761.648H101.363V832.784H163.014V761.648Z" fill="#F6C731"/>
</g>
<g clip-path="url(#clip3_136_230)">
<path d="M1714.01 493.89V455.925H1593.69V493.89H1567.41V725.903H1422.74V725.947H1281.62V731.439H1293.1V754.789H1247.59V908.12H1234.97V886.213H1247.11V881.228H1109.23V881.258H981.141V886.243H991.578V908.12H966.551V1334.96H1247.59V1335H1920V493.89H1714.01ZM1229.39 886.213V908.12H1215.7V886.213H1229.39ZM1210.11 886.213V908.12H1197.52V886.213H1210.11ZM1191.95 886.213V908.12H1179.54V886.213H1191.95ZM1173.97 886.213V908.12H1162.24V886.213H1173.97ZM1156.66 886.213V908.12H1144.7V886.213H1156.66ZM1139.12 886.213V908.12H1125.25V886.213H1139.12ZM1119.02 886.243V886.213H1119.65V908.12H1106.88V886.243H1119.02ZM1101.3 886.243V908.12H1087.61V886.243H1101.3ZM1082.03 886.243V908.12H1069.45V886.243H1082.03ZM1063.86 886.243V908.12H1051.45V886.243H1063.86ZM1045.88 886.243V908.12H1034.15V886.243H1045.88ZM1028.57 886.243V908.12H1016.61V886.243H1028.57ZM997.156 886.243H1011.03V908.12H997.156V886.243ZM1555.12 731.394V754.774H1540.03V731.394H1555.12ZM1533.87 731.394V754.774H1520V731.394H1533.87ZM1513.87 731.394V754.774H1500.21V731.394H1513.87ZM1494.06 731.394V754.774H1481.15V731.394H1494.06ZM1475 731.394V754.774H1461.8V731.394H1475ZM1455.65 731.394V754.774H1440.36V731.394H1455.65ZM1433.52 731.439V731.409H1434.23V754.789H1420.14V731.439H1433.52ZM1414 731.439V754.789H1398.91V731.439H1414ZM1392.76 731.439V754.789H1378.89V731.439H1392.76ZM1372.74 731.439V754.789H1359.08V731.439H1372.74ZM1352.94 731.439V754.789H1340.02V731.439H1352.94ZM1333.88 731.439V754.789H1320.68V731.439H1333.88ZM1299.25 731.439H1314.55V754.789H1299.25V731.439ZM1561.25 754.789V731.409H1567.4V754.789H1561.25Z" fill="#167DE5"/>
<path d="M1888.96 384H1824.3V470.718H1888.96V384Z" fill="#167DE5"/>
<path d="M1840.45 572.542H1892.42V528.788H1840.45V572.542Z" fill="white"/>
<path d="M1784.08 571.53H1836.06V527.776H1784.08V571.53Z" fill="#F6C93B"/>
<path d="M1840.45 621.073H1892.42V577.319H1840.45V621.073Z" fill="white"/>
<path d="M1784.08 620.046H1836.06V576.292H1784.08V620.046Z" fill="#F6C93B"/>
<path d="M1840.45 669.589H1892.42V625.835H1840.45V669.589Z" fill="white"/>
<path d="M1784.08 668.577H1836.06V624.823H1784.08V668.577Z" fill="#F6C93B"/>
<path d="M1840.45 766.635H1892.42V722.882H1840.45V766.635Z" fill="white"/>
<path d="M1784.08 765.623H1836.06V721.87H1784.08V765.623Z" fill="#F6C93B"/>
<path d="M1840.45 718.104H1892.42V674.351H1840.45V718.104Z" fill="white"/>
<path d="M1784.08 717.093H1836.06V673.339H1784.08V717.093Z" fill="#F6C93B"/>
<path d="M1840.45 815.151H1892.42V771.398H1840.45V815.151Z" fill="white"/>
<path d="M1784.08 814.139H1836.06V770.386H1784.08V814.139Z" fill="#F6C93B"/>
<path d="M1840.45 863.682H1892.42V819.928H1840.45V863.682Z" fill="white"/>
<path d="M1784.08 862.67H1836.06V818.916H1784.08V862.67Z" fill="#F6C93B"/>
<path d="M1840.45 960.729H1892.42V916.975H1840.45V960.729Z" fill="white"/>
<path d="M1784.08 959.717H1836.06V915.963H1784.08V959.717Z" fill="#F6C93B"/>
<path d="M1840.45 912.198H1892.42V868.444H1840.45V912.198Z" fill="white"/>
<path d="M1784.08 911.186H1836.06V867.432H1784.08V911.186Z" fill="#F6C93B"/>
<path d="M1692.27 616.355H1744.24V572.602H1692.27V616.355Z" fill="white"/>
<path d="M1631.41 571.069H1683.39V527.315H1631.41V571.069Z" fill="#F6C93B"/>
<path d="M1692.27 706.943H1744.24V663.189H1692.27V706.943Z" fill="white"/>
<path d="M1631.41 661.642H1683.39V617.888H1631.41V661.642Z" fill="#F6C93B"/>
<path d="M1692.27 797.545H1744.24V753.792H1692.27V797.545Z" fill="white"/>
<path d="M1631.41 752.244H1683.39V708.491H1631.41V752.244Z" fill="#F6C93B"/>
<path d="M1692.27 888.118H1744.24V844.365H1692.27V888.118Z" fill="white"/>
<path d="M1631.41 842.832H1683.39V799.078H1631.41V842.832Z" fill="#F6C93B"/>
<path d="M1631.41 933.435H1683.39V889.681H1631.41V933.435Z" fill="#F6C93B"/>
<path d="M1351.17 830.301H1403.14V786.548H1351.17V830.301Z" fill="white"/>
<path d="M1290.3 830.197H1342.27V786.443H1290.3V830.197Z" fill="#F6C93B"/>
<path d="M1352.64 917.912H1404.61V874.159H1352.64V917.912Z" fill="white"/>
<path d="M1291.78 917.808H1343.76V874.055H1291.78V917.808Z" fill="#F6C93B"/>
<path d="M1498.32 830.301H1550.29V786.547H1498.32V830.301Z" fill="white" stroke="#6666FF" stroke-linejoin="round"/>
<path d="M1437.45 830.197H1489.42V786.443H1437.45V830.197Z" fill="#F6C93B"/>
<path d="M1499.79 917.912H1551.76V874.159H1499.79V917.912Z" fill="white" stroke="#6666FF" stroke-linejoin="round"/>
<path d="M1438.92 917.808H1490.89V874.055H1438.92V917.808Z" fill="#F6C93B"/>
<path d="M1821.38 479.677H1893.04V466.879H1821.38V479.677Z" fill="#167DE5"/>
<path d="M1882 496.807H1888.21V478.859H1882V496.807Z" fill="#167DE5"/>
<path d="M1824.54 497.343H1830.75V479.395H1824.54V497.343Z" fill="#167DE5"/>
</g>
<g clip-path="url(#clip4_136_230)">
<path d="M941.381 818.987V292.554H809.022V243.284H730.59V206H710.981V243.284H690.043V292.554H682.688L681.624 1351H940.317C940.317 1232.12 941.381 1091.43 941.381 972.549H921.335C921.632 921.362 921.929 870.174 922.227 818.987C928.611 818.987 934.996 818.987 941.381 818.987ZM826.846 972.549V818.971H902.603C902.9 870.159 903.198 921.362 903.495 972.549H826.846Z" fill="#167DE5"/>
<path d="M923.322 316.527H699.699V340.5H923.322V316.527Z" fill="#F6C93B"/>
<path d="M923.322 385.094H699.699V409.066H923.322V385.094Z" fill="#F6C93B"/>
<path d="M923.322 451.681H699.699V475.654H923.322V451.681Z" fill="#F6C93B"/>
<path d="M923.322 520.264H699.699V544.236H923.322V520.264Z" fill="#F6C93B"/>
<path d="M923.322 590.171H699.699V614.144H923.322V590.171Z" fill="#F6C93B"/>
<path d="M799.226 665.393H700.778V788.795H799.226V665.393Z" fill="#F6C93B"/>
<path d="M922.414 665.393H823.967V788.795H922.414V665.393Z" fill="white" stroke="#6666FF" stroke-linejoin="round"/>
<path d="M801.01 816.322H700.293V868.694H801.01V816.322Z" fill="white" stroke="#6666FF" stroke-linejoin="round"/>
<path d="M743.954 880.228H699.839V968.996H743.954V880.228Z" fill="#EE426A"/>
<path d="M800.775 880.68H756.661V969.448H800.775V880.68Z" fill="#EE426A"/>
</g>
<g clip-path="url(#clip5_136_230)">
<path d="M552.813 672.185V427H175.198V672.185V676.311V1358H569.868V672.185H552.813Z" fill="#167DE5"/>
<path d="M455.366 512.92H518.843V459.456H455.366V512.92Z" fill="#F6C731"/>
<path d="M381.047 512.795H444.523V459.331H381.047V512.795Z" fill="white"/>
<path d="M455.366 571.413H518.843V517.949H455.366V571.413Z" fill="#F6C731"/>
<path d="M381.047 571.274H444.523V517.81H381.047V571.274Z" fill="white"/>
<path d="M306.069 512.364H369.546V458.9H306.069V512.364Z" fill="#F6C731"/>
<path d="M231.749 512.225H295.226V458.761H231.749V512.225Z" fill="white"/>
<path d="M455.366 629.906H518.843V576.442H455.366V629.906Z" fill="#F6C731"/>
<path d="M381.047 629.767H444.523V576.303H381.047V629.767Z" fill="white"/>
<path d="M306.097 628.405H369.574V574.942H306.097V628.405Z" fill="#F6C731"/>
<path d="M231.778 628.28H295.254V574.817H231.778V628.28Z" fill="white"/>
<path d="M455.366 746.878H518.843V693.415H455.366V746.878Z" fill="#F6C731"/>
<path d="M381.047 746.74H444.523V693.276H381.047V746.74Z" fill="white"/>
<path d="M307.524 744.447H371.001V690.983H307.524V744.447Z" fill="#F6C731"/>
<path d="M233.191 744.308H296.667V690.844H233.191V744.308Z" fill="white"/>
<path d="M455.366 688.385H518.843V634.922H455.366V688.385Z" fill="#F6C731"/>
<path d="M381.047 688.26H444.523V634.797H381.047V688.26Z" fill="white"/>
<path d="M455.366 805.358H518.843V751.894H455.366V805.358Z" fill="#F6C731"/>
<path d="M381.047 805.219H444.523V751.755H381.047V805.219Z" fill="white"/>
<path d="M455.366 863.851H518.843V810.387H455.366V863.851Z" fill="#F6C731"/>
<path d="M381.047 863.726H444.523V810.262H381.047V863.726Z" fill="white"/>
<path d="M307.566 864.24H371.043V810.776H307.566V864.24Z" fill="#F6C731"/>
<path d="M233.233 864.101H296.709V810.637H233.233V864.101Z" fill="white"/>
<path d="M455.366 922.344H518.843V868.88H455.366V922.344Z" fill="#F6C731"/>
<path d="M381.047 922.205H444.523V868.741H381.047V922.205Z" fill="white"/>
</g>
</g>
<defs>
<clipPath id="clip0_136_230">
<rect width="257.743" height="1013" fill="white" transform="translate(1234.36)"/>
</clipPath>
<clipPath id="clip1_136_230">
<rect width="265.798" height="701" fill="white" transform="translate(871.911 634)"/>
</clipPath>
<clipPath id="clip2_136_230">
<rect width="347.349" height="1018" fill="white" transform="translate(-2 351)"/>
</clipPath>
<clipPath id="clip3_136_230">
<rect width="953.449" height="951" fill="white" transform="translate(966.551 384)"/>
</clipPath>
<clipPath id="clip4_136_230">
<rect width="259.757" height="1145" fill="white" transform="translate(681.624 206)"/>
</clipPath>
<clipPath id="clip5_136_230">
<rect width="394.669" height="931" fill="white" transform="translate(175.198 427)"/>
</clipPath>
</defs>
</svg>
