<svg width="1746" height="1162" viewBox="0 0 1746 1162" fill="none" xmlns="http://www.w3.org/2000/svg">
<g clip-path="url(#clip0_37_1406)">
<path d="M1539.46 320.89V282.926H1419.14V320.89H1392.86V552.903H1248.19V552.948H1107.07V558.439H1118.55V581.789H1073.04V735.12H1060.42V713.214H1072.56V708.228H934.681V708.258H806.59V713.243H817.027V735.12H792V1161.96H1073.04V1162H1745.45V320.89H1539.46ZM1054.84 713.214V735.12H1041.15V713.214H1054.84ZM1035.55 713.214V735.12H1022.97V713.214H1035.55ZM1017.39 713.214V735.12H1004.99V713.214H1017.39ZM999.416 713.214V735.12H987.689V713.214H999.416ZM982.111 713.214V735.12H970.145V713.214H982.111ZM964.566 713.214V735.12H950.696V713.214H964.566ZM944.473 713.243V713.214H945.102V735.12H932.326V713.243H944.473ZM926.748 713.243V735.12H913.057V713.243H926.748ZM907.479 713.243V735.12H894.898V713.243H907.479ZM889.305 713.243V735.12H876.904V713.243H889.305ZM871.325 713.243V735.12H859.599V713.243H871.325ZM854.021 713.243V735.12H842.054V713.243H854.021ZM822.605 713.243H836.476V735.12H822.605V713.243ZM1380.57 558.394V581.774H1365.48V558.394H1380.57ZM1359.32 558.394V581.774H1345.45V558.394H1359.32ZM1339.31 558.394V581.774H1325.65V558.394H1339.31ZM1319.51 558.394V581.774H1306.6V558.394H1319.51ZM1300.45 558.394V581.774H1287.25V558.394H1300.45ZM1281.1 558.394V581.774H1265.81V558.394H1281.1ZM1258.97 558.439V558.409H1259.67V581.789H1245.59V558.439H1258.97ZM1239.45 558.439V581.789H1224.36V558.439H1239.45ZM1218.21 558.439V581.789H1204.34V558.439H1218.21ZM1198.19 558.439V581.789H1184.53V558.439H1198.19ZM1178.39 558.439V581.789H1165.47V558.439H1178.39ZM1159.33 558.439V581.789H1146.13V558.439H1159.33ZM1124.7 558.439H1140V581.789H1124.7V558.439ZM1386.7 581.789V558.409H1392.85V581.789H1386.7Z" fill="#167DE5"/>
<path d="M1714.41 211H1649.75V297.718H1714.41V211Z" fill="#167DE5"/>
<path d="M1665.9 399.542H1717.87V355.788H1665.9V399.542Z" fill="white"/>
<path d="M1609.53 398.53H1661.51V354.776H1609.53V398.53Z" fill="#F6C93B"/>
<path d="M1665.9 448.073H1717.87V404.319H1665.9V448.073Z" fill="white"/>
<path d="M1609.53 447.046H1661.51V403.292H1609.53V447.046Z" fill="#F6C93B"/>
<path d="M1665.9 496.589H1717.87V452.835H1665.9V496.589Z" fill="white"/>
<path d="M1609.53 495.577H1661.51V451.823H1609.53V495.577Z" fill="#F6C93B"/>
<path d="M1665.9 593.635H1717.87V549.882H1665.9V593.635Z" fill="white"/>
<path d="M1609.53 592.623H1661.51V548.87H1609.53V592.623Z" fill="#F6C93B"/>
<path d="M1665.9 545.104H1717.87V501.351H1665.9V545.104Z" fill="white"/>
<path d="M1609.53 544.093H1661.51V500.339H1609.53V544.093Z" fill="#F6C93B"/>
<path d="M1665.9 642.151H1717.87V598.398H1665.9V642.151Z" fill="white"/>
<path d="M1609.53 641.139H1661.51V597.386H1609.53V641.139Z" fill="#F6C93B"/>
<path d="M1665.9 690.682H1717.87V646.928H1665.9V690.682Z" fill="white"/>
<path d="M1609.53 689.67H1661.51V645.916H1609.53V689.67Z" fill="#F6C93B"/>
<path d="M1665.9 787.729H1717.87V743.975H1665.9V787.729Z" fill="white"/>
<path d="M1609.53 786.717H1661.51V742.963H1609.53V786.717Z" fill="#F6C93B"/>
<path d="M1665.9 739.198H1717.87V695.444H1665.9V739.198Z" fill="white"/>
<path d="M1609.53 738.186H1661.51V694.432H1609.53V738.186Z" fill="#F6C93B"/>
<path d="M1665.9 883.867H1717.87V840.114H1665.9V883.867Z" fill="white"/>
<path d="M1609.53 883.763H1661.51V840.01H1609.53V883.763Z" fill="#F6C93B"/>
<path d="M1665.9 836.244H1717.87V792.491H1665.9V836.244Z" fill="white"/>
<path d="M1609.53 835.232H1661.51V791.479H1609.53V835.232Z" fill="#F6C93B"/>
<path d="M1665.9 932.398H1717.87V888.644H1665.9V932.398Z" fill="white"/>
<path d="M1609.53 932.279H1661.51V888.525H1609.53V932.279Z" fill="#F6C93B"/>
<path d="M1665.9 980.914H1717.87V937.16H1665.9V980.914Z" fill="white"/>
<path d="M1609.53 980.81H1661.51V937.056H1609.53V980.81Z" fill="#F6C93B"/>
<path d="M1665.9 1077.96H1717.87V1034.21H1665.9V1077.96Z" fill="white"/>
<path d="M1609.53 1077.86H1661.51V1034.1H1609.53V1077.86Z" fill="#F6C93B"/>
<path d="M1517.71 443.355H1569.69V399.602H1517.71V443.355Z" fill="white"/>
<path d="M1456.86 398.069H1508.84V354.315H1456.86V398.069Z" fill="#F6C93B"/>
<path d="M1517.71 533.943H1569.69V490.189H1517.71V533.943Z" fill="white"/>
<path d="M1456.86 488.642H1508.84V444.888H1456.86V488.642Z" fill="#F6C93B"/>
<path d="M1517.71 624.545H1569.69V580.792H1517.71V624.545Z" fill="white"/>
<path d="M1456.86 579.244H1508.84V535.491H1456.86V579.244Z" fill="#F6C93B"/>
<path d="M1517.71 715.118H1569.69V671.365H1517.71V715.118Z" fill="white"/>
<path d="M1456.86 669.832H1508.84V626.078H1456.86V669.832Z" fill="#F6C93B"/>
<path d="M1517.71 805.721H1569.69V761.967H1517.71V805.721Z" fill="white"/>
<path d="M1456.86 760.435H1508.84V716.681H1456.86V760.435Z" fill="#F6C93B"/>
<path d="M1517.71 896.309H1569.69V852.555H1517.71V896.309Z" fill="white"/>
<path d="M1456.86 851.007H1508.84V807.254H1456.86V851.007Z" fill="#F6C93B"/>
<path d="M1517.71 986.911H1569.69V943.158H1517.71V986.911Z" fill="white"/>
<path d="M1456.86 941.61H1508.84V897.856H1456.86V941.61Z" fill="#F6C93B"/>
<path d="M1517.71 1077.48H1569.69V1033.73H1517.71V1077.48Z" fill="white"/>
<path d="M1456.86 1032.2H1508.84V988.444H1456.86V1032.2Z" fill="#F6C93B"/>
<path d="M1665.9 1029.44H1717.87V985.691H1665.9V1029.44Z" fill="white"/>
<path d="M1609.53 1029.33H1661.51V985.572H1609.53V1029.33Z" fill="#F6C93B"/>
<path d="M1176.62 657.301H1228.59V613.547H1176.62V657.301Z" fill="white"/>
<path d="M1115.75 657.197H1167.72V613.443H1115.75V657.197Z" fill="#F6C93B"/>
<path d="M1178.09 744.912H1230.06V701.159H1178.09V744.912Z" fill="white"/>
<path d="M1117.23 744.808H1169.21V701.055H1117.23V744.808Z" fill="#F6C93B"/>
<path d="M1175.15 842.748H1227.12V798.994H1175.15V842.748Z" fill="white"/>
<path d="M1114.28 842.644H1166.25V798.89H1114.28V842.644Z" fill="#F6C93B"/>
<path d="M1175.15 944.958H1227.12V901.205H1175.15V944.958Z" fill="white"/>
<path d="M1114.28 944.869H1166.25V901.116H1114.28V944.869Z" fill="#F6C93B"/>
<path d="M1173.2 1042.14H1225.17V998.385H1173.2V1042.14Z" fill="white"/>
<path d="M1112.35 1042.02H1164.32V998.266H1112.35V1042.02Z" fill="#F6C93B"/>
<path d="M1323.76 657.301H1375.74V613.547H1323.76V657.301Z" fill="white" stroke="#6666FF" stroke-linejoin="round"/>
<path d="M1262.9 657.197H1314.87V613.443H1262.9V657.197Z" fill="#F6C93B"/>
<path d="M1325.23 744.912H1377.21V701.159H1325.23V744.912Z" fill="white" stroke="#6666FF" stroke-linejoin="round"/>
<path d="M1264.37 744.808H1316.34V701.055H1264.37V744.808Z" fill="#F6C93B"/>
<path d="M1322.28 842.748H1374.25V798.994H1322.28V842.748Z" fill="white" stroke="#6666FF" stroke-linejoin="round"/>
<path d="M1261.41 842.644H1313.39V798.89H1261.41V842.644Z" fill="#F6C93B"/>
<path d="M1322.28 944.958H1374.25V901.205H1322.28V944.958Z" fill="white" stroke="#6666FF" stroke-linejoin="round"/>
<path d="M1261.41 944.869H1313.39V901.116H1261.41V944.869Z" fill="#F6C93B"/>
<path d="M1320.33 1042.14H1372.3V998.385H1320.33V1042.14Z" fill="white" stroke="#6666FF" stroke-linejoin="round"/>
<path d="M1259.49 1042.02H1311.47V998.266H1259.49V1042.02Z" fill="#F6C93B"/>
<path d="M833.477 1110.69H1060.07V777.743H833.477V1110.69Z" fill="#EE426A"/>
<path d="M1646.82 306.677H1718.49V293.879H1646.82V306.677Z" fill="#167DE5"/>
<path d="M1707.45 323.807H1713.66V305.859H1707.45V323.807Z" fill="#167DE5"/>
<path d="M1649.99 324.343H1656.2V306.395H1649.99V324.343Z" fill="#167DE5"/>
</g>
<g clip-path="url(#clip1_37_1406)">
<path d="M749.757 629.987V103.554H617.398V54.2839H538.966V17H519.357V54.2839H498.419V103.554H491.064L490 1162H748.693C748.693 1043.12 749.757 902.431 749.757 783.549H729.711C730.008 732.362 730.305 681.174 730.603 629.987C736.987 629.987 743.372 629.987 749.757 629.987ZM635.222 783.549V629.971H710.979C711.276 681.159 711.573 732.362 711.871 783.549H635.222Z" fill="#167DE5"/>
<path d="M731.698 127.527H508.075V151.5H731.698V127.527Z" fill="#F6C93B"/>
<path d="M731.698 196.094H508.075V220.066H731.698V196.094Z" fill="#F6C93B"/>
<path d="M731.698 262.681H508.075V286.654H731.698V262.681Z" fill="#F6C93B"/>
<path d="M731.698 331.264H508.075V355.236H731.698V331.264Z" fill="#F6C93B"/>
<path d="M731.698 401.171H508.075V425.144H731.698V401.171Z" fill="#F6C93B"/>
<path d="M607.602 476.394H509.154V599.795H607.602V476.394Z" fill="#F6C93B"/>
<path d="M730.79 476.394H632.343V599.795H730.79V476.394Z" fill="white" stroke="#6666FF" stroke-linejoin="round"/>
<path d="M609.386 627.322H508.669V679.694H609.386V627.322Z" fill="white" stroke="#6666FF" stroke-linejoin="round"/>
<path d="M552.33 691.228H508.215V779.996H552.33V691.228Z" fill="#EE426A"/>
<path d="M609.151 691.68H565.037V780.448H609.151V691.68Z" fill="#EE426A"/>
</g>
<g clip-path="url(#clip2_37_1406)">
<path d="M396.615 476.185V231H19V476.185V480.311V1162H413.669V476.185H396.615Z" fill="#167DE5"/>
<path d="M299.168 316.92H362.645V263.456H299.168V316.92Z" fill="#F6C731"/>
<path d="M224.848 316.795H288.325V263.331H224.848V316.795Z" fill="white"/>
<path d="M299.168 375.413H362.645V321.949H299.168V375.413Z" fill="#F6C731"/>
<path d="M224.848 375.274H288.325V321.81H224.848V375.274Z" fill="white"/>
<path d="M149.871 316.364H213.348V262.9H149.871V316.364Z" fill="#F6C731"/>
<path d="M75.5511 316.225H139.028V262.762H75.5511V316.225Z" fill="white"/>
<path d="M299.168 433.906H362.645V380.442H299.168V433.906Z" fill="#F6C731"/>
<path d="M224.848 433.767H288.325V380.303H224.848V433.767Z" fill="white"/>
<path d="M149.899 432.406H213.375V378.942H149.899V432.406Z" fill="#F6C731"/>
<path d="M75.5794 432.281H139.056V378.817H75.5794V432.281Z" fill="white"/>
<path d="M299.168 550.878H362.645V497.415H299.168V550.878Z" fill="#F6C731"/>
<path d="M224.848 550.74H288.325V497.276H224.848V550.74Z" fill="white"/>
<path d="M151.326 548.447H214.803V494.983H151.326V548.447Z" fill="#F6C731"/>
<path d="M76.9925 548.308H140.469V494.845H76.9925V548.308Z" fill="white"/>
<path d="M299.168 492.385H362.645V438.922H299.168V492.385Z" fill="#F6C731"/>
<path d="M224.848 492.26H288.325V438.797H224.848V492.26Z" fill="white"/>
<path d="M299.168 609.358H362.645V555.894H299.168V609.358Z" fill="#F6C731"/>
<path d="M224.848 609.219H288.325V555.755H224.848V609.219Z" fill="white"/>
<path d="M299.168 667.851H362.645V614.387H299.168V667.851Z" fill="#F6C731"/>
<path d="M224.848 667.726H288.325V614.262H224.848V667.726Z" fill="white"/>
<path d="M151.368 668.24H214.845V614.776H151.368V668.24Z" fill="#F6C731"/>
<path d="M77.0345 668.101H140.511V614.637H77.0345V668.101Z" fill="white"/>
<path d="M299.168 784.823H362.645V731.36H299.168V784.823Z" fill="#F6C731"/>
<path d="M224.848 784.698H288.325V731.235H224.848V784.698Z" fill="white"/>
<path d="M152.781 784.268H216.258V730.804H152.781V784.268Z" fill="#F6C731"/>
<path d="M78.4476 784.129H141.924V730.665H78.4476V784.129Z" fill="white"/>
<path d="M299.168 726.344H362.645V672.88H299.168V726.344Z" fill="#F6C731"/>
<path d="M224.848 726.205H288.325V672.741H224.848V726.205Z" fill="white"/>
</g>
<defs>
<clipPath id="clip0_37_1406">
<rect width="953.449" height="951" fill="white" transform="translate(792 211)"/>
</clipPath>
<clipPath id="clip1_37_1406">
<rect width="259.757" height="1145" fill="white" transform="translate(490 17)"/>
</clipPath>
<clipPath id="clip2_37_1406">
<rect width="394.669" height="931" fill="white" transform="translate(19 231)"/>
</clipPath>
</defs>
</svg>
