<svg width="1494" height="1369" viewBox="0 0 1494 1369" fill="none" xmlns="http://www.w3.org/2000/svg">
<g opacity="0.5" clip-path="url(#clip0_37_1411)">
<path d="M1473.04 852.599V529.134H1434.9V294.844H1407.98V102.505H1395.55C1395.55 102.505 1385.98 42.5389 1381.4 -0.0119629H1348.31C1343.79 42.8389 1335.15 102.426 1335.15 102.426H1321.61V294.828H1295.8V529.118H1259.92V852.584H1236.23V1368.99H1494.23V852.584H1473.05L1473.04 852.599Z" fill="#167DE5"/>
<path d="M1364.23 865.988H1316.23V991.988H1364.23V865.988Z" fill="#F6C93B"/>
<path d="M1416.23 866.988H1368.23V991.988H1416.23V866.988Z" fill="#F6C93B"/>
<path d="M1364.23 1026.99H1316.23V1151.99H1364.23V1026.99Z" fill="#F6C93B"/>
<path d="M1416.23 1026.99H1368.23V1152.99H1416.23V1026.99Z" fill="#F6C93B"/>
<path d="M1364.23 1196.99H1316.23V1322.99H1364.23V1196.99Z" fill="#F6C93B"/>
<path d="M1416.23 1197.99H1368.23V1322.99H1416.23V1197.99Z" fill="#F6C93B"/>
<path d="M1407.23 750.988H1326.23V844.988H1407.23V750.988Z" fill="#EE426A"/>
<path d="M1408.23 647.988H1327.23V741.988H1408.23V647.988Z" fill="#EE426A"/>
<path d="M1407.23 543.988H1326.23V637.988H1407.23V543.988Z" fill="#EE426A"/>
<path d="M1389.23 425.988H1344.23V533.988H1389.23V425.988Z" fill="#F6C93B"/>
<path d="M1388.23 308.988H1344.23V417.988H1388.23V308.988Z" fill="#F6C93B"/>
<path d="M1378.23 128.988H1354.23V293.988H1378.23V128.988Z" fill="#F6C93B"/>
</g>
<g opacity="0.5" clip-path="url(#clip1_37_1411)">
<path d="M1113.33 795.537C1107.71 743.318 1068.03 702.022 1018.35 697.089V634H997.81V697.156C948.361 702.334 908.948 743.507 903.357 795.55H873.81V1369H1139.81V795.537H1113.33Z" fill="#167DE5"/>
<path d="M945.885 829.216H903.331V884.376H945.885V829.216Z" fill="#FFD23F"/>
<path d="M1000.72 829.46H958.163V884.62H1000.72V829.46Z" fill="white"/>
<path d="M1057.19 829.202H1014.64V884.362H1057.19V829.202Z" fill="#FFD23F"/>
<path d="M1112.28 829.717H1069.73V884.878H1112.28V829.717Z" fill="#FFD23F"/>
<path d="M946.12 894.446H903.565V949.606H946.12V894.446Z" fill="white"/>
<path d="M1058.59 894.961H958.658V950.121H1058.59V894.961Z" fill="white"/>
<path d="M1112.78 895.205H1070.22V950.365H1112.78V895.205Z" fill="#FFD23F"/>
<path d="M946.12 958.795H903.565V1013.96H946.12V958.795Z" fill="white"/>
<path d="M1001.47 959.567H958.918V1014.73H1001.47V959.567Z" fill="#FFD23F"/>
<path d="M1112.78 959.554H1070.22V1014.71H1112.78V959.554Z" fill="white"/>
<path d="M1000.31 1025.57H904.387V1080.73H1000.31V1025.57Z" fill="white"/>
<path d="M1058.26 961.384H1015.71V1079.19H1058.26V961.384Z" fill="white"/>
<path d="M1113.26 1024.04H1070.71V1079.2H1113.26V1024.04Z" fill="#FFD23F"/>
</g>
<g opacity="0.5">
<path d="M721.209 628.491V582H704.584V628.491H471.823V582H455.198V628.491H438V1369H735V628.491H721.209Z" fill="#167DE5"/>
<path d="M558.227 652.303H464.692V692.615H558.227V652.303Z" fill="#FFD23F"/>
<path d="M667.709 652.179H574.174V692.49H667.709V652.179Z" fill="white" stroke="#6666FF" stroke-linejoin="round"/>
<path d="M559.246 712.151H465.711V752.463H559.246V712.151Z" fill="white" stroke="#6666FF" stroke-linejoin="round"/>
<path d="M666.504 770.465H572.969V810.777H666.504V770.465Z" fill="white" stroke="#6163FF" stroke-linejoin="round"/>
<path d="M559.433 825.386H465.898V865.698H559.433V825.386Z" fill="#EE4266"/>
<path d="M666.131 825.955H572.596V866.267H666.131V825.955Z" fill="white"/>
<path d="M559.048 770.279H465.513V810.591H559.048V770.279Z" fill="white" stroke="#6666FF" stroke-linejoin="round"/>
<path d="M667.834 711.594H574.299V751.906H667.834V711.594Z" fill="#FFD13F"/>
<path d="M712.27 890.472H465.264V1307.9H712.27V890.472Z" fill="#FFD13F"/>
<mask id="mask0_37_1411" style="mask-type:luminance" maskUnits="userSpaceOnUse" x="465" y="890" width="248" height="418">
<path d="M712.27 890.472H465.264V1307.9H712.27V890.472Z" fill="white"/>
</mask>
<g mask="url(#mask0_37_1411)">
<path d="M533.404 979.514C528.917 994.21 532.124 1010.34 528.084 1025.16C523.075 1043.52 507.625 1057.29 491.081 1066.79C474.536 1076.28 456.277 1082.61 439.969 1092.53C422.928 1102.89 408.111 1117.1 389.64 1124.63C371.157 1132.16 346.459 1130.56 335.471 1113.96C329.617 1105.1 328.858 1093.89 329.356 1083.31C331.295 1041.33 349.79 1001.89 371.194 965.66C408.236 902.952 469.701 845.765 549.265 860.188C571.676 864.249 608.593 878.574 599.792 907.409C590.308 938.497 543.622 946.098 533.404 979.527V979.514Z" fill="#EE426A"/>
<path d="M567.089 1234.3C599.221 1286.35 585.225 1369.4 535.555 1390.09C490.086 1409.03 426.955 1370.67 407.067 1318.29C389.255 1271.38 402.443 1203.47 450.298 1184.19C493.94 1166.61 544.815 1198.2 567.089 1234.29V1234.3Z" fill="#EE426A"/>
<path d="M741.468 1032.19C740.958 987.475 737.776 968.322 723.035 955.223C696.372 931.526 648.07 941.963 619.556 958.442C591.514 974.636 560.601 1009.31 565.536 1046.64C566.94 1057.22 570.806 1065.57 573.975 1071.08C573.975 1071.08 581.607 1087.67 578.077 1096.83C578.065 1096.87 578.028 1096.95 577.978 1097.08C577.667 1097.89 576.76 1100.35 575.902 1103.67C575.591 1104.87 575.305 1106.23 575.057 1107.82C574.149 1113.7 573.404 1118.57 576.138 1122.18C579.059 1126.03 584.454 1126.45 587.785 1126.72C591.191 1126.99 593.988 1126.46 595.815 1125.98C598.375 1128.45 601.085 1132 601.458 1136.48C601.893 1141.81 598.736 1145.02 600.414 1147.2C602.862 1150.36 612.309 1147.14 612.446 1147.72C612.558 1148.2 605.609 1148.76 604.056 1152.46C602.8 1155.47 606.082 1157.6 608.419 1163.89C611.961 1173.45 607.76 1177.94 611.924 1185.86C611.924 1185.86 614.348 1189.85 618.263 1193.24C625.348 1199.4 661.507 1177.04 683.358 1184.11C706.403 1191.55 704.278 1228.73 714.806 1229.36C731.363 1230.35 742.5 1123.25 741.456 1032.18L741.468 1032.19Z" fill="white" stroke="#EE4266" stroke-linejoin="round"/>
</g>
<path d="M684.515 652.463H680.835V868.025H684.515V652.463Z" fill="#EE4266"/>
<path d="M691.314 652.463H687.635V868.025H691.314V652.463Z" fill="#EE4266"/>
<path d="M698.113 652.463H694.434V868.025H698.113V652.463Z" fill="#EE4266"/>
<path d="M704.626 652.463H700.947V868.025H704.626V652.463Z" fill="#EE4266"/>
<path d="M711.711 652.463H708.032V868.025H711.711V652.463Z" fill="#EE4266"/>
<path d="M628.754 946.086C628.381 946.222 626.691 947.014 626.952 954.034C627.822 977.706 648.331 1001.89 640.96 1023.04C639.381 1027.58 638.449 1026.44 636.249 1032.28C630.084 1048.66 634.919 1064.35 636.771 1070.72C643.359 1093.53 659.344 1106.17 665.136 1110.32C671.289 1115.94 680.214 1117.88 688.442 1115.34C697.031 1112.71 703.52 1105.6 705.16 1097.04C706.814 1090.16 710.48 1070.78 701.046 1049.59C698.249 1043.31 691.45 1028.26 675.838 1019.14C669.86 1015.67 669.996 1017.36 665.932 1014.68C647.175 1002.32 650.307 970.203 635.665 951.372C634.434 949.788 630.917 945.269 628.754 946.061V946.086Z" fill="#EE426A"/>
<path d="M630.296 949.565C628.879 950.048 636.237 975.02 639.059 984.602C642.775 997.231 646.144 1007.51 648.456 1014.37C646.256 1017.41 643.397 1021.98 641.271 1028.01C635.491 1044.33 639.407 1058.74 640.625 1063.21C647.784 1089.52 675.379 1115.31 689.238 1109.65C702.625 1104.18 704.365 1068.88 692.892 1046.15C684.925 1030.36 670.332 1020.12 669.213 1019.36C664.03 1015.79 659.232 1013.51 655.702 1012.05C653.44 1005.37 649.972 995.436 645.323 983.501C644.192 980.591 631.911 949.008 630.296 949.565Z" fill="#F3F5F6"/>
<path d="M657.517 1031.02C648.53 1034.72 647.424 1055.49 652.98 1070.14C658.089 1083.61 671.339 1098.53 680.748 1095.72C690.12 1092.92 693.762 1073.11 689.238 1058.48C684.067 1041.73 666.777 1027.2 657.517 1031.02Z" fill="#EE426A"/>
</g>
<g opacity="0.5" clip-path="url(#clip2_37_1411)">
<path d="M138.544 476.135V416.197C127.869 416.284 117.179 416.385 106.504 416.472V351H87.0591V416.645C78.8128 416.718 70.5665 416.79 62.3056 416.862C50.8451 436.615 39.3991 456.382 27.9386 476.135H0V1369H347.349V476.135H138.544Z" fill="#167DE5"/>
<path d="M84.8489 505.771H23.1978V576.908H84.8489V505.771Z" fill="white"/>
<path d="M166.381 506.754H104.73V577.89H166.381V506.754Z" fill="white"/>
<path d="M245.936 507.419H184.285V578.555H245.936V507.419Z" fill="white"/>
<path d="M324.821 508.083H263.17V579.22H324.821V508.083Z" fill="white"/>
<path d="M165.727 590.895H104.076V662.031H165.727V590.895Z" fill="white"/>
<path d="M245.267 591.56H183.616V662.696H245.267V591.56Z" fill="white"/>
<path d="M324.152 592.21H262.501V663.346H324.152V592.21Z" fill="white"/>
<path d="M85.5179 677.333H20.8853V748.47H85.5179V677.333Z" fill="white"/>
<path d="M165.828 677.449H104.177V748.585H165.828V677.449Z" fill="white"/>
<path d="M244.496 678.114H182.845V749.25H244.496V678.114Z" fill="white"/>
<path d="M83.4671 760.651H21.8159V831.787H83.4671V760.651Z" fill="white"/>
<path d="M244.554 762.298H182.903V833.434H244.554V762.298Z" fill="white"/>
<path d="M323.44 762.963H261.789V834.099H323.44V762.963Z" fill="white"/>
<path d="M82.8128 844.792H21.1616V915.928H82.8128V844.792Z" fill="white"/>
<path d="M164.345 845.774H102.694V916.911H164.345V845.774Z" fill="white"/>
<path d="M243.885 846.439H182.234V917.575H243.885V846.439Z" fill="white"/>
<path d="M322.771 847.089H261.12V918.225H322.771V847.089Z" fill="white"/>
<path d="M84.136 932.227H19.5034V1003.36H84.136V932.227Z" fill="white"/>
<path d="M164.461 932.328H102.81V1003.46H164.461V932.328Z" fill="white"/>
<path d="M322.887 933.643H261.236V1004.78H322.887V933.643Z" fill="white"/>
<path d="M84.1941 589.912H22.543V661.049H84.1941V589.912Z" fill="#F6C731"/>
<path d="M324.268 678.764H262.617V749.9H324.268V678.764Z" fill="#F6C731"/>
<path d="M165.014 761.648H103.363V832.784H165.014V761.648Z" fill="#F6C731"/>
<path d="M243.114 932.993H181.463V1004.13H243.114V932.993Z" fill="#F6C731"/>
</g>
<defs>
<clipPath id="clip0_37_1411">
<rect width="258" height="1369" fill="white" transform="translate(1236)"/>
</clipPath>
<clipPath id="clip1_37_1411">
<rect width="266" height="735" fill="white" transform="translate(873.81 634)"/>
</clipPath>
<clipPath id="clip2_37_1411">
<rect width="347.349" height="1018" fill="white" transform="translate(0 351)"/>
</clipPath>
</defs>
</svg>
