<svg width="342" height="206" viewBox="0 0 342 206" fill="none" xmlns="http://www.w3.org/2000/svg">
<g clip-path="url(#clip0_45_344)">
<path d="M333.07 0H8.92958C3.99791 0 0 3.99332 0 8.91934V197.081C0 202.007 3.99791 206 8.92958 206H333.07C338.002 206 342 202.007 342 197.081V8.91934C342 3.99332 338.002 0 333.07 0Z" fill="#167DE5"/>
<path d="M342 33.7988H0V71.0951H342V33.7988Z" fill="#2D2628"/>
<path d="M153.363 102.083H11.3455V133.53H153.363V102.083Z" fill="white"/>
<path d="M56.4062 146.955H15.9479C13.406 146.955 11.3455 149.013 11.3455 151.552V173.805C11.3455 176.344 13.406 178.402 15.9479 178.402H56.4062C58.9481 178.402 61.0086 176.344 61.0086 173.805V151.552C61.0086 149.013 58.9481 146.955 56.4062 146.955Z" fill="#F6C731"/>
</g>
<defs>
<clipPath id="clip0_45_344">
<rect width="342" height="206" fill="white"/>
</clipPath>
</defs>
</svg>
