<svg width="342" height="206" viewBox="0 0 342 206" fill="none" xmlns="http://www.w3.org/2000/svg">
<g clip-path="url(#clip0_419_248)">
<path d="M333.07 0H8.92958C3.99791 0 0 3.99332 0 8.91934V197.081C0 202.007 3.99791 206 8.92958 206H333.07C338.002 206 342 202.007 342 197.081V8.91934C342 3.99332 338.002 0 333.07 0Z" fill="#167DE5"/>
<path d="M342 33.7988H0V71.0951H342V33.7988Z" fill="#2D2628"/>
<path d="M333.07 0H8.92958C3.99791 0 0 3.99332 0 8.91934V197.081C0 202.007 3.99791 206 8.92958 206H333.07C338.002 206 342 202.007 342 197.081V8.91934C342 3.99332 338.002 0 333.07 0Z" fill="#D9D9D9"/>
<path d="M342 33.7988H0V71.0951H342V33.7988Z" fill="#2D2628"/>
<path d="M153.363 102.083H11.3457V133.53H153.363V102.083Z" fill="white"/>
<path d="M56.4065 146.955H15.9481C13.4063 146.955 11.3457 149.013 11.3457 151.552V173.805C11.3457 176.344 13.4063 178.402 15.9481 178.402H56.4065C58.9483 178.402 61.0089 176.344 61.0089 173.805V151.552C61.0089 149.013 58.9483 146.955 56.4065 146.955Z" fill="#F6C731"/>
</g>
<defs>
<clipPath id="clip0_419_248">
<rect width="342" height="206" fill="white"/>
</clipPath>
</defs>
</svg>
