<svg width="1920" height="690" viewBox="0 0 1920 690" fill="none" xmlns="http://www.w3.org/2000/svg">
<g opacity="0.89">
<path d="M1238.36 469.911V174.194H1164.29V146.514H1120.4V125.57H1109.43V146.514H1097.71V174.194H1093.6L1093 768.766H1237.76C1237.76 701.987 1238.36 622.964 1238.36 556.185H1227.13C1227.3 527.432 1227.47 498.678 1227.63 469.925C1231.2 469.925 1234.79 469.925 1238.36 469.925V469.911ZM1174.26 556.171V469.897H1216.66C1216.83 498.651 1216.99 527.418 1217.16 556.171H1174.26Z" fill="#2FA0DA"/>
<path d="M1228.25 187.65H1103.11V201.12H1228.25V187.65Z" fill="#F6C93B"/>
<path d="M1228.25 226.178H1103.11V239.648H1228.25V226.178Z" fill="#F6C93B"/>
<path d="M1228.25 263.577H1103.11V277.047H1228.25V263.577Z" fill="#F6C93B"/>
<path d="M1228.25 302.105H1103.11V315.575H1228.25V302.105Z" fill="#F6C93B"/>
<path d="M1228.25 341.372H1103.11V354.843H1228.25V341.372Z" fill="#F6C93B"/>
<path d="M1158.8 383.638H1103.71V452.955H1158.8V383.638Z" fill="#F6C93B"/>
<path d="M1227.75 383.638H1172.66V452.955H1227.75V383.638Z" fill="white" stroke="#616AB1" stroke-width="0.2" stroke-linejoin="round"/>
<path d="M1159.8 468.405H1103.45V497.828H1159.8V468.405Z" fill="white" stroke="#616AB1" stroke-width="0.2" stroke-linejoin="round"/>
<path d="M1127.88 504.312H1103.19V554.177H1127.88V504.312Z" fill="#EF4471"/>
<path d="M1159.68 504.563H1134.99V554.428H1159.68V504.563Z" fill="#EF4471"/>
<path d="M1433.95 327.4V297.894C1428.72 297.936 1423.5 297.991 1418.27 298.033V265.794H1408.76V298.117C1404.73 298.159 1400.69 298.187 1396.66 298.229C1391.05 307.962 1385.45 317.681 1379.84 327.414H1366.17V767.079H1536.13V327.414H1433.96L1433.95 327.4Z" fill="#2FA0DA"/>
<path d="M1407.69 342H1377.52V377.028H1407.69V342Z" fill="white"/>
<path d="M1447.58 342.488H1417.41V377.516H1447.58V342.488Z" fill="white"/>
<path d="M1486.5 342.809H1456.33V377.837H1486.5V342.809Z" fill="white"/>
<path d="M1525.1 343.129H1494.94V378.157H1525.1V343.129Z" fill="white"/>
<path d="M1447.25 383.917H1417.09V418.945H1447.25V383.917Z" fill="white"/>
<path d="M1486.18 384.237H1456.01V419.265H1486.18V384.237Z" fill="white"/>
<path d="M1524.78 384.558H1494.62V419.586H1524.78V384.558Z" fill="white"/>
<path d="M1408.01 426.475H1376.38V461.503H1408.01V426.475Z" fill="white"/>
<path d="M1447.31 426.531H1417.15V461.559H1447.31V426.531Z" fill="white"/>
<path d="M1485.8 426.851H1455.64V461.879H1485.8V426.851Z" fill="white"/>
<path d="M1407.01 467.499H1376.84V502.527H1407.01V467.499Z" fill="white"/>
<path d="M1485.83 468.322H1455.66V503.35H1485.83V468.322Z" fill="white"/>
<path d="M1524.42 468.642H1494.25V503.671H1524.42V468.642Z" fill="white"/>
<path d="M1406.69 508.941H1376.52V543.97H1406.69V508.941Z" fill="white"/>
<path d="M1446.58 509.416H1416.42V544.444H1446.58V509.416Z" fill="white"/>
<path d="M1485.49 509.75H1455.33V544.778H1485.49V509.75Z" fill="white"/>
<path d="M1524.1 510.071H1493.93V545.099H1524.1V510.071Z" fill="white"/>
<path d="M1407.34 551.988H1375.71V587.016H1407.34V551.988Z" fill="white"/>
<path d="M1446.63 552.043H1416.46V587.072H1446.63V552.043Z" fill="white"/>
<path d="M1524.15 552.685H1493.99V587.713H1524.15V552.685Z" fill="white"/>
<path d="M1407.36 383.428H1377.19V418.457H1407.36V383.428Z" fill="#F6C62F"/>
<path d="M1524.82 427.186H1494.66V462.214H1524.82V427.186Z" fill="#F6C62F"/>
<path d="M1446.91 467.987H1416.74V503.015H1446.91V467.987Z" fill="#F6C62F"/>
<path d="M1485.12 552.364H1454.95V587.392H1485.12V552.364Z" fill="#F6C62F"/>
<path d="M1377.27 387.695V361.661H1368.07V387.695H1239.21V361.661H1230V387.695H1220.49V802.456H1384.9V387.695H1377.27Z" fill="#2FA0DA"/>
<path d="M1287.04 404.08H1235.23V426.489H1287.04V404.08Z" fill="#FFD240"/>
<path d="M1347.68 404.01H1295.87V426.419H1347.68V404.01Z" fill="white" stroke="#616AB1" stroke-width="0.2" stroke-linejoin="round"/>
<path d="M1287.6 437.351H1235.79V459.76H1287.6V437.351Z" fill="white" stroke="#616AB1" stroke-width="0.2" stroke-linejoin="round"/>
<path d="M1347.01 469.772H1295.2V492.181H1347.01V469.772Z" fill="white" stroke="#5F68B0" stroke-width="0.2" stroke-linejoin="round"/>
<path d="M1287.71 500.31H1235.9V522.719H1287.71V500.31Z" fill="#EF446E"/>
<path d="M1346.8 500.631H1294.99V523.039H1346.8V500.631Z" fill="white"/>
<path d="M1287.5 469.674H1235.69V492.083H1287.5V469.674Z" fill="white" stroke="#616AB1" stroke-width="0.2" stroke-linejoin="round"/>
<path d="M1347.75 437.044H1295.94V459.453H1347.75V437.044Z" fill="#FFD140"/>
<path d="M1372.36 536.496H1235.55V768.571H1372.36V536.496Z" fill="#FFD140"/>
<mask id="mask0_416_242" style="mask-type:luminance" maskUnits="userSpaceOnUse" x="1235" y="536" width="138" height="233">
<path d="M1372.36 536.496H1235.55V768.571H1372.36V536.496Z" fill="white"/>
</mask>
<g mask="url(#mask0_416_242)">
<path d="M1273.29 585.998C1270.81 594.17 1272.58 603.136 1270.35 611.377C1267.57 621.584 1259.03 629.24 1249.86 634.524C1240.7 639.809 1230.59 643.323 1221.55 648.831C1212.11 654.59 1203.91 662.497 1193.68 666.68C1183.44 670.863 1169.76 669.985 1163.68 660.754C1160.44 655.831 1160.02 649.598 1160.29 643.714C1161.36 620.371 1171.61 598.437 1183.45 578.301C1203.97 543.44 1238.01 511.647 1282.08 519.665C1294.49 521.924 1314.93 529.886 1310.07 545.922C1304.81 563.213 1278.95 567.438 1273.31 586.012L1273.29 585.998Z" fill="#EF4471"/>
<path d="M1388.53 615.281C1388.25 590.418 1386.48 579.765 1378.32 572.486C1363.55 559.309 1336.8 565.123 1321 574.271C1305.47 583.279 1288.35 602.564 1291.09 623.313C1291.87 629.198 1294 633.841 1295.76 636.909C1295.76 636.909 1299.99 646.126 1298.03 651.23C1298.03 651.244 1298 651.299 1297.98 651.369C1297.81 651.815 1297.29 653.182 1296.83 655.037C1296.67 655.706 1296.5 656.459 1296.37 657.351C1295.87 660.628 1295.45 663.333 1296.97 665.341C1298.59 667.489 1301.57 667.726 1303.42 667.865C1305.3 668.019 1306.85 667.726 1307.86 667.447C1309.29 668.827 1310.78 670.794 1310.99 673.29C1311.23 676.26 1309.48 678.045 1310.4 679.258C1311.76 681.015 1317 679.23 1317.07 679.551C1317.12 679.816 1313.28 680.122 1312.42 682.186C1311.73 683.859 1313.55 685.045 1314.84 688.545C1316.8 693.858 1314.47 696.354 1316.78 700.76C1316.78 700.76 1318.11 702.977 1320.29 704.86C1324.21 708.276 1344.25 695.852 1356.34 699.77C1369.1 703.911 1367.93 724.577 1373.76 724.926C1382.92 725.483 1389.1 665.941 1388.51 615.309L1388.53 615.281Z" fill="white" stroke="#EF446E" stroke-width="0.2" stroke-linejoin="round"/>
</g>
<path d="M1356.98 404.178H1354.95V524.029H1356.98V404.178Z" fill="#EF446E"/>
<path d="M1360.75 404.178H1358.71V524.029H1360.75V404.178Z" fill="#EF446E"/>
<path d="M1364.51 404.178H1362.48V524.029H1364.51V404.178Z" fill="#EF446E"/>
<path d="M1368.11 404.178H1366.07V524.029H1368.11V404.178Z" fill="#EF446E"/>
<path d="M1372.04 404.178H1370.01V524.029H1372.04V404.178Z" fill="#EF446E"/>
<path d="M1326.09 567.41C1325.88 567.48 1324.95 567.926 1325.09 571.831C1325.56 584.994 1336.93 598.436 1332.84 610.205C1331.96 612.729 1331.45 612.088 1330.23 615.337C1326.82 624.443 1329.49 633.158 1330.53 636.714C1334.18 649.389 1343.04 656.417 1346.23 658.732C1349.63 661.855 1354.58 662.929 1359.13 661.535C1363.88 660.07 1367.48 656.11 1368.39 651.355C1369.31 647.534 1371.33 636.755 1366.12 624.972C1364.57 621.486 1360.8 613.106 1352.16 608.044C1348.85 606.106 1348.92 607.054 1346.68 605.562C1336.29 598.687 1338.02 580.839 1329.91 570.366C1329.23 569.488 1327.28 566.978 1326.09 567.41Z" fill="#EF4471"/>
<path d="M1326.96 569.348C1326.17 569.613 1330.25 583.502 1331.81 588.829C1333.87 595.843 1335.73 601.56 1337.01 605.381C1335.8 607.068 1334.21 609.62 1333.04 612.966C1329.83 622.044 1332 630.048 1332.67 632.53C1336.63 647.158 1351.92 661.493 1359.59 658.341C1366.99 655.301 1367.97 635.682 1361.61 623.034C1357.2 614.249 1349.12 608.56 1348.5 608.142C1345.63 606.162 1342.98 604.893 1341.01 604.084C1339.76 600.375 1337.83 594.839 1335.27 588.215C1334.64 586.598 1327.85 569.042 1326.94 569.348H1326.96Z" fill="#F3F5F6"/>
<path d="M1342.02 614.64C1337.04 616.69 1336.43 628.249 1339.51 636.393C1342.34 643.881 1349.67 652.178 1354.89 650.616C1360.08 649.054 1362.1 638.038 1359.59 629.909C1356.72 620.594 1347.15 612.52 1342.02 614.64Z" fill="#EF4471"/>
<path d="M1907.96 332.462V311.281H1841.31V332.462H1826.75V461.935H1746.62V461.963H1668.45V465.031H1674.82V478.055H1649.61V563.617H1642.62V551.388H1649.34V548.599H1572.98L1502.03 548.613V551.402H1507.81V563.603H1493.95V801.801H1649.61V801.829H2022.06V332.434H1907.96V332.462ZM1639.51 551.402V563.631H1631.93V551.402H1639.51ZM1628.84 551.402V563.631H1621.87V551.402H1628.84ZM1618.78 551.402V563.631H1611.9V551.402H1618.78ZM1608.82 551.402V563.631H1602.32V551.402H1608.82ZM1599.24 551.402V563.631H1592.6V551.402H1599.24ZM1589.52 551.402V563.631H1581.83V551.402H1589.52ZM1578.39 551.416L1578.74 551.402V563.631H1571.65V551.43H1578.37L1578.39 551.416ZM1568.57 551.416V563.617H1560.98V551.416H1568.57ZM1557.89 551.416V563.617H1550.91V551.416H1557.89ZM1547.83 551.416V563.617H1540.96V551.416H1547.83ZM1537.87 551.416V563.617H1531.38V551.416H1537.87ZM1528.29 551.416V563.617H1521.66V551.416H1528.29ZM1510.88 551.416H1518.56V563.617H1510.88V551.416ZM1819.95 465.017V478.069H1811.59V465.017H1819.95ZM1808.17 465.017V478.069H1800.49V465.017H1808.17ZM1797.1 465.017V478.069H1789.53V465.017H1797.1ZM1786.13 465.017V478.069H1778.97V465.017H1786.13ZM1775.57 465.017V478.069H1768.26V465.017H1775.57ZM1764.86 465.017V478.069H1756.39V465.017H1764.86ZM1752.59 465.031L1752.98 465.017V478.069H1745.18V465.045H1752.59V465.031ZM1741.78 465.031V478.055H1733.42V465.031H1741.78ZM1730.01 465.031V478.055H1722.32V465.031H1730.01ZM1718.93 465.031V478.055H1711.36V465.031H1718.93ZM1707.96 465.031V478.055H1700.81V465.031H1707.96ZM1697.4 465.031V478.055H1690.09V465.031H1697.4ZM1678.21 465.031H1686.68V478.055H1678.21V465.031ZM1823.35 478.069V465.017H1826.75V478.069H1823.35Z" fill="#2FA0DA"/>
<path d="M1895.92 400.817H1924.71V376.401H1895.92V400.817Z" fill="white"/>
<path d="M1862.2 375.522H1890.99V351.105H1862.2V375.522Z" fill="#F6C93B"/>
<path d="M1895.92 451.365H1924.71V426.949H1895.92V451.365Z" fill="white"/>
<path d="M1862.2 426.084H1890.99V401.668H1862.2V426.084Z" fill="#F6C93B"/>
<path d="M1895.92 501.927H1924.71V477.511H1895.92V501.927Z" fill="white"/>
<path d="M1862.2 476.633H1890.99V452.216H1862.2V476.633Z" fill="#F6C93B"/>
<path d="M1895.92 552.476H1924.71V528.059H1895.92V552.476Z" fill="white"/>
<path d="M1862.2 527.195H1890.99V502.778H1862.2V527.195Z" fill="#F6C93B"/>
<path d="M1895.92 603.038H1924.71V578.622H1895.92V603.038Z" fill="white"/>
<path d="M1862.2 577.743H1890.99V553.326H1862.2V577.743Z" fill="#F6C93B"/>
<path d="M1895.92 653.586H1924.71V629.17H1895.92V653.586Z" fill="white"/>
<path d="M1862.2 628.305H1890.99V603.889H1862.2V628.305Z" fill="#F6C93B"/>
<path d="M1895.92 704.148H1924.71V679.732H1895.92V704.148Z" fill="white"/>
<path d="M1862.2 678.853H1890.99V654.437H1862.2V678.853Z" fill="#F6C93B"/>
<path d="M1706.97 520.209H1735.75V495.792H1706.97V520.209Z" fill="white"/>
<path d="M1673.28 520.139H1702.06V495.722H1673.28V520.139Z" fill="#F6C93B"/>
<path d="M1707.79 569.098H1736.58V544.681H1707.79V569.098Z" fill="white"/>
<path d="M1674.08 569.028H1702.87V544.611H1674.08V569.028Z" fill="#F6C93B"/>
<path d="M1706.16 623.704H1734.94V599.287H1706.16V623.704Z" fill="white"/>
<path d="M1672.45 623.634H1701.24V599.217H1672.45V623.634Z" fill="#F6C93B"/>
<path d="M1706.16 680.736H1734.94V656.32H1706.16V680.736Z" fill="white"/>
<path d="M1672.45 680.68H1701.24V656.264H1672.45V680.68Z" fill="#F6C93B"/>
<path d="M1788.47 520.209H1817.25V495.792H1788.47V520.209Z" fill="white" stroke="#616AB1" stroke-width="0.2" stroke-linejoin="round"/>
<path d="M1754.78 520.139H1783.56V495.722H1754.78V520.139Z" fill="#F6C93B"/>
<path d="M1789.29 569.098H1818.08V544.681H1789.29V569.098Z" fill="white" stroke="#616AB1" stroke-width="0.2" stroke-linejoin="round"/>
<path d="M1755.58 569.028H1784.37V544.611H1755.58V569.028Z" fill="#F6C93B"/>
<path d="M1787.66 623.704H1816.44V599.287H1787.66V623.704Z" fill="white" stroke="#616AB1" stroke-width="0.2" stroke-linejoin="round"/>
<path d="M1753.95 623.634H1782.74V599.217H1753.95V623.634Z" fill="#F6C93B"/>
<path d="M1787.66 680.736H1816.44V656.32H1787.66V680.736Z" fill="white" stroke="#616AB1" stroke-width="0.2" stroke-linejoin="round"/>
<path d="M1753.95 680.68H1782.74V656.264H1753.95V680.68Z" fill="#F6C93B"/>
<path d="M1516.9 773.215H1642.41V587.42H1516.9V773.215Z" fill="#EF4471"/>
</g>
<path opacity="0.23" d="M2317.74 478.654V297.169H2284.87V165.715H2261.67V57.8001H2250.96C2250.96 57.8001 2242.72 24.1524 2238.77 0.279663H2210.25C2206.34 24.3197 2198.9 57.7583 2198.9 57.7583H2187.24V165.715H2165.01V297.169H2159.54C2148.78 270.2 2123.94 250.567 2094.26 247.736V202.696H2079V247.778C2042.3 251.473 2013.04 280.868 2008.88 318.016H2007.13V317.402H2004.85V271.149H1969.04V317.402H1967.42V324.542H1969.18V332.476H1907.94V311.294H1841.3V332.476H1826.74V461.949H1746.6V461.977H1668.44V465.045H1674.81V478.069H1649.6V563.631H1642.61V551.402H1649.33V548.613H1572.96L1536.13 548.627V327.386H1433.96V297.88C1428.73 297.922 1423.52 297.978 1418.29 298.019V265.78H1408.78V298.103C1404.75 298.145 1400.7 298.173 1396.67 298.215C1391.07 307.948 1385.46 317.667 1379.85 327.4H1366.19V387.695H1239.24V361.661H1238.37V174.194H1164.31V146.514H1120.42V125.57H1109.44V146.514H1097.71V174.194H1093.6L1093 768.753H1201.53C1202.04 770.663 1202.64 772.531 1203.33 774.344C1206.91 783.799 1213.02 792.43 1220.49 799.416V802.442H1223.92C1239.08 814.936 1258.71 820.849 1274.48 814.253C1280.43 811.771 1285.45 807.643 1289.5 802.442H1384.92V767.051H1493.95V801.815H1649.61V801.842H2022.06V727.352H2113.66V768.39H2336.01V478.654H2317.76H2317.74ZM1174.26 556.171V469.897H1216.66C1216.78 492.613 1216.92 515.314 1217.05 538.029C1210.45 543.37 1204.39 549.52 1198.88 556.171H1174.26ZM1631.93 551.402H1639.51V563.631H1631.93V551.402ZM1621.87 551.402H1628.84V563.631H1621.87V551.402ZM1611.91 551.402H1618.79V563.631H1611.91V551.402ZM1602.33 551.402H1608.83V563.631H1602.33V551.402ZM1592.61 551.402H1599.25V563.631H1592.61V551.402ZM1581.83 551.402H1589.52V563.631H1581.83V551.402ZM1571.67 551.416H1578.39L1578.74 551.402V563.631H1571.65V551.43L1571.67 551.416ZM1560.98 551.416H1568.57V563.617H1560.98V551.416ZM1550.93 551.416H1557.9V563.617H1550.93V551.416ZM1540.96 551.416H1547.83V563.617H1540.96V551.416ZM1537.87 551.416V563.617H1536.13V551.416H1537.87ZM1800.5 465.017H1808.19V478.069H1800.5V465.017ZM1789.53 465.017H1797.1V478.069H1789.53V465.017ZM1768.26 465.017H1775.57V478.069H1768.26V465.017ZM1756.38 465.017H1764.84V478.069H1756.38V465.017ZM1722.34 465.031H1730.02V478.055H1722.34V465.031ZM1711.36 465.031H1718.93V478.055H1711.36V465.031ZM1700.81 465.031H1707.96V478.055H1700.81V465.031ZM1690.09 465.031H1697.4V478.055H1690.09V465.031ZM1678.21 465.031H1686.68V478.055H1678.21V465.031ZM1741.78 478.069H1733.42V465.045H1741.78V478.069ZM1745.18 465.031H1752.59L1752.98 465.017V478.069H1745.18V465.045V465.031ZM1786.13 478.069H1778.97V465.017H1786.13V478.069ZM1819.95 478.069H1811.59V465.017H1819.95V478.069ZM1826.75 478.069H1823.35V465.017H1826.75V478.069ZM1972.63 324.542H1986.96V332.476H1972.63V324.542Z" fill="#4A2F91"/>
<g opacity="0.89">
<path d="M1074.75 479.654V298.169H1041.87V166.715H1018.67V58.8001H1007.96C1007.96 58.8001 999.716 25.1524 995.769 1.27966H967.25C963.345 25.3197 955.898 58.7583 955.898 58.7583H944.239V166.715H922.009V298.169H891.077V479.654H870.674V769.39H1093.03V479.654H1074.77H1074.75Z" fill="#2FA0DA"/>
<path d="M980.861 487.394H938.967V557.938H980.861V487.394Z" fill="#F6C93B"/>
<path d="M1025.98 487.603H984.083V558.147H1025.98V487.603Z" fill="#F6C93B"/>
<path d="M980.861 577.251H938.967V647.795H980.861V577.251Z" fill="#F6C93B"/>
<path d="M1025.98 577.46H984.083V648.004H1025.98V577.46Z" fill="#F6C93B"/>
<path d="M980.861 673.076H938.967V743.621H980.861V673.076Z" fill="#F6C93B"/>
<path d="M1025.98 673.272H984.083V743.816H1025.98V673.272Z" fill="#F6C93B"/>
<path d="M1018.24 422.497H947.991V475.652H1018.24V422.497Z" fill="#EF4471"/>
<path d="M1018.99 364.586H948.744V417.742H1018.99V364.586Z" fill="#EF4471"/>
<path d="M1018.12 306.368H947.879V359.524H1018.12V306.368Z" fill="#EF4471"/>
<path d="M1002.13 240.16H963.777V300.902H1002.13V240.16Z" fill="#F6C93B"/>
<path d="M1001.75 174.817H963.401V235.559H1001.75V174.817Z" fill="#F6C93B"/>
<path d="M993.12 73.7764H972.005V166.311H993.12V73.7764Z" fill="#F6C93B"/>
<path d="M921.758 319.016C917.588 281.742 888.135 252.264 851.248 248.736V203.696H835.991V248.778C799.285 252.473 770.027 281.868 765.871 319.016H743.948V728.352H941.422V319.016H921.758Z" fill="#2FA0DA"/>
<path d="M797.458 343.056H765.871V382.421H797.458V343.056Z" fill="#FFD240"/>
<path d="M838.166 343.223H806.579V382.588H838.166V343.223Z" fill="white"/>
<path d="M880.088 343.042H848.5V382.407H880.088V343.042Z" fill="#FFD240"/>
<path d="M920.991 343.404H889.404V382.769H920.991V343.404Z" fill="#FFD240"/>
<path d="M797.626 389.616H766.038V428.981H797.626V389.616Z" fill="white"/>
<path d="M881.12 389.978H806.941V429.343H881.12V389.978Z" fill="white"/>
<path d="M921.354 390.16H889.766V429.525H921.354V390.16Z" fill="#FFD240"/>
<path d="M797.626 435.548H766.038V474.913H797.626V435.548Z" fill="white"/>
<path d="M838.724 436.106H807.137V475.471H838.724V436.106Z" fill="#FFD240"/>
<path d="M921.354 436.092H889.766V475.457H921.354V436.092Z" fill="white"/>
<path d="M837.86 483.21H766.652V522.575H837.86V483.21Z" fill="white"/>
<path d="M880.883 437.403H849.295V521.487H880.883V437.403Z" fill="white"/>
<path d="M921.716 482.123H890.129V521.487H921.716V482.123Z" fill="#FFD240"/>
<path d="M190.95 328.4V298.894C185.72 298.936 180.505 298.991 175.275 299.033V266.794H165.764V299.117C161.733 299.159 157.689 299.187 153.659 299.229C148.052 308.962 142.446 318.681 136.84 328.414H123.173V768.079H293.132V328.414H190.964L190.95 328.4Z" fill="#2FA0DA"/>
<path d="M164.69 343H134.525V378.028H164.69V343Z" fill="white"/>
<path d="M204.575 343.488H174.41V378.516H204.575V343.488Z" fill="white"/>
<path d="M243.499 343.809H213.333V378.837H243.499V343.809Z" fill="white"/>
<path d="M282.101 344.129H251.936V379.157H282.101V344.129Z" fill="white"/>
<path d="M204.254 384.917H174.089V419.945H204.254V384.917Z" fill="white"/>
<path d="M243.178 385.237H213.013V420.265H243.178V385.237Z" fill="white"/>
<path d="M281.78 385.558H251.615V420.586H281.78V385.558Z" fill="white"/>
<path d="M165.011 427.475H133.381V462.503H165.011V427.475Z" fill="white"/>
<path d="M204.31 427.531H174.145V462.559H204.31V427.531Z" fill="white"/>
<path d="M242.801 427.851H212.636V462.879H242.801V427.851Z" fill="white"/>
<path d="M164.006 468.499H133.841V503.527H164.006V468.499Z" fill="white"/>
<path d="M242.829 469.322H212.664V504.35H242.829V469.322Z" fill="white"/>
<path d="M281.417 469.642H251.252V504.671H281.417V469.642Z" fill="white"/>
<path d="M163.686 509.941H133.521V544.97H163.686V509.941Z" fill="white"/>
<path d="M203.585 510.416H173.42V545.444H203.585V510.416Z" fill="white"/>
<path d="M242.494 510.75H212.329V545.778H242.494V510.75Z" fill="white"/>
<path d="M281.097 511.071H250.932V546.099H281.097V511.071Z" fill="white"/>
<path d="M164.341 552.988H132.712V588.016H164.341V552.988Z" fill="white"/>
<path d="M203.627 553.043H173.462V588.072H203.627V553.043Z" fill="white"/>
<path d="M281.152 553.685H250.987V588.713H281.152V553.685Z" fill="white"/>
<path d="M164.355 384.428H134.19V419.457H164.355V384.428Z" fill="#F6C62F"/>
<path d="M281.822 428.186H251.657V463.214H281.822V428.186Z" fill="#F6C62F"/>
<path d="M203.906 468.987H173.741V504.015H203.906V468.987Z" fill="#F6C62F"/>
<path d="M242.118 553.364H211.953V588.392H242.118V553.364Z" fill="#F6C62F"/>
<path d="M134.274 388.695V362.661H125.069V388.695H-3.79092V362.661H-12.9952V388.695H-22.5063V803.456H141.902V388.695H134.274Z" fill="#2FA0DA"/>
<path d="M44.0435 405.08H-7.76562V427.489H44.0435V405.08Z" fill="#FFD240"/>
<path d="M104.681 405.01H52.8716V427.419H104.681V405.01Z" fill="white" stroke="#616AB1" stroke-width="0.2" stroke-linejoin="round"/>
<path d="M44.6016 438.351H-7.20752V460.76H44.6016V438.351Z" fill="white" stroke="#616AB1" stroke-width="0.2" stroke-linejoin="round"/>
<path d="M104.011 470.772H52.2021V493.181H104.011V470.772Z" fill="white" stroke="#5F68B0" stroke-width="0.2" stroke-linejoin="round"/>
<path d="M44.7129 501.31H-7.09619V523.719H44.7129V501.31Z" fill="#EF446E"/>
<path d="M103.802 501.631H51.9927V524.039H103.802V501.631Z" fill="white"/>
<path d="M44.5039 470.674H-7.30518V493.083H44.5039V470.674Z" fill="white" stroke="#616AB1" stroke-width="0.2" stroke-linejoin="round"/>
<path d="M104.75 438.044H52.9409V460.453H104.75V438.044Z" fill="#FFD140"/>
<path d="M129.365 537.496H-7.44482V769.571H129.365V537.496Z" fill="#FFD140"/>
<mask id="mask1_416_242" style="mask-type:luminance" maskUnits="userSpaceOnUse" x="-8" y="537" width="138" height="233">
<path d="M129.365 537.496H-7.44482V769.571H129.365V537.496Z" fill="white"/>
</mask>
<g mask="url(#mask1_416_242)">
<path d="M30.293 586.998C27.8106 595.17 29.5817 604.136 27.3504 612.377C24.5751 622.584 16.0263 630.24 6.86382 635.524C-2.29865 640.809 -12.4094 644.323 -21.4464 649.831C-30.8878 655.59 -39.088 663.497 -49.3243 667.68C-59.5606 671.863 -73.2416 670.985 -79.322 661.754C-82.5574 656.831 -82.9758 650.598 -82.7108 644.714C-81.637 621.371 -71.3867 599.437 -59.5467 579.301C-39.0322 544.44 -4.99021 512.647 39.0789 520.665C51.4908 522.924 71.9355 530.886 67.0684 546.922C61.8107 564.213 35.955 568.438 30.3069 587.012L30.293 586.998Z" fill="#EF4471"/>
<path d="M145.528 616.281C145.249 591.418 143.478 580.765 135.32 573.486C120.551 560.309 93.8029 566.123 78.0021 575.271C62.4664 584.279 45.3547 603.564 48.0881 624.313C48.8691 630.198 51.0028 634.841 52.76 637.909C52.76 637.909 56.9856 647.126 55.0332 652.23C55.0332 652.244 55.0053 652.299 54.9774 652.369C54.8101 652.815 54.2941 654.182 53.8339 656.037C53.6665 656.706 53.4992 657.459 53.3736 658.351C52.8716 661.628 52.4532 664.333 53.9733 666.341C55.591 668.489 58.5755 668.726 60.4163 668.865C62.299 669.019 63.847 668.726 64.8651 668.447C66.2876 669.827 67.7798 671.794 67.989 674.29C68.226 677.26 66.4828 679.045 67.4032 680.258C68.756 682.015 73.9997 680.23 74.0694 680.551C74.1252 680.816 70.2761 681.122 69.4254 683.186C68.7281 684.859 70.555 686.045 71.838 689.545C73.8044 694.858 71.4755 697.354 73.7765 701.76C73.7765 701.76 75.1153 703.977 77.2909 705.86C81.2097 709.276 101.25 696.852 113.341 700.77C126.102 704.911 124.93 725.577 130.76 725.926C139.922 726.483 146.1 666.941 145.514 616.309L145.528 616.281Z" fill="white" stroke="#EF446E" stroke-width="0.2" stroke-linejoin="round"/>
</g>
<path d="M113.982 405.178H111.946V525.029H113.982V405.178Z" fill="#EF446E"/>
<path d="M117.748 405.178H115.712V525.029H117.748V405.178Z" fill="#EF446E"/>
<path d="M121.513 405.178H119.477V525.029H121.513V405.178Z" fill="#EF446E"/>
<path d="M125.111 405.178H123.075V525.029H125.111V405.178Z" fill="#EF446E"/>
<path d="M129.044 405.178H127.008V525.029H129.044V405.178Z" fill="#EF446E"/>
<path d="M83.092 568.41C82.8828 568.48 81.9484 568.926 82.0879 572.831C82.562 585.994 93.9279 599.436 89.8418 611.205C88.9632 613.729 88.4472 613.088 87.2339 616.337C83.8171 625.443 86.4948 634.158 87.5268 637.714C91.1806 650.389 100.036 657.417 103.23 659.732C106.633 662.855 111.583 663.929 116.13 662.535C120.885 661.07 124.483 657.11 125.39 652.355C126.31 648.534 128.333 637.755 123.117 625.972C121.569 622.486 117.803 614.106 109.157 609.044C105.852 607.106 105.921 608.054 103.676 606.562C93.2864 599.687 95.0157 581.839 86.9132 571.366C86.2298 570.488 84.2774 567.978 83.092 568.41Z" fill="#EF4471"/>
<path d="M83.9569 570.348C83.1759 570.613 87.2481 584.502 88.8101 589.829C90.8741 596.843 92.7289 602.56 94.0119 606.381C92.7986 608.068 91.2088 610.62 90.0373 613.966C86.8298 623.044 89.0053 631.048 89.6747 633.53C93.6354 648.158 108.92 662.493 116.59 659.341C123.996 656.301 124.972 636.682 118.613 624.034C114.206 615.249 106.117 609.56 105.503 609.142C102.63 607.162 99.9808 605.893 98.0144 605.084C96.7592 601.375 94.8347 595.839 92.2687 589.215C91.6411 587.598 84.8494 570.042 83.943 570.348H83.9569Z" fill="#F3F5F6"/>
<path d="M99.0185 615.64C94.0398 617.69 93.4262 629.249 96.5082 637.393C99.3392 644.881 106.675 653.178 111.891 651.616C117.078 650.054 119.101 639.038 116.59 630.909C113.718 621.594 104.151 613.52 99.0185 615.64Z" fill="#EF4471"/>
<path d="M664.958 333.462V312.281H598.31V333.462H583.751V462.935H503.618V462.963H425.451V466.031H431.824V479.055H406.61V564.617H399.623V552.388H406.345V549.599H329.977L259.034 549.613V552.402H264.808V564.603H250.945V802.801H406.61V802.829H779.063V333.434H664.958V333.462ZM396.513 552.402V564.631H388.926V552.402H396.513ZM385.844 552.402V564.631H378.871V552.402H385.844ZM375.775 552.402V564.631H368.9V552.402H375.775ZM365.818 552.402V564.631H359.319V552.402H365.818ZM356.237 552.402V564.631H349.599V552.402H356.237ZM346.517 552.402V564.631H338.832V552.402H346.517ZM335.388 552.416L335.736 552.402V564.631H328.652V552.43H335.374L335.388 552.416ZM325.57 552.416V564.617H317.983V552.416H325.57ZM314.887 552.416V564.617H307.914V552.416H314.887ZM304.832 552.416V564.617H297.957V552.416H304.832ZM294.875 552.416V564.617H288.376V552.416H294.875ZM285.294 552.416V564.617H278.656V552.416H285.294ZM267.876 552.416H275.56V564.617H267.876V552.416ZM576.945 466.017V479.069H568.592V466.017H576.945ZM565.175 466.017V479.069H557.491V466.017H565.175ZM554.102 466.017V479.069H546.529V466.017H554.102ZM543.126 466.017V479.069H535.972V466.017H543.126ZM532.569 466.017V479.069H525.262V466.017H532.569ZM521.859 466.017V479.069H513.394V466.017H521.859ZM509.586 466.031L509.977 466.017V479.069H502.181V466.045H509.586V466.031ZM498.778 466.031V479.055H490.425V466.031H498.778ZM487.008 466.031V479.055H479.324V466.031H487.008ZM475.935 466.031V479.055H468.362V466.031H475.935ZM464.959 466.031V479.055H457.805V466.031H464.959ZM454.402 466.031V479.055H447.095V466.031H454.402ZM435.213 466.031H443.678V479.055H435.213V466.031ZM580.348 479.069V466.017H583.751V479.069H580.348Z" fill="#2FA0DA"/>
<path d="M761.868 272.135H726.055V320.522H761.868V272.135Z" fill="#3D7EBD"/>
<path d="M734.994 377.359H763.779V352.942H734.994V377.359Z" fill="white"/>
<path d="M703.769 376.787H732.554V352.371H703.769V376.787Z" fill="#F6C93B"/>
<path d="M734.994 404.439H763.779V380.022H734.994V404.439Z" fill="white"/>
<path d="M703.769 403.867H732.554V379.45H703.769V403.867Z" fill="#F6C93B"/>
<path d="M734.994 431.519H763.779V407.102H734.994V431.519Z" fill="white"/>
<path d="M703.769 430.947H732.554V406.53H703.769V430.947Z" fill="#F6C93B"/>
<path d="M734.994 485.665H763.779V461.248H734.994V485.665Z" fill="white"/>
<path d="M703.769 485.107H732.554V460.69H703.769V485.107Z" fill="#F6C93B"/>
<path d="M734.994 458.585H763.779V434.168H734.994V458.585Z" fill="white"/>
<path d="M703.769 458.027H732.554V433.61H703.769V458.027Z" fill="#F6C93B"/>
<path d="M734.994 512.744H763.779V488.328H734.994V512.744Z" fill="white"/>
<path d="M703.769 512.187H732.554V487.77H703.769V512.187Z" fill="#F6C93B"/>
<path d="M734.994 539.838H763.779V515.422H734.994V539.838Z" fill="white"/>
<path d="M703.769 539.253H732.554V514.836H703.769V539.253Z" fill="#F6C93B"/>
<path d="M734.994 593.998H763.779V569.581H734.994V593.998Z" fill="white"/>
<path d="M703.769 593.413H732.554V568.996H703.769V593.413Z" fill="#F6C93B"/>
<path d="M734.994 566.918H763.779V542.502H734.994V566.918Z" fill="white"/>
<path d="M703.769 566.333H732.554V541.916H703.769V566.333Z" fill="#F6C93B"/>
<path d="M734.994 647.628H763.779V623.212H734.994V647.628Z" fill="white"/>
<path d="M703.769 647.586H732.554V623.17H703.769V647.586Z" fill="#F6C93B"/>
<path d="M734.994 621.078H763.779V596.662H734.994V621.078Z" fill="white"/>
<path d="M703.769 620.506H732.554V596.09H703.769V620.506Z" fill="#F6C93B"/>
<path d="M734.994 674.708H763.779V650.292H734.994V674.708Z" fill="white"/>
<path d="M703.769 674.666H732.554V650.25H703.769V674.666Z" fill="#F6C93B"/>
<path d="M734.994 701.788H763.779V677.371H734.994V701.788Z" fill="white"/>
<path d="M703.769 701.732H732.554V677.316H703.769V701.732Z" fill="#F6C93B"/>
<path d="M652.923 401.817H681.707V377.401H652.923V401.817Z" fill="white"/>
<path d="M619.201 376.522H647.985V352.105H619.201V376.522Z" fill="#F6C93B"/>
<path d="M652.923 452.365H681.707V427.949H652.923V452.365Z" fill="white"/>
<path d="M619.201 427.084H647.985V402.668H619.201V427.084Z" fill="#F6C93B"/>
<path d="M652.923 502.927H681.707V478.511H652.923V502.927Z" fill="white"/>
<path d="M619.201 477.633H647.985V453.216H619.201V477.633Z" fill="#F6C93B"/>
<path d="M652.923 553.476H681.707V529.059H652.923V553.476Z" fill="white"/>
<path d="M619.201 528.195H647.985V503.778H619.201V528.195Z" fill="#F6C93B"/>
<path d="M652.923 604.038H681.707V579.622H652.923V604.038Z" fill="white"/>
<path d="M619.201 578.743H647.985V554.326H619.201V578.743Z" fill="#F6C93B"/>
<path d="M652.923 654.586H681.707V630.17H652.923V654.586Z" fill="white"/>
<path d="M619.201 629.305H647.985V604.889H619.201V629.305Z" fill="#F6C93B"/>
<path d="M652.923 705.148H681.707V680.732H652.923V705.148Z" fill="white"/>
<path d="M619.201 679.853H647.985V655.437H619.201V679.853Z" fill="#F6C93B"/>
<path d="M463.97 521.209H492.754V496.792H463.97V521.209Z" fill="white"/>
<path d="M430.276 521.139H459.061V496.722H430.276V521.139Z" fill="#F6C93B"/>
<path d="M464.792 570.098H493.577V545.681H464.792V570.098Z" fill="white"/>
<path d="M431.085 570.028H459.869V545.611H431.085V570.028Z" fill="#F6C93B"/>
<path d="M463.16 624.704H491.945V600.287H463.16V624.704Z" fill="white"/>
<path d="M429.453 624.634H458.238V600.217H429.453V624.634Z" fill="#F6C93B"/>
<path d="M463.16 681.736H491.945V657.32H463.16V681.736Z" fill="white"/>
<path d="M429.453 681.68H458.238V657.264H429.453V681.68Z" fill="#F6C93B"/>
<path d="M545.47 521.209H574.254V496.792H545.47V521.209Z" fill="white" stroke="#616AB1" stroke-width="0.2" stroke-linejoin="round"/>
<path d="M511.776 521.139H540.561V496.722H511.776V521.139Z" fill="#F6C93B"/>
<path d="M546.292 570.098H575.077V545.681H546.292V570.098Z" fill="white" stroke="#616AB1" stroke-width="0.2" stroke-linejoin="round"/>
<path d="M512.585 570.028H541.369V545.611H512.585V570.028Z" fill="#F6C93B"/>
<path d="M544.66 624.704H573.445V600.287H544.66V624.704Z" fill="white" stroke="#616AB1" stroke-width="0.2" stroke-linejoin="round"/>
<path d="M510.953 624.634H539.738V600.217H510.953V624.634Z" fill="#F6C93B"/>
<path d="M544.66 681.736H573.445V657.32H544.66V681.736Z" fill="white" stroke="#616AB1" stroke-width="0.2" stroke-linejoin="round"/>
<path d="M510.953 681.68H539.738V657.264H510.953V681.68Z" fill="#F6C93B"/>
<path d="M273.9 774.215H399.414V588.42H273.9V774.215Z" fill="#EF4471"/>
<path d="M724.437 325.528H764.127V318.388H724.437V325.528Z" fill="#3D7EBD"/>
<path d="M757.991 335.094H761.436V325.068H757.991V335.094Z" fill="#3D7EBD"/>
<path d="M726.18 335.386H729.625V325.36H726.18V335.386Z" fill="#3D7EBD"/>
</g>
<path opacity="0.23" d="M1074.74 479.654V298.169H1041.87V166.715H1018.67V58.8001H1007.96C1007.96 58.8001 999.716 25.1524 995.769 1.27966H967.25C963.345 25.3197 955.898 58.7583 955.898 58.7583H944.239V166.715H922.009V298.169H916.542C905.776 271.2 880.938 251.567 851.261 248.736V203.696H836.005V248.778C799.299 252.473 770.04 281.868 765.884 319.016H764.127V318.402H761.854V272.149H726.041V318.402H724.423V325.542H726.18V333.476H664.944V312.294H598.296V333.476H583.737V462.949H503.604V462.977H425.437V466.045H431.81V479.069H406.596V564.631H399.609V552.402H406.331V549.613H329.963L293.132 549.627V328.386H190.964V298.88C185.734 298.922 180.518 298.978 175.289 299.019V266.78H165.777V299.103C161.747 299.145 157.703 299.173 153.672 299.215C148.066 308.948 142.46 318.667 136.854 328.4H123.187V388.695H-3.76306V362.661H-4.62772V175.194H-78.6945V147.514H-122.582V126.57H-133.558V147.514H-145.286V175.194H-149.4L-150 769.753H-41.4728C-40.9568 771.663 -40.3572 773.531 -39.6738 775.344C-36.0897 784.799 -29.9814 793.43 -22.5064 800.416V803.442H-19.0757C-3.91647 815.936 15.7054 821.849 31.4783 815.253C37.4332 812.771 42.4537 808.643 46.498 803.442H141.916V768.051H250.945V802.815H406.61V802.842H779.063V728.352H870.66V769.39H1093.01V479.654H1074.76H1074.74ZM-68.7371 557.171V470.897H-26.3415C-26.216 493.613 -26.0765 516.314 -25.951 539.029C-32.5475 544.37 -38.6139 550.52 -44.1226 557.171H-68.7371ZM388.926 552.402H396.513V564.631H388.926V552.402ZM378.871 552.402H385.844V564.631H378.871V552.402ZM368.914 552.402H375.789V564.631H368.914V552.402ZM359.333 552.402H365.832V564.631H359.333V552.402ZM349.613 552.402H356.251V564.631H349.613V552.402ZM338.832 552.402H346.517V564.631H338.832V552.402ZM328.666 552.416H335.388L335.736 552.402V564.631H328.652V552.43L328.666 552.416ZM317.983 552.416H325.57V564.617H317.983V552.416ZM307.928 552.416H314.901V564.617H307.928V552.416ZM297.957 552.416H304.832V564.617H297.957V552.416ZM294.875 552.416V564.617H293.132V552.416H294.875ZM557.505 466.017H565.189V479.069H557.505V466.017ZM546.529 466.017H554.102V479.069H546.529V466.017ZM525.262 466.017H532.569V479.069H525.262V466.017ZM513.38 466.017H521.845V479.069H513.38V466.017ZM479.338 466.031H487.022V479.055H479.338V466.031ZM468.362 466.031H475.935V479.055H468.362V466.031ZM457.805 466.031H464.959V479.055H457.805V466.031ZM447.095 466.031H454.402V479.055H447.095V466.031ZM435.213 466.031H443.678V479.055H435.213V466.031ZM498.778 479.069H490.425V466.045H498.778V479.069ZM502.181 466.031H509.586L509.977 466.017V479.069H502.181V466.045V466.031ZM543.126 479.069H535.972V466.017H543.126V479.069ZM576.945 479.069H568.592V466.017H576.945V479.069ZM583.751 479.069H580.348V466.017H583.751V479.069ZM729.625 325.542H743.961V333.476H729.625V325.542Z" fill="#4A2F91"/>
</svg>
