<svg width="489" height="688" viewBox="0 0 489 688" fill="none" xmlns="http://www.w3.org/2000/svg">
<g clip-path="url(#clip0_25_1393)">
<path d="M444.663 368.211V52.17H523.815V22.5908H570.718V0.20755H582.444V22.5908H594.965V52.17H599.364L600 687.603H445.3C445.3 616.233 444.663 531.772 444.663 460.402H456.651C456.473 429.672 456.296 398.942 456.118 368.211C452.3 368.211 448.481 368.211 444.663 368.211ZM513.156 460.402V368.202H467.853C467.675 398.932 467.497 429.672 467.319 460.402H513.156Z" fill="#167DE5"/>
<path d="M455.463 66.5619H589.191V80.9538H455.463V66.5619Z" fill="#F6C93B"/>
<path d="M455.463 107.726H589.191V122.118H455.463V107.726Z" fill="#F6C93B"/>
<path d="M455.463 147.701H589.191V162.093H455.463V147.701Z" fill="#F6C93B"/>
<path d="M455.463 188.874H589.191V203.266H455.463V188.874Z" fill="#F6C93B"/>
<path d="M455.463 230.843H589.191V245.235H455.463V230.843Z" fill="#F6C93B"/>
<path d="M456.006 276.002H514.878V350.086H456.006V276.002Z" fill="white" stroke="#6666FF" stroke-linejoin="round"/>
</g>
<g clip-path="url(#clip1_25_1393)">
<path d="M329.851 313.968V297.122H276.753V313.968H265.159V416.917H201.315V416.936H139.038V419.373H144.107V429.734H124.023V497.77H118.452V488.05H123.812V485.837H62.9646V485.851H6.43874V488.063H11.0445V497.77H0V687.165H124.023V687.185H420.755V313.968H329.851ZM115.99 488.05V497.77H109.948V488.05H115.99ZM107.48 488.05V497.77H101.928V488.05H107.48ZM99.4662 488.05V497.77H93.9936V488.05H99.4662ZM91.532 488.05V497.77H86.3572V488.05H91.532ZM83.8955 488.05V497.77H78.6148V488.05H83.8955ZM76.1531 488.05V497.77H70.032V488.05H76.1531ZM67.2858 488.063V488.05H67.5637V497.77H61.9257V488.063H67.2858ZM59.464 488.063V497.77H53.4223V488.063H59.464ZM50.9606 488.063V497.77H45.4086V488.063H50.9606ZM42.9404 488.063V497.77H37.4678V488.063H42.9404ZM35.0061 488.063V497.77H29.8313V488.063H35.0061ZM27.3696 488.063V497.77H22.0889V488.063H27.3696ZM13.5061 488.063H19.6272V497.77H13.5061V488.063ZM259.733 419.353V429.727H253.076V419.353H259.733ZM250.356 419.353V429.727H244.235V419.353H250.356ZM241.529 419.353V429.727H235.5V419.353H241.529ZM232.787 419.353V429.727H227.09V419.353H232.787ZM224.376 419.353V429.727H218.553V419.353H224.376ZM215.84 419.353V429.727H209.09V419.353H215.84ZM206.073 419.373V419.36H206.384V429.734H200.17V419.373H206.073ZM197.457 419.373V429.734H190.8V419.373H197.457ZM188.087 419.373V429.734H181.965V419.373H188.087ZM179.252 419.373V429.734H173.224V419.373H179.252ZM170.511 419.373V429.734H164.813V419.373H170.511ZM162.1 419.373V429.734H156.277V419.373H162.1ZM146.82 419.373H153.57V429.734H146.82V419.373ZM262.44 429.734V419.36H265.153V429.734H262.44Z" fill="#167DE5"/>
<path d="M407.057 265.208H378.522V303.686H407.057V265.208Z" fill="#167DE5"/>
<path d="M385.649 348.867H408.585V329.453H385.649V348.867Z" fill="white"/>
<path d="M360.775 348.418H383.71V329.004H360.775V348.418Z" fill="#F6C93B"/>
<path d="M385.649 370.401H408.585V350.987H385.649V370.401Z" fill="white"/>
<path d="M360.775 369.946H383.71V350.532H360.775V369.946Z" fill="#F6C93B"/>
<path d="M385.649 391.929H408.585V372.515H385.649V391.929Z" fill="white"/>
<path d="M360.775 391.48H383.71V372.066H360.775V391.48Z" fill="#F6C93B"/>
<path d="M385.649 434.99H408.585V415.576H385.649V434.99Z" fill="white"/>
<path d="M360.775 434.541H383.71V415.127H360.775V434.541Z" fill="#F6C93B"/>
<path d="M385.649 413.456H408.585V394.042H385.649V413.456Z" fill="white"/>
<path d="M360.775 413.007H383.71V393.593H360.775V413.007Z" fill="#F6C93B"/>
<path d="M385.649 456.518H408.585V437.104H385.649V456.518Z" fill="white"/>
<path d="M360.775 456.069H383.71V436.655H360.775V456.069Z" fill="#F6C93B"/>
<path d="M385.649 478.052H408.585V458.638H385.649V478.052Z" fill="white"/>
<path d="M360.775 477.603H383.71V458.189H360.775V477.603Z" fill="#F6C93B"/>
<path d="M385.649 521.113H408.585V501.699H385.649V521.113Z" fill="white"/>
<path d="M360.775 520.664H383.71V501.25H360.775V520.664Z" fill="#F6C93B"/>
<path d="M385.649 499.579H408.585V480.165H385.649V499.579Z" fill="white"/>
<path d="M360.775 499.13H383.71V479.716H360.775V499.13Z" fill="#F6C93B"/>
<path d="M385.649 563.772H408.585V544.358H385.649V563.772Z" fill="white"/>
<path d="M360.775 563.726H383.71V544.312H360.775V563.726Z" fill="#F6C93B"/>
<path d="M385.649 542.641H408.585V523.227H385.649V542.641Z" fill="white"/>
<path d="M360.775 542.192H383.71V522.778H360.775V542.192Z" fill="#F6C93B"/>
<path d="M385.649 585.306H408.585V565.892H385.649V585.306Z" fill="white"/>
<path d="M360.775 585.253H383.71V565.839H360.775V585.253Z" fill="#F6C93B"/>
<path d="M385.649 606.834H408.585V587.419H385.649V606.834Z" fill="white"/>
<path d="M360.775 606.787H383.71V587.373H360.775V606.787Z" fill="#F6C93B"/>
<path d="M385.649 649.895H408.585V630.481H385.649V649.895Z" fill="white"/>
<path d="M360.775 649.849H383.71V630.435H360.775V649.849Z" fill="#F6C93B"/>
<path d="M320.256 368.308H343.192V348.894H320.256V368.308Z" fill="white"/>
<path d="M293.402 348.214H316.338V328.799H293.402V348.214Z" fill="#F6C93B"/>
<path d="M320.256 408.504H343.192V389.089H320.256V408.504Z" fill="white"/>
<path d="M293.402 388.403H316.338V368.988H293.402V388.403Z" fill="#F6C93B"/>
<path d="M320.256 448.706H343.192V429.292H320.256V448.706Z" fill="white"/>
<path d="M293.402 428.605H316.338V409.19H293.402V428.605Z" fill="#F6C93B"/>
<path d="M320.256 488.895H343.192V469.481H320.256V488.895Z" fill="white"/>
<path d="M293.402 468.8H316.338V449.386H293.402V468.8Z" fill="#F6C93B"/>
<path d="M320.256 529.097H343.192V509.683H320.256V529.097Z" fill="white"/>
<path d="M293.402 509.003H316.338V489.588H293.402V509.003Z" fill="#F6C93B"/>
<path d="M320.256 569.293H343.192V549.878H320.256V569.293Z" fill="white"/>
<path d="M293.402 549.192H316.338V529.777H293.402V549.192Z" fill="#F6C93B"/>
<path d="M320.256 609.495H343.192V590.081H320.256V609.495Z" fill="white"/>
<path d="M293.402 589.394H316.338V569.979H293.402V589.394Z" fill="#F6C93B"/>
<path d="M320.256 649.684H343.192V630.27H320.256V649.684Z" fill="white"/>
<path d="M293.402 629.589H316.338V610.175H293.402V629.589Z" fill="#F6C93B"/>
<path d="M385.649 628.368H408.585V608.953H385.649V628.368Z" fill="white"/>
<path d="M360.775 628.315H383.71V608.901H360.775V628.315Z" fill="#F6C93B"/>
<path d="M169.73 463.24H192.666V443.826H169.73V463.24Z" fill="white"/>
<path d="M142.87 463.194H165.806V443.78H142.87V463.194Z" fill="#F6C93B"/>
<path d="M170.378 502.115H193.314V482.701H170.378V502.115Z" fill="white"/>
<path d="M143.525 502.069H166.461V482.655H143.525V502.069Z" fill="#F6C93B"/>
<path d="M169.081 545.527H192.017V526.112H169.081V545.527Z" fill="white"/>
<path d="M142.221 545.48H165.157V526.066H142.221V545.48Z" fill="#F6C93B"/>
<path d="M169.081 590.88H192.017V571.465H169.081V590.88Z" fill="white"/>
<path d="M142.221 590.84H165.157V571.426H142.221V590.84Z" fill="#F6C93B"/>
<path d="M168.221 634H191.157V614.586H168.221V634Z" fill="white"/>
<path d="M141.368 633.948H164.304V614.533H141.368V633.948Z" fill="#F6C93B"/>
<path d="M234.667 463.24H257.603V443.826H234.667V463.24Z" fill="white" stroke="#6666FF" stroke-linejoin="round"/>
<path d="M207.806 463.194H230.742V443.78H207.806V463.194Z" fill="#F6C93B"/>
<path d="M235.315 502.115H258.251V482.701H235.315V502.115Z" fill="white" stroke="#6666FF" stroke-linejoin="round"/>
<path d="M208.455 502.069H231.391V482.655H208.455V502.069Z" fill="#F6C93B"/>
<path d="M234.011 545.527H256.947V526.112H234.011V545.527Z" fill="white" stroke="#6666FF" stroke-linejoin="round"/>
<path d="M207.151 545.48H230.087V526.066H207.151V545.48Z" fill="#F6C93B"/>
<path d="M234.011 590.88H256.947V571.465H234.011V590.88Z" fill="white" stroke="#6666FF" stroke-linejoin="round"/>
<path d="M207.151 590.84H230.087V571.426H207.151V590.84Z" fill="#F6C93B"/>
<path d="M233.151 634H256.087V614.586H233.151V634Z" fill="white" stroke="#6666FF" stroke-linejoin="round"/>
<path d="M206.304 633.948H229.24V614.533H206.304V633.948Z" fill="#F6C93B"/>
<path d="M18.3037 664.416H118.299L118.299 516.682H18.3037L18.3037 664.416Z" fill="#F6C93B"/>
<path d="M377.232 307.662H408.856V301.983H377.232V307.662Z" fill="#167DE5"/>
<path d="M403.986 315.262H406.726V307.298H403.986V315.262Z" fill="#167DE5"/>
<path d="M378.628 315.5H381.368V307.536H378.628V315.5Z" fill="#167DE5"/>
</g>
<defs>
<clipPath id="clip0_25_1393">
<rect width="155.337" height="687.396" fill="white" transform="matrix(-1 0 0 1 600 0.20755)"/>
</clipPath>
<clipPath id="clip1_25_1393">
<rect width="420.755" height="421.978" fill="white" transform="translate(0 265.208)"/>
</clipPath>
</defs>
</svg>
