<svg width="1920" height="1080" viewBox="0 0 1920 1080" fill="none" xmlns="http://www.w3.org/2000/svg">
<g opacity="0.4">
<g opacity="0.36">
<path d="M164.017 505.927V313.987H203.526V174.959H231.401V60.8352H244.285C244.285 60.8352 254.204 25.2496 258.94 4.76837e-06H293.21C297.89 25.43 306.839 60.786 306.839 60.786H320.861V174.959H347.579V313.987H384.758V505.927H409.277V812.35H142.071V505.927H164.017Z" fill="#2E99D5"/>
<path d="M276.857 588.697H327.199V514.097H276.857V588.697Z" fill="#F7CB3B"/>
<path d="M222.637 588.927H272.979V514.327H222.637V588.927Z" fill="#F7CB3B"/>
<path d="M276.857 683.74H327.199V609.14H276.857V683.74Z" fill="#F7CB3B"/>
<path d="M222.637 683.953H272.979V609.353H222.637V683.953Z" fill="#F7CB3B"/>
<path d="M276.857 785.083H327.199V710.483H276.857V785.083Z" fill="#F7CB3B"/>
<path d="M222.637 785.296H272.979V710.696H222.637V785.296Z" fill="#F7CB3B"/>
<path d="M231.923 501.694H316.349V445.469H231.923V501.694Z" fill="#EF456E"/>
<path d="M231.028 440.432H315.454V384.207H231.028V440.432Z" fill="#EF456E"/>
<path d="M232.054 378.858H316.479V322.633H232.054V378.858Z" fill="#EF456E"/>
<path d="M251.276 316.858H297.367V252.611H251.276V316.858Z" fill="#F7CB3B"/>
<path d="M251.724 247.754H297.815V183.506H251.724V247.754Z" fill="#F7CB3B"/>
<path d="M262.129 174.516H287.486V76.6511H262.129V174.516Z" fill="#F7CB3B"/>
<path d="M1474.11 496.657C1474.31 527.074 1474.5 557.476 1474.7 587.893C1470.21 587.893 1465.72 587.893 1461.22 587.893C1461.22 658.523 1461.93 742.098 1461.93 812.728H1635.89L1635.18 183.9H1630.24V154.631H1616.17V132.482H1602.98V154.631H1550.24V183.9H1461.22V496.657C1465.51 496.657 1469.82 496.657 1474.11 496.657ZM1486.69 587.893C1486.9 557.476 1487.08 527.074 1487.29 496.657C1504.28 496.657 1521.26 496.657 1538.23 496.657C1538.23 527.074 1538.23 557.476 1538.23 587.893C1521.04 587.893 1503.87 587.893 1486.67 587.893H1486.69Z" fill="#2E99D5"/>
<path d="M1473.36 212.382L1623.75 212.382V198.141L1473.36 198.141V212.382Z" fill="#F7CB3B"/>
<path d="M1473.36 253.136L1623.75 253.136V238.895L1473.36 238.895V253.136Z" fill="#F7CB3B"/>
<path d="M1473.36 292.692H1623.75V278.451H1473.36V292.692Z" fill="#F7CB3B"/>
<path d="M1473.36 333.429H1623.75V319.188H1473.36V333.429Z" fill="#F7CB3B"/>
<path d="M1473.36 374.954H1623.75V360.713H1473.36V374.954Z" fill="#F7CB3B"/>
<path d="M1556.82 478.725H1623.03V405.421H1556.82V478.725Z" fill="#F7CB3B"/>
<path d="M1473.96 478.725H1540.17V405.421H1473.96V478.725Z" fill="white" stroke="#616AB1" stroke-width="0.2" stroke-linejoin="round"/>
<path d="M1555.62 526.188H1623.34V495.065H1555.62V526.188Z" fill="white" stroke="#616AB1" stroke-width="0.2" stroke-linejoin="round"/>
<path d="M1594 585.793H1623.66V533.047H1594V585.793Z" fill="#EF456E"/>
<path d="M1555.77 586.056H1585.44V533.309H1555.77V586.056Z" fill="#EF456E"/>
<path d="M347.879 336.021C352.894 296.596 388.283 265.424 432.621 261.7V214.072H450.95V261.749C495.064 265.654 530.229 296.744 535.207 336.021H561.553V768.939H324.236V336.021H347.86H347.879Z" fill="#2E99D5"/>
<path d="M497.265 403.074H535.227V361.435H497.265V403.074Z" fill="#FFD340"/>
<path d="M448.339 403.271H486.301V361.632H448.339V403.271Z" fill="white"/>
<path d="M397.959 403.074H435.921V361.435H397.959V403.074Z" fill="#FFD340"/>
<path d="M348.792 403.452H386.754V361.812H348.792V403.452Z" fill="#FFD340"/>
<path d="M497.059 452.327H535.021V410.687H497.059V452.327Z" fill="white"/>
<path d="M396.692 452.704H485.854V411.064H396.692V452.704Z" fill="white"/>
<path d="M348.362 452.917H386.324V411.278H348.362V452.917Z" fill="#FFD340"/>
<path d="M497.059 500.906H535.021V459.267H497.059V500.906Z" fill="white"/>
<path d="M447.668 501.497H485.63V459.857H447.668V501.497Z" fill="#FFD340"/>
<path d="M348.362 501.497H386.324V459.857H348.362V501.497Z" fill="white"/>
<path d="M448.711 551.307H534.293V509.667H448.711V551.307Z" fill="white"/>
<path d="M397.01 550.175H434.972V461.235H397.01V550.175Z" fill="white"/>
<path d="M347.935 550.158H385.896V508.519H347.935V550.158Z" fill="#FFD340"/>
<path d="M1226.15 345.947C1226.15 335.545 1226.15 325.144 1226.15 314.742C1232.43 314.791 1238.71 314.84 1244.98 314.89V280.797H1256.41V314.988C1261.25 315.021 1266.1 315.07 1270.95 315.103C1277.68 325.39 1284.43 335.677 1291.16 345.98H1307.59V810.972H1103.33V345.947H1226.11H1226.15Z" fill="#2E99D5"/>
<path d="M1293.98 361.385H1257.73V398.431H1293.98V361.385Z" fill="white"/>
<path d="M1246.02 361.894H1209.78V398.94H1246.02V361.894Z" fill="white"/>
<path d="M1199.24 362.239H1162.99V399.284H1199.24V362.239Z" fill="white"/>
<path d="M1152.87 362.583H1116.62V399.629H1152.87V362.583Z" fill="white"/>
<path d="M1246.41 405.716H1210.17V442.762H1246.41V405.716Z" fill="white"/>
<path d="M1199.63 406.06H1163.39V443.106H1199.63V406.06Z" fill="white"/>
<path d="M1153.24 406.405H1117V443.451H1153.24V406.405Z" fill="white"/>
<path d="M1295.34 450.735H1257.34V487.781H1295.34V450.735Z" fill="white"/>
<path d="M1246.36 450.784H1210.11V487.83H1246.36V450.784Z" fill="white"/>
<path d="M1200.1 451.129H1163.85V488.175H1200.1V451.129Z" fill="white"/>
<path d="M1294.78 494.13H1258.53V531.176H1294.78V494.13Z" fill="white"/>
<path d="M1200.06 494.983H1163.81V532.029H1200.06V494.983Z" fill="white"/>
<path d="M1153.67 495.328H1117.42V532.374H1153.67V495.328Z" fill="white"/>
<path d="M1295.17 537.936H1258.92V574.981H1295.17V537.936Z" fill="white"/>
<path d="M1247.23 538.461H1210.99V575.506H1247.23V538.461Z" fill="white"/>
<path d="M1200.45 538.805H1164.21V575.851H1200.45V538.805Z" fill="white"/>
<path d="M1154.06 539.15H1117.82V576.196H1154.06V539.15Z" fill="white"/>
<path d="M1296.14 583.48H1258.14V620.526H1296.14V583.48Z" fill="white"/>
<path d="M1247.16 583.529H1210.91V620.575H1247.16V583.529Z" fill="white"/>
<path d="M1154.01 584.218H1117.76V621.264H1154.01V584.218Z" fill="white"/>
<path d="M1258.12 442.237H1294.37V405.191H1258.12V442.237Z" fill="#F6C82F"/>
<path d="M1116.94 488.519H1153.19V451.473H1116.94V488.519Z" fill="#F6C82F"/>
<path d="M1210.59 531.685H1246.84V494.639H1210.59V531.685Z" fill="#F6C82F"/>
<path d="M1164.67 620.92H1200.92V583.874H1164.67V620.92Z" fill="#F6C82F"/>
<path d="M1294.27 409.719V382.189H1305.33V409.719H1460.18V382.189H1471.25V409.719H1482.68V848.379H1285.1V409.719H1294.27Z" fill="#2E99D5"/>
<path d="M1402.7 450.768H1464.95V427.061H1402.7V450.768Z" fill="#FFD340"/>
<path d="M1329.83 450.686H1392.09V426.979H1329.83V450.686Z" fill="white" stroke="#616AB1" stroke-width="0.2" stroke-linejoin="round"/>
<path d="M1402.04 485.943H1464.3V462.236H1402.04V485.943Z" fill="white" stroke="#616AB1" stroke-width="0.2" stroke-linejoin="round"/>
<path d="M1330.65 520.233H1392.91V496.526H1330.65V520.233Z" fill="white" stroke="#5F68B0" stroke-width="0.2" stroke-linejoin="round"/>
<path d="M1401.91 552.521H1464.17V528.814H1401.91V552.521Z" fill="#EF456B"/>
<path d="M1330.89 552.849H1393.15V529.142H1330.89V552.849Z" fill="white"/>
<path d="M1402.17 520.135H1464.43V496.427H1402.17V520.135Z" fill="white" stroke="#616AB1" stroke-width="0.2" stroke-linejoin="round"/>
<path d="M1329.76 485.615H1392.01V461.908H1329.76V485.615Z" fill="#FFD240"/>
<path d="M1300.17 812.531H1464.58V567.09H1300.17V812.531Z" fill="#FFD240"/>
<mask id="mask0_330_83" style="mask-type:luminance" maskUnits="userSpaceOnUse" x="1300" y="567" width="165" height="246">
<path d="M1300.17 812.531H1464.58V567.09H1300.17V812.531Z" fill="white"/>
</mask>
<g mask="url(#mask0_330_83)">
<path d="M1419.23 619.443C1422.22 628.089 1420.09 637.572 1422.78 646.284C1426.11 657.08 1436.39 665.184 1447.41 670.763C1458.43 676.341 1470.58 680.065 1481.41 685.889C1492.75 691.976 1502.61 700.343 1514.92 704.773C1527.23 709.203 1543.67 708.268 1550.98 698.506C1554.88 693.305 1555.38 686.71 1555.04 680.492C1553.76 655.8 1541.43 632.617 1527.21 611.305C1502.56 574.44 1461.63 540.807 1408.68 549.289C1393.76 551.684 1369.19 560.101 1375.04 577.049C1381.36 595.326 1412.43 599.804 1419.23 619.459V619.443Z" fill="#EF456E"/>
<path d="M1396.8 769.251C1375.42 799.865 1384.72 848.691 1417.8 860.848C1448.06 871.988 1490.08 849.429 1503.32 818.634C1515.18 791.055 1506.4 751.121 1474.55 739.784C1445.5 729.448 1411.64 748.021 1396.82 769.234L1396.8 769.251Z" fill="#EF456E"/>
<path d="M1280.75 650.419C1281.09 624.119 1283.22 612.864 1293.02 605.153C1310.77 591.224 1342.92 597.36 1361.9 607.04C1380.56 616.572 1401.15 636.949 1397.85 658.901C1396.91 665.119 1394.34 670.024 1392.23 673.273C1392.23 673.273 1387.16 683.035 1389.49 688.416C1389.49 688.432 1389.53 688.482 1389.55 688.564C1389.75 689.039 1390.37 690.483 1390.93 692.436C1391.13 693.141 1391.32 693.945 1391.49 694.88C1392.09 698.342 1392.59 701.213 1390.76 703.329C1388.82 705.594 1385.22 705.84 1383.01 706.004C1380.75 706.168 1378.87 705.856 1377.65 705.561C1375.94 707.021 1374.15 709.105 1373.91 711.73C1373.61 714.863 1375.71 716.75 1374.6 718.03C1372.97 719.884 1366.67 717.997 1366.58 718.341C1366.5 718.62 1371.13 718.948 1372.15 721.13C1372.99 722.902 1370.81 724.149 1369.24 727.857C1366.9 733.485 1369.67 736.126 1366.91 740.785C1366.91 740.785 1365.29 743.132 1362.7 745.133C1357.98 748.759 1333.91 735.601 1319.37 739.752C1304.02 744.132 1305.44 765.986 1298.45 766.363C1287.43 766.954 1280.03 703.969 1280.72 650.419H1280.75Z" fill="white" stroke="#EF456B" stroke-width="0.2" stroke-linejoin="round"/>
</g>
<path d="M1318.66 553.899H1321.1V427.143H1318.66V553.899Z" fill="#EF456B"/>
<path d="M1314.13 553.899H1316.57V427.143H1314.13V553.899Z" fill="#EF456B"/>
<path d="M1309.62 553.899H1312.06V427.143H1309.62V553.899Z" fill="#EF456B"/>
<path d="M1305.28 553.899H1307.72V427.143H1305.28V553.899Z" fill="#EF456B"/>
<path d="M1300.56 553.899H1303V427.143H1300.56V553.899Z" fill="#EF456B"/>
<path d="M1355.77 599.788C1356.01 599.87 1357.15 600.329 1356.96 604.464C1356.38 618.376 1342.73 632.601 1347.64 645.037C1348.68 647.695 1349.31 647.039 1350.77 650.467C1354.87 660.098 1351.65 669.319 1350.41 673.076C1346.03 686.48 1335.39 693.912 1331.53 696.356C1327.44 699.671 1321.5 700.803 1316.01 699.31C1310.29 697.751 1305.98 693.584 1304.88 688.547C1303.78 684.495 1301.34 673.108 1307.62 660.64C1309.49 656.948 1314.02 648.089 1324.4 642.74C1328.38 640.689 1328.28 641.69 1331 640.115C1343.48 632.847 1341.41 613.963 1351.16 602.889C1351.98 601.954 1354.31 599.296 1355.77 599.771V599.788Z" fill="#EF456E"/>
<path d="M1354.74 601.839C1355.69 602.134 1350.79 616.801 1348.9 622.445C1346.42 629.861 1344.19 635.915 1342.66 639.951C1344.13 641.739 1346.01 644.43 1347.45 647.974C1351.29 657.572 1348.68 666.037 1347.88 668.679C1343.12 684.15 1324.74 699.31 1315.53 695.979C1306.62 692.763 1305.46 672.009 1313.09 658.638C1318.38 649.352 1328.1 643.331 1328.84 642.888C1332.29 640.788 1335.48 639.442 1337.83 638.589C1339.34 634.668 1341.65 628.811 1344.73 621.805C1345.47 620.099 1353.66 601.527 1354.74 601.855V601.839Z" fill="#F3F5F6"/>
<path d="M1336.64 649.729C1342.62 651.911 1343.35 664.118 1339.66 672.731C1336.26 680.656 1327.44 689.417 1321.18 687.776C1314.93 686.135 1312.53 674.487 1315.53 665.873C1318.98 656.029 1330.48 647.482 1336.65 649.729H1336.64Z" fill="#EF456E"/>
<path d="M519.377 351.312V847.739H754.102H966.994V847.723H1154.08V595.801H1137.43V582.889H1144.37V579.953H1059.1L967.311 579.936V582.873H975.403V595.801H966.994V505.303H936.695V491.522H944.34V488.273H850.405L754.102 488.257V351.312H736.613V328.901H656.513V351.312H519.396H519.377ZM988.231 582.857V595.785H979.113V582.857H988.231ZM1000.31 582.857V595.785H991.941V582.857H1000.31ZM1012.28 582.857V595.785H1004.02V582.857H1012.28ZM1023.81 582.857V595.785H1016.01V582.857H1023.81ZM1035.48 582.857V595.785H1027.52V582.857H1035.48ZM1048.44 582.857V595.785H1039.21V582.857H1048.44ZM1060.65 582.873V595.785H1052.15V582.857H1052.58L1060.67 582.873H1060.65ZM1073.48 582.873V595.785H1064.36V582.873H1073.48ZM1085.58 582.873V595.785H1077.21V582.873H1085.58ZM1097.55 582.873V595.785H1089.29V582.873H1097.55ZM1109.07 582.873V595.785H1101.28V582.873H1109.07ZM1120.74 582.873V595.785H1112.78V582.873H1120.74ZM1133.7 595.785H1124.47V582.873H1133.7V595.785ZM772.319 491.489V505.287H762.269V491.489H772.319ZM785.631 491.489V505.287H776.402V491.489H785.631ZM798.832 491.489V505.287H789.733V491.489H798.832ZM811.511 491.489V505.287H802.915V491.489H811.511ZM824.395 491.489V505.287H815.613V491.489H824.395ZM838.658 491.489V505.287H828.478V491.489H838.658ZM852.12 491.505V505.287H842.742V491.489H843.208L852.12 491.505ZM866.253 491.505V505.287H856.204V491.505H866.253ZM879.585 491.505V505.287H870.355V491.505H879.585ZM892.767 491.505V505.287H883.668V491.505H892.767ZM905.446 491.505V505.287H896.85V491.505H905.446ZM918.33 491.505V505.287H909.548V491.505H918.33ZM932.593 505.287H922.413V491.505H932.593V505.287ZM754.084 505.287V491.489H758.167V505.287H754.084Z" fill="#2E99D5"/>
<path d="M583.069 286.441H540.036V337.613H583.069V286.441Z" fill="#3D7CBD"/>
<path d="M572.329 371.902H537.724V397.726H572.329V371.902Z" fill="white"/>
<path d="M609.844 371.295H575.238V397.119H609.844V371.295Z" fill="#F7CB3B"/>
<path d="M572.329 400.548H537.724V426.372H572.329V400.548Z" fill="white"/>
<path d="M609.844 399.941H575.238V425.764H609.844V399.941Z" fill="#F7CB3B"/>
<path d="M572.329 429.177H537.724V455.001H572.329V429.177Z" fill="white"/>
<path d="M609.844 428.586H575.238V454.41H609.844V428.586Z" fill="#F7CB3B"/>
<path d="M572.329 486.452H537.724V512.276H572.329V486.452Z" fill="white"/>
<path d="M609.844 485.861H575.238V511.685H609.844V485.861Z" fill="#F7CB3B"/>
<path d="M572.329 457.823H537.724V483.647H572.329V457.823Z" fill="white"/>
<path d="M609.844 457.216H575.238V483.04H609.844V457.216Z" fill="#F7CB3B"/>
<path d="M572.329 515.098H537.724V540.922H572.329V515.098Z" fill="white"/>
<path d="M609.844 514.491H575.238V540.315H609.844V514.491Z" fill="#F7CB3B"/>
<path d="M572.329 543.744H537.724V569.567H572.329V543.744Z" fill="white"/>
<path d="M609.844 543.136H575.238V568.96H609.844V543.136Z" fill="#F7CB3B"/>
<path d="M572.329 601.019H537.724V626.842H572.329V601.019Z" fill="white"/>
<path d="M609.844 600.411H575.238V626.235H609.844V600.411Z" fill="#F7CB3B"/>
<path d="M572.329 572.373H537.724V598.197H572.329V572.373Z" fill="white"/>
<path d="M609.844 571.766H575.238V597.59H609.844V571.766Z" fill="#F7CB3B"/>
<path d="M572.329 657.752H537.724V683.576H572.329V657.752Z" fill="white"/>
<path d="M609.844 657.687H575.238V683.51H609.844V657.687Z" fill="#F7CB3B"/>
<path d="M572.329 629.648H537.724V655.472H572.329V629.648Z" fill="white"/>
<path d="M609.844 629.057H575.238V654.881H609.844V629.057Z" fill="#F7CB3B"/>
<path d="M572.329 686.398H537.724V712.222H572.329V686.398Z" fill="white"/>
<path d="M609.844 686.332H575.238V712.156H609.844V686.332Z" fill="#F7CB3B"/>
<path d="M572.329 715.027H537.724V740.851H572.329V715.027Z" fill="white"/>
<path d="M609.844 714.962H575.238V740.785H609.844V714.962Z" fill="#F7CB3B"/>
<path d="M572.329 772.302H537.724V798.126H572.329V772.302Z" fill="white"/>
<path d="M609.844 772.253H575.238V798.077H609.844V772.253Z" fill="#F7CB3B"/>
<path d="M670.982 397.759H636.376V423.582H670.982V397.759Z" fill="white"/>
<path d="M711.48 371.032H676.874V396.856H711.48V371.032Z" fill="#F7CB3B"/>
<path d="M670.982 451.227H636.376V477.051H670.982V451.227Z" fill="white"/>
<path d="M711.48 424.501H676.874V450.325H711.48V424.501Z" fill="#F7CB3B"/>
<path d="M670.982 504.696H636.376V530.52H670.982V504.696Z" fill="white"/>
<path d="M711.48 477.97H676.874V503.794H711.48V477.97Z" fill="#F7CB3B"/>
<path d="M670.982 558.165H636.376V583.989H670.982V558.165Z" fill="white"/>
<path d="M711.48 531.439H676.874V557.262H711.48V531.439Z" fill="#F7CB3B"/>
<path d="M670.982 611.633H636.376V637.457H670.982V611.633Z" fill="white"/>
<path d="M711.48 584.891H676.874V610.715H711.48V584.891Z" fill="#F7CB3B"/>
<path d="M670.982 665.102H636.376V690.926H670.982V665.102Z" fill="white"/>
<path d="M711.48 638.36H676.874V664.183H711.48V638.36Z" fill="#F7CB3B"/>
<path d="M670.982 718.571H636.376V744.395H670.982V718.571Z" fill="white"/>
<path d="M711.48 691.828H676.874V717.652H711.48V691.828Z" fill="#F7CB3B"/>
<path d="M670.982 772.04H636.376V797.863H670.982V772.04Z" fill="white"/>
<path d="M711.48 745.297H676.874V771.121H711.48V745.297Z" fill="#F7CB3B"/>
<path d="M572.329 743.673H537.724V769.497H572.329V743.673Z" fill="white"/>
<path d="M609.844 743.607H575.238V769.431H609.844V743.607Z" fill="#F7CB3B"/>
<path d="M898.044 524.039H863.438V549.863H898.044V524.039Z" fill="white"/>
<path d="M938.561 523.974H903.955V549.797H938.561V523.974Z" fill="#F7CB3B"/>
<path d="M897.056 575.736H862.45V601.56H897.056V575.736Z" fill="white"/>
<path d="M937.572 575.687H902.967V601.511H937.572V575.687Z" fill="#F7CB3B"/>
<path d="M899.013 633.487H864.407V659.311H899.013V633.487Z" fill="white"/>
<path d="M939.529 633.421H904.924V659.245H939.529V633.421Z" fill="#F7CB3B"/>
<path d="M899.013 693.814H864.407V719.637H899.013V693.814Z" fill="white"/>
<path d="M939.529 693.748H904.924V719.572H939.529V693.748Z" fill="#F7CB3B"/>
<path d="M900.318 751.171H865.713V776.994H900.318V751.171Z" fill="white"/>
<path d="M940.817 751.105H906.211V776.929H940.817V751.105Z" fill="#F7CB3B"/>
<path d="M800.1 524.039H765.494V549.863H800.1V524.039Z" fill="white" stroke="#616AB1" stroke-width="0.2" stroke-linejoin="round"/>
<path d="M840.616 523.974H806.011V549.797H840.616V523.974Z" fill="#F7CB3B"/>
<path d="M799.111 575.736H764.506V601.56H799.111V575.736Z" fill="white" stroke="#616AB1" stroke-width="0.2" stroke-linejoin="round"/>
<path d="M839.628 575.687H805.022V601.511H839.628V575.687Z" fill="#F7CB3B"/>
<path d="M801.068 633.487H766.463V659.311H801.068V633.487Z" fill="white" stroke="#616AB1" stroke-width="0.2" stroke-linejoin="round"/>
<path d="M841.585 633.421H806.979V659.245H841.585V633.421Z" fill="#F7CB3B"/>
<path d="M801.068 693.814H766.463V719.637H801.068V693.814Z" fill="white" stroke="#616AB1" stroke-width="0.2" stroke-linejoin="round"/>
<path d="M841.585 693.748H806.979V719.572H841.585V693.748Z" fill="#F7CB3B"/>
<path d="M802.374 751.171H767.769V776.994H802.374V751.171Z" fill="white" stroke="#616AB1" stroke-width="0.2" stroke-linejoin="round"/>
<path d="M842.873 751.105H808.268V776.929H842.873V751.105Z" fill="#F7CB3B"/>
<path d="M1126.47 620.936H975.626V817.436H1126.47V620.936Z" fill="#EF456E"/>
<path d="M585.008 335.365H537.313V342.912H585.008V335.365Z" fill="#3D7CBD"/>
<path d="M544.679 342.436H540.54V353.035H544.679V342.436Z" fill="#3D7CBD"/>
<path d="M582.92 342.748H578.78V353.346H582.92V342.748Z" fill="#3D7CBD"/>
</g>
<g style="mix-blend-mode:overlay" opacity="0.49">
<path d="M1635.91 812.728L1635.2 183.9H1630.26V154.631H1616.18V132.482H1603V154.631H1550.25V183.9H1461.24V382.173H1460.22V409.719H1307.64V345.947H1291.22C1284.49 335.66 1277.74 325.373 1271 315.07C1266.16 315.037 1261.31 314.988 1256.46 314.955V280.764H1245.03V314.857C1238.75 314.808 1232.46 314.758 1226.2 314.709V345.914H1103.42V579.903H1059.16L967.367 579.887V582.824H975.459V595.752H967.05V505.254H936.751V491.472H944.396V488.224H850.461L754.158 488.208V351.263H736.669V328.851H656.569V351.263H582.976V342.879H585.083V335.332H583.144V286.408H540.11V335.332H537.388V335.988H535.281C530.284 296.711 495.119 265.621 451.023 261.716V214.039H432.695V261.667C397.027 264.669 367.176 285.424 354.236 313.954H347.673V174.926H320.954V60.786H306.933C306.933 60.786 297.89 25.43 293.21 4.76837e-06H258.94C254.204 25.2496 244.285 60.8352 244.285 60.8352H231.401V174.959H203.526V313.987H164.017V505.927H142.071V812.35H409.295V768.955H519.377V847.739H966.994L1154.08 847.723V810.956H1285.1V848.379H1399.77C1404.64 853.892 1410.66 858.239 1417.82 860.864C1436.78 867.837 1460.35 861.586 1478.58 848.379H1482.7V845.18C1491.69 837.78 1499.04 828.658 1503.34 818.667C1504.16 816.747 1504.87 814.779 1505.51 812.761H1635.93L1635.91 812.728ZM578.781 351.312H561.552V342.928H578.781V351.312ZM922.413 491.505H932.593V505.287H922.413V491.505ZM909.548 491.505H918.329V505.287H909.548V491.505ZM896.85 491.505H905.446V505.287H896.85V491.505ZM883.668 491.505H892.767V505.287H883.668V491.505ZM870.355 491.505H879.585V505.287H870.355V491.505ZM828.478 491.489H838.658V505.287H828.478V491.489ZM815.613 491.489H824.395V505.287H815.613V491.489ZM789.733 491.489H798.832V505.287H789.733V491.489ZM776.402 491.489H785.631V505.287H776.402V491.489ZM758.185 505.287H754.102V491.489H758.185V505.287ZM762.269 491.489H772.318V505.287H762.269V491.489ZM802.915 491.489H811.511V505.287H802.915V491.489ZM852.12 505.287H842.742V491.489H843.208L852.12 491.505V505.287ZM856.203 491.505H866.253V505.287H856.203V491.505ZM1101.26 582.873H1103.37V595.785H1101.26V582.873ZM1089.29 582.873H1097.55V595.785H1089.29V582.873ZM1077.21 582.873H1085.58V595.785H1077.21V582.873ZM1064.36 582.873H1073.48V595.785H1064.36V582.873ZM1052.15 582.857H1052.58L1060.67 582.873V595.785H1052.17V582.857H1052.15ZM1039.19 582.857H1048.42V595.785H1039.19V582.857ZM1027.52 582.857H1035.48V595.785H1027.52V582.857ZM1015.99 582.857H1023.79V595.785H1015.99V582.857ZM1004.02 582.857H1012.28V595.785H1004.02V582.857ZM991.941 582.857H1000.31V595.785H991.941V582.857ZM979.094 582.857H988.212V595.785H979.094V582.857ZM1486.82 568.714C1486.97 544.695 1487.14 520.676 1487.29 496.657H1538.23V587.893H1508.66C1502.04 580.855 1494.75 574.358 1486.8 568.714H1486.82Z" fill="#496F75"/>
</g>
<g opacity="0.89">
<path d="M1730.7 670.237V456.707H1686.76V302.043H1655.73V175.074H1641.41C1641.41 175.074 1630.39 135.485 1625.11 107.397H1586.98C1581.76 135.682 1571.81 175.024 1571.81 175.024H1556.22V302.043H1526.5V456.707H1485.14V670.237H1457.87V1011.13H1755.15V670.237H1730.74H1730.7Z" fill="#2FA0DA"/>
<path d="M1605.18 679.343H1549.17V762.344H1605.18V679.343Z" fill="#F6C93B"/>
<path d="M1665.5 679.589H1609.49V762.589H1665.5V679.589Z" fill="#F6C93B"/>
<path d="M1605.18 785.067H1549.17V868.067H1605.18V785.067Z" fill="#F6C93B"/>
<path d="M1665.5 785.313H1609.49V868.313H1665.5V785.313Z" fill="#F6C93B"/>
<path d="M1605.18 897.812H1549.17V980.812H1605.18V897.812Z" fill="#F6C93B"/>
<path d="M1665.5 898.042H1609.49V981.042H1665.5V898.042Z" fill="#F6C93B"/>
<path d="M1655.15 602.987H1561.24V665.529H1655.15V602.987Z" fill="#EF4471"/>
<path d="M1656.16 534.851H1562.24V597.393H1656.16V534.851Z" fill="#EF4471"/>
<path d="M1655 466.354H1561.09V528.896H1655V466.354Z" fill="#EF4471"/>
<path d="M1633.62 388.456H1582.34V459.923H1633.62V388.456Z" fill="#F6C93B"/>
<path d="M1633.11 311.575H1581.84V383.042H1633.11V311.575Z" fill="#F6C93B"/>
<path d="M1621.57 192.694H1593.34V301.567H1621.57V192.694Z" fill="#F6C93B"/>
<path d="M287.597 659.951V312.018H188.572V279.451H129.896V254.809H115.222V279.451H99.5599V312.018H94.0596L93.2578 1011.57H286.796C286.796 933.004 287.597 840.028 287.597 761.457H272.588C272.812 727.627 273.035 693.797 273.259 659.967C278.032 659.967 282.824 659.967 287.597 659.967V659.951ZM201.904 761.441V659.934H258.585C258.809 693.764 259.033 727.611 259.257 761.441H201.904Z" fill="#2FA0DA"/>
<path d="M274.078 327.851H106.774V343.699H274.078V327.851Z" fill="#F6C93B"/>
<path d="M274.078 373.182H106.774V389.03H274.078V373.182Z" fill="#F6C93B"/>
<path d="M274.078 417.184H106.774V433.033H274.078V417.184Z" fill="#F6C93B"/>
<path d="M274.078 462.515H106.774V478.364H274.078V462.515Z" fill="#F6C93B"/>
<path d="M274.078 508.716H106.774V524.564H274.078V508.716Z" fill="#F6C93B"/>
<path d="M181.227 558.444H107.578V640H181.227V558.444Z" fill="#F6C93B"/>
<path d="M273.409 558.444H199.76V640H273.409V558.444Z" fill="white" stroke="#616AB1" stroke-width="0.2" stroke-linejoin="round"/>
<path d="M182.568 658.179H107.223V692.796H182.568V658.179Z" fill="white" stroke="#616AB1" stroke-width="0.2" stroke-linejoin="round"/>
<path d="M139.89 700.425H106.888V759.095H139.89V700.425Z" fill="#EF4471"/>
<path d="M182.401 700.721H149.398V759.39H182.401V700.721Z" fill="#EF4471"/>
<path d="M1526.16 481.235C1520.59 437.38 1481.21 402.697 1431.89 398.546V345.553H1411.5V398.595C1362.42 402.943 1323.3 437.528 1317.75 481.235H1288.44V962.847H1552.45V481.235H1526.16Z" fill="#2FA0DA"/>
<path d="M1359.98 509.52H1317.75V555.835H1359.98V509.52Z" fill="#FFD240"/>
<path d="M1414.4 509.716H1372.17V556.032H1414.4V509.716Z" fill="white"/>
<path d="M1470.45 509.503H1428.22V555.819H1470.45V509.503Z" fill="#FFD240"/>
<path d="M1525.14 509.93H1482.91V556.245H1525.14V509.93Z" fill="#FFD240"/>
<path d="M1360.2 564.301H1317.97V610.616H1360.2V564.301Z" fill="white"/>
<path d="M1471.83 564.727H1372.66V611.043H1471.83V564.727Z" fill="white"/>
<path d="M1525.62 564.941H1483.39V611.256H1525.62V564.941Z" fill="#FFD240"/>
<path d="M1360.2 618.344H1317.97V664.659H1360.2V618.344Z" fill="white"/>
<path d="M1415.15 619H1372.92V665.315H1415.15V619Z" fill="#FFD240"/>
<path d="M1525.62 618.984H1483.39V665.299H1525.62V618.984Z" fill="white"/>
<path d="M1413.99 674.421H1318.79V720.737H1413.99V674.421Z" fill="white"/>
<path d="M1471.52 620.526H1429.28V719.457H1471.52V620.526Z" fill="white"/>
<path d="M1526.11 673.141H1483.88V719.457H1526.11V673.141Z" fill="#FFD240"/>
<path d="M549.097 492.276V457.56C542.105 457.61 535.132 457.675 528.14 457.724V419.793H515.424V457.823C510.036 457.872 504.628 457.905 499.24 457.954C491.745 469.406 484.249 480.841 476.754 492.293H458.481V1009.59H685.711V492.293H549.116L549.097 492.276Z" fill="#2FA0DA"/>
<path d="M513.988 509.454H473.658V550.667H513.988V509.454Z" fill="white"/>
<path d="M567.315 510.028H526.985V551.241H567.315V510.028Z" fill="white"/>
<path d="M619.353 510.406H579.023V551.619H619.353V510.406Z" fill="white"/>
<path d="M670.963 510.783H630.634V551.996H670.963V510.783Z" fill="white"/>
<path d="M566.886 558.772H526.557V599.985H566.886V558.772Z" fill="white"/>
<path d="M618.924 559.149H578.595V600.362H618.924V559.149Z" fill="white"/>
<path d="M670.536 559.526H630.206V600.74H670.536V559.526Z" fill="white"/>
<path d="M514.417 608.844H472.13V650.057H514.417V608.844Z" fill="white"/>
<path d="M566.961 608.91H526.631V650.123H566.961V608.91Z" fill="white"/>
<path d="M618.421 609.287H578.091V650.5H618.421V609.287Z" fill="white"/>
<path d="M513.076 657.112H472.746V698.325H513.076V657.112Z" fill="white"/>
<path d="M618.459 658.08H578.129V699.293H618.459V658.08Z" fill="white"/>
<path d="M670.05 658.458H629.721V699.671H670.05V658.458Z" fill="white"/>
<path d="M512.646 705.872H472.316V747.085H512.646V705.872Z" fill="white"/>
<path d="M565.991 706.43H525.661V747.643H565.991V706.43Z" fill="white"/>
<path d="M618.011 706.824H577.682V748.037H618.011V706.824Z" fill="white"/>
<path d="M669.622 707.201H629.292V748.414H669.622V707.201Z" fill="white"/>
<path d="M513.523 756.519H471.235V797.732H513.523V756.519Z" fill="white"/>
<path d="M566.047 756.585H525.717V797.798H566.047V756.585Z" fill="white"/>
<path d="M669.696 757.339H629.366V798.552H669.696V757.339Z" fill="white"/>
<path d="M513.542 558.198H473.212V599.411H513.542V558.198Z" fill="#F6C62F"/>
<path d="M670.589 609.681H630.26V650.894H670.589V609.681Z" fill="#F6C62F"/>
<path d="M566.42 657.686H526.09V698.9H566.42V657.686Z" fill="#F6C62F"/>
<path d="M617.506 756.962H577.177V798.175H617.506V756.962Z" fill="#F6C62F"/>
<path d="M473.323 563.218V532.587H461.017V563.218H288.735V532.587H276.429V563.218H263.713V1051.21H483.522V563.218H473.323Z" fill="#2FA0DA"/>
<path d="M352.689 582.496H283.422V608.861H352.689V582.496Z" fill="#FFD240"/>
<path d="M433.757 582.414H364.49V608.779H433.757V582.414Z" fill="white" stroke="#616AB1" stroke-width="0.2" stroke-linejoin="round"/>
<path d="M353.434 621.641H284.167V648.007H353.434V621.641Z" fill="white" stroke="#616AB1" stroke-width="0.2" stroke-linejoin="round"/>
<path d="M432.863 659.786H363.596V686.152H432.863V659.786Z" fill="white" stroke="#5F68B0" stroke-width="0.2" stroke-linejoin="round"/>
<path d="M353.583 695.717H284.315V722.082H353.583V695.717Z" fill="#EF446E"/>
<path d="M432.583 696.094H363.315V722.459H432.583V696.094Z" fill="white"/>
<path d="M353.303 659.672H284.036V686.037H353.303V659.672Z" fill="white" stroke="#616AB1" stroke-width="0.2" stroke-linejoin="round"/>
<path d="M433.85 621.281H364.583V647.646H433.85V621.281Z" fill="#FFD140"/>
<path d="M466.76 738.292H283.85V1011.34H466.76V738.292Z" fill="#FFD140"/>
<mask id="mask1_330_83" style="mask-type:luminance" maskUnits="userSpaceOnUse" x="283" y="738" width="184" height="274">
<path d="M466.76 738.292H283.85V1011.34H466.76V738.292Z" fill="white"/>
</mask>
<g mask="url(#mask1_330_83)">
<path d="M334.304 796.535C330.985 806.149 333.353 816.698 330.369 826.394C326.659 838.404 315.23 847.411 302.98 853.629C290.73 859.847 277.212 863.982 265.13 870.462C252.507 877.238 241.543 886.54 227.858 891.462C214.172 896.384 195.881 895.351 187.752 884.49C183.426 878.698 182.867 871.364 183.221 864.441C184.657 836.977 198.361 811.169 214.191 787.478C241.618 746.462 287.131 709.055 346.05 718.489C362.644 721.147 389.978 730.515 383.471 749.382C376.442 769.726 341.874 774.698 334.322 796.551L334.304 796.535Z" fill="#EF4471"/>
<path d="M359.251 963.192C383.042 997.235 372.676 1051.56 335.907 1065.11C302.234 1077.5 255.49 1052.41 240.779 1018.15C227.597 987.473 237.348 943.044 272.793 930.444C305.105 918.943 342.769 939.599 359.27 963.208L359.251 963.192Z" fill="#EF4471"/>
<path d="M488.37 830.988C487.997 801.735 485.629 789.201 474.722 780.637C454.976 765.132 419.215 771.974 398.09 782.737C377.319 793.335 354.441 816.025 358.095 840.438C359.14 847.362 361.992 852.825 364.342 856.435C364.342 856.435 369.991 867.279 367.381 873.284C367.381 873.3 367.343 873.366 367.306 873.448C367.082 873.973 366.393 875.581 365.777 877.763C365.554 878.55 365.33 879.436 365.162 880.486C364.491 884.342 363.931 887.525 365.964 889.887C368.127 892.414 372.117 892.693 374.578 892.857C377.095 893.037 379.165 892.693 380.526 892.365C382.428 893.989 384.423 896.302 384.702 899.239C385.019 902.734 382.689 904.834 383.919 906.261C385.728 908.328 392.738 906.228 392.832 906.606C392.906 906.917 387.76 907.278 386.623 909.706C385.69 911.675 388.133 913.07 389.848 917.188C392.477 923.439 389.364 926.375 392.44 931.56C392.44 931.56 394.23 934.168 397.139 936.383C402.378 940.403 429.171 925.785 445.337 930.395C462.397 935.268 460.831 959.582 468.625 959.992C480.875 960.648 489.134 890.593 488.351 831.021L488.37 830.988Z" fill="white" stroke="#EF446E" stroke-width="0.2" stroke-linejoin="round"/>
</g>
<path d="M446.193 582.61H443.471V723.624H446.193V582.61Z" fill="#EF446E"/>
<path d="M451.227 582.61H448.505V723.624H451.227V582.61Z" fill="#EF446E"/>
<path d="M456.262 582.61H453.54V723.624H456.262V582.61Z" fill="#EF446E"/>
<path d="M461.072 582.61H458.35V723.624H461.072V582.61Z" fill="#EF446E"/>
<path d="M466.33 582.61H463.607V723.624H466.33V582.61Z" fill="#EF446E"/>
<path d="M404.895 774.665C404.615 774.747 403.366 775.272 403.552 779.866C404.186 795.353 419.382 811.169 413.919 825.016C412.744 827.986 412.054 827.231 410.432 831.054C405.864 841.767 409.444 852.021 410.824 856.205C415.709 871.118 427.549 879.387 431.818 882.111C436.368 885.786 442.987 887.049 449.065 885.408C455.423 883.686 460.234 879.026 461.446 873.432C462.676 868.936 465.38 856.254 458.406 842.391C456.337 838.289 451.303 828.429 439.743 822.473C435.324 820.193 435.417 821.308 432.415 819.553C418.524 811.464 420.836 790.464 410.003 778.143C409.09 777.109 406.479 774.156 404.895 774.665Z" fill="#EF4471"/>
<path d="M406.051 776.945C405.006 777.257 410.451 793.598 412.539 799.865C415.299 808.117 417.779 814.844 419.494 819.34C417.872 821.325 415.746 824.327 414.18 828.265C409.892 838.945 412.8 848.363 413.695 851.283C418.99 868.493 439.426 885.359 449.681 881.651C459.581 878.075 460.886 854.991 452.384 840.11C446.492 829.774 435.678 823.08 434.858 822.588C431.017 820.258 427.474 818.765 424.845 817.814C423.167 813.45 420.594 806.936 417.163 799.143C416.324 797.24 407.244 776.584 406.032 776.945H406.051Z" fill="#F3F5F6"/>
<path d="M426.188 830.233C419.532 832.645 418.712 846.246 422.832 855.828C426.617 864.638 436.425 874.4 443.398 872.562C450.334 870.725 453.038 857.763 449.681 848.198C445.841 837.239 433.05 827.74 426.188 830.233Z" fill="#EF4471"/>
<path d="M1182.83 498.232V473.31H1093.73V498.232H1074.26V650.566H967.126V650.599H862.62V654.208H871.141V669.532H837.43V770.202H828.089V755.813H837.076V752.532H734.974L640.126 752.548V755.83H647.845V770.185H629.312V1050.44H837.43V1050.47H1335.39V498.199H1182.83V498.232ZM823.931 755.83V770.218H813.788V755.83H823.931ZM809.667 755.83V770.218H800.345V755.83H809.667ZM796.205 755.83V770.218H787.013V755.83H796.205ZM782.893 755.83V770.218H774.204V755.83H782.893ZM770.083 755.83V770.218H761.208V755.83H770.083ZM757.087 755.83V770.218H746.814V755.83H757.087ZM742.209 755.846L742.675 755.83V770.218H733.203V755.863H742.19L742.209 755.846ZM729.082 755.846V770.202H718.939V755.846H729.082ZM714.8 755.846V770.202H705.477V755.846H714.8ZM701.357 755.846V770.202H692.165V755.846H701.357ZM688.044 755.846V770.202H679.355V755.846H688.044ZM675.235 755.846V770.202H666.36V755.846H675.235ZM651.947 755.846H662.22V770.202H651.947V755.846ZM1065.16 654.192V669.548H1053.99V654.192H1065.16ZM1049.43 654.192V669.548H1039.15V654.192H1049.43ZM1034.62 654.192V669.548H1024.5V654.192H1034.62ZM1019.95 654.192V669.548H1010.38V654.192H1019.95ZM1005.83 654.192V669.548H996.064V654.192H1005.83ZM991.514 654.192V669.548H980.197V654.192H991.514ZM975.107 654.208L975.629 654.192V669.548H965.206V654.224H975.107V654.208ZM960.656 654.208V669.532H949.488V654.208H960.656ZM944.92 654.208V669.532H934.646V654.208H944.92ZM930.116 654.208V669.532H919.991V654.208H930.116ZM915.442 654.208V669.532H905.877V654.208H915.442ZM901.327 654.208V669.532H891.557V654.208H901.327ZM875.671 654.208H886.989V669.532H875.671V654.208ZM1069.71 669.548V654.192H1074.26V669.548H1069.71Z" fill="#2FA0DA"/>
<path d="M1312.4 426.076H1264.52V483.006H1312.4V426.076Z" fill="#3D7EBD"/>
<path d="M1276.47 549.879H1314.95V521.152H1276.47V549.879Z" fill="white"/>
<path d="M1234.72 549.207H1273.21V520.479H1234.72V549.207Z" fill="#F6C93B"/>
<path d="M1276.47 581.741H1314.95V553.013H1276.47V581.741Z" fill="white"/>
<path d="M1234.72 581.068H1273.21V552.34H1234.72V581.068Z" fill="#F6C93B"/>
<path d="M1276.47 613.602H1314.95V584.874H1276.47V613.602Z" fill="white"/>
<path d="M1234.72 612.929H1273.21V584.202H1234.72V612.929Z" fill="#F6C93B"/>
<path d="M1276.47 677.308H1314.95V648.581H1276.47V677.308Z" fill="white"/>
<path d="M1234.72 676.652H1273.21V647.924H1234.72V676.652Z" fill="#F6C93B"/>
<path d="M1276.47 645.447H1314.95V616.719H1276.47V645.447Z" fill="white"/>
<path d="M1234.72 644.791H1273.21V616.063H1234.72V644.791Z" fill="#F6C93B"/>
<path d="M1276.47 709.17H1314.95V680.442H1276.47V709.17Z" fill="white"/>
<path d="M1234.72 708.514H1273.21V679.786H1234.72V708.514Z" fill="#F6C93B"/>
<path d="M1276.47 741.048H1314.95V712.32H1276.47V741.048Z" fill="white"/>
<path d="M1234.72 740.359H1273.21V711.631H1234.72V740.359Z" fill="#F6C93B"/>
<path d="M1276.47 804.771H1314.95V776.043H1276.47V804.771Z" fill="white"/>
<path d="M1234.72 804.081H1273.21V775.354H1234.72V804.081Z" fill="#F6C93B"/>
<path d="M1276.47 772.909H1314.95V744.181H1276.47V772.909Z" fill="white"/>
<path d="M1234.72 772.22H1273.21V743.492H1234.72V772.22Z" fill="#F6C93B"/>
<path d="M1276.47 867.87H1314.95V839.142H1276.47V867.87Z" fill="white"/>
<path d="M1234.72 867.821H1273.21V839.093H1234.72V867.821Z" fill="#F6C93B"/>
<path d="M1276.47 836.632H1314.95V807.904H1276.47V836.632Z" fill="white"/>
<path d="M1234.72 835.959H1273.21V807.232H1234.72V835.959Z" fill="#F6C93B"/>
<path d="M1276.47 899.731H1314.95V871.003H1276.47V899.731Z" fill="white"/>
<path d="M1234.72 899.682H1273.21V870.954H1234.72V899.682Z" fill="#F6C93B"/>
<path d="M1276.47 931.592H1314.95V902.865H1276.47V931.592Z" fill="white"/>
<path d="M1234.72 931.527H1273.21V902.799H1234.72V931.527Z" fill="#F6C93B"/>
<path d="M1276.47 995.331H1314.95V966.604H1276.47V995.331Z" fill="white"/>
<path d="M1234.72 995.249H1273.21V966.522H1234.72V995.249Z" fill="#F6C93B"/>
<path d="M1166.74 578.656H1205.23V549.928H1166.74V578.656Z" fill="white"/>
<path d="M1121.66 548.895H1160.14V520.167H1121.66V548.895Z" fill="#F6C93B"/>
<path d="M1166.74 638.13H1205.23V609.402H1166.74V638.13Z" fill="white"/>
<path d="M1121.66 608.385H1160.14V579.657H1121.66V608.385Z" fill="#F6C93B"/>
<path d="M1166.74 697.62H1205.23V668.892H1166.74V697.62Z" fill="white"/>
<path d="M1121.66 667.858H1160.14V639.131H1121.66V667.858Z" fill="#F6C93B"/>
<path d="M1166.74 757.093H1205.23V728.365H1166.74V757.093Z" fill="white"/>
<path d="M1121.66 727.348H1160.14V698.62H1121.66V727.348Z" fill="#F6C93B"/>
<path d="M1166.74 816.583H1205.23V787.855H1166.74V816.583Z" fill="white"/>
<path d="M1121.66 786.822H1160.14V758.094H1121.66V786.822Z" fill="#F6C93B"/>
<path d="M1166.74 876.056H1205.23V847.329H1166.74V876.056Z" fill="white"/>
<path d="M1121.66 846.312H1160.14V817.584H1121.66V846.312Z" fill="#F6C93B"/>
<path d="M1166.74 935.546H1205.23V906.819H1166.74V935.546Z" fill="white"/>
<path d="M1121.66 905.785H1160.14V877.057H1121.66V905.785Z" fill="#F6C93B"/>
<path d="M1166.74 995.02H1205.23V966.292H1166.74V995.02Z" fill="white"/>
<path d="M1121.66 965.275H1160.14V936.547H1121.66V965.275Z" fill="#F6C93B"/>
<path d="M1276.47 963.47H1314.95V934.742H1276.47V963.47Z" fill="white"/>
<path d="M1234.72 963.388H1273.21V934.66H1234.72V963.388Z" fill="#F6C93B"/>
<path d="M914.117 719.128H952.601V690.401H914.117V719.128Z" fill="white"/>
<path d="M869.071 719.046H907.555V690.319H869.071V719.046Z" fill="#F6C93B"/>
<path d="M915.218 776.649H953.702V747.922H915.218V776.649Z" fill="white"/>
<path d="M870.153 776.567H908.637V747.84H870.153V776.567Z" fill="#F6C93B"/>
<path d="M913.036 840.897H951.52V812.169H913.036V840.897Z" fill="white"/>
<path d="M867.971 840.815H906.455V812.088H867.971V840.815Z" fill="#F6C93B"/>
<path d="M913.036 908H951.52V879.272H913.036V908Z" fill="white"/>
<path d="M867.971 907.934H906.455V879.206H867.971V907.934Z" fill="#F6C93B"/>
<path d="M911.6 971.788H950.084V943.06H911.6V971.788Z" fill="white"/>
<path d="M866.536 971.739H905.02V943.011H866.536V971.739Z" fill="#F6C93B"/>
<path d="M1023.08 719.128H1061.56V690.401H1023.08V719.128Z" fill="white" stroke="#616AB1" stroke-width="0.2" stroke-linejoin="round"/>
<path d="M978.033 719.046H1016.52V690.319H978.033V719.046Z" fill="#F6C93B"/>
<path d="M1024.18 776.649H1062.66V747.922H1024.18V776.649Z" fill="white" stroke="#616AB1" stroke-width="0.2" stroke-linejoin="round"/>
<path d="M979.115 776.568H1017.6V747.84H979.115V776.568Z" fill="#F6C93B"/>
<path d="M1022 840.897H1060.48V812.17H1022V840.897Z" fill="white" stroke="#616AB1" stroke-width="0.2" stroke-linejoin="round"/>
<path d="M976.934 840.815H1015.42V812.088H976.934V840.815Z" fill="#F6C93B"/>
<path d="M1022 908H1060.48V879.272H1022V908Z" fill="white" stroke="#616AB1" stroke-width="0.2" stroke-linejoin="round"/>
<path d="M976.934 907.934H1015.42V879.206H976.934V907.934Z" fill="#F6C93B"/>
<path d="M1020.56 971.788H1059.05V943.061H1020.56V971.788Z" fill="white" stroke="#616AB1" stroke-width="0.2" stroke-linejoin="round"/>
<path d="M975.498 971.739H1013.98V943.011H975.498V971.739Z" fill="#F6C93B"/>
<path d="M660.002 1016.81H827.81V798.208H660.002V1016.81Z" fill="#EF4471"/>
<path d="M1262.35 488.896H1315.42V480.496H1262.35V488.896Z" fill="#3D7EBD"/>
<path d="M1307.21 500.151H1311.82V488.355H1307.21V500.151Z" fill="#3D7EBD"/>
<path d="M1264.68 500.496H1269.29V488.7H1264.68V500.496Z" fill="#3D7EBD"/>
</g>
<path opacity="0.23" d="M1730.7 670.237V456.707H1686.76V302.043H1655.73V175.074H1641.41C1641.41 175.074 1630.39 135.485 1625.12 107.397H1586.99C1581.76 135.682 1571.81 175.024 1571.81 175.024H1556.22V302.043H1526.5V456.707H1519.19C1504.8 424.977 1471.59 401.877 1431.91 398.546V345.553H1411.52V398.595C1362.44 402.943 1323.32 437.528 1317.77 481.235H1315.42V480.513H1312.38V426.093H1264.5V480.513H1262.33V488.913H1264.68V498.248H1182.81V473.327H1093.71V498.248H1074.24V650.583H967.105V650.615H862.599V654.225H871.119V669.548H837.409V770.219H828.068V755.83H837.055V752.549H734.953L685.711 752.565V492.26H549.116V457.544C542.124 457.593 535.15 457.659 528.159 457.708V419.776H515.442V457.806C510.054 457.856 504.647 457.888 499.258 457.938C491.763 469.389 484.268 480.825 476.772 492.276H458.5V563.218H288.772V532.587H287.616V312.018H188.591V279.452H129.914V254.809H115.241V279.452H99.5599V312.018H94.0596L93.2578 1011.56H238.355C239.045 1013.81 239.847 1016 240.76 1018.14C245.552 1029.26 253.719 1039.42 263.713 1047.64V1051.2H268.3C288.567 1065.9 314.801 1072.85 335.889 1065.09C343.85 1062.17 350.562 1057.32 355.97 1051.2H483.54V1009.56H629.309V1050.46H837.427V1050.49H1335.39V962.847H1457.85V1011.13H1755.13V670.237H1730.72H1730.7ZM201.904 761.441V659.934H258.585C258.753 686.66 258.94 713.37 259.107 740.096C250.288 746.38 242.178 753.615 234.813 761.441H201.904ZM813.785 755.83H823.928V770.219H813.785V755.83ZM800.342 755.83H809.665V770.219H800.342V755.83ZM787.029 755.83H796.221V770.219H787.029V755.83ZM774.22 755.83H782.909V770.219H774.22V755.83ZM761.224 755.83H770.099V770.219H761.224V755.83ZM746.811 755.83H757.085V770.219H746.811V755.83ZM733.219 755.847H742.206L742.672 755.83V770.219H733.2V755.863L733.219 755.847ZM718.937 755.847H729.08V770.202H718.937V755.847ZM705.494 755.847H714.816V770.202H705.494V755.847ZM692.162 755.847H701.354V770.202H692.162V755.847ZM688.042 755.847V770.202H685.711V755.847H688.042ZM1039.17 654.192H1049.44V669.548H1039.17V654.192ZM1024.5 654.192H1034.62V669.548H1024.5V654.192ZM996.061 654.192H1005.83V669.548H996.061V654.192ZM980.176 654.192H991.493V669.548H980.176V654.192ZM934.662 654.208H944.936V669.532H934.662V654.208ZM919.989 654.208H930.113V669.532H919.989V654.208ZM905.874 654.208H915.439V669.532H905.874V654.208ZM891.555 654.208H901.325V669.532H891.555V654.208ZM875.669 654.208H886.987V669.532H875.669V654.208ZM960.654 669.548H949.485V654.225H960.654V669.548ZM965.203 654.208H975.104L975.626 654.192V669.548H965.203V654.225V654.208ZM1019.95 669.548H1010.38V654.192H1019.95V669.548ZM1065.16 669.548H1053.99V654.192H1065.16V669.548ZM1074.26 669.548H1069.71V654.192H1074.26V669.548ZM1269.29 488.913H1288.46V498.248H1269.29V488.913Z" fill="#4A2F91"/>
<g clip-path="url(#clip0_330_83)">
<path d="M1947.03 889.045H-6.74414V1101.06H1947.03V889.045Z" fill="#444444"/>
<path d="M224.969 369.947C224.407 364.916 223.471 356.756 227.162 351.672C227.563 351.11 229.783 348.06 233.154 348.006C236.417 347.98 238.664 350.816 239.279 351.672C242.89 356.676 241.954 364.729 241.312 369.947C240.536 376.395 238.022 389.051 234.357 391.432V517.026H235.668V664.453H236.872V892.283H229.677V664.453H230.746V517.026H232.057V391.539C228.339 389.398 225.718 376.769 224.942 369.947H224.969Z" fill="#3E122B"/>
<path d="M734.616 369.947C734.055 364.916 733.119 356.756 736.81 351.672C737.211 351.11 739.431 348.06 742.801 348.006C746.064 347.98 748.311 350.816 748.926 351.672C752.537 356.676 751.601 364.729 750.959 369.947C750.183 376.395 747.669 389.051 744.005 391.432V517.026H745.315V664.453H746.519V892.283H739.324V664.453H740.394V517.026H741.705V391.539C737.987 389.398 735.365 376.769 734.59 369.947H734.616Z" fill="#3E122B"/>
<path d="M1244.26 369.947C1243.7 364.916 1242.77 356.756 1246.46 351.672C1246.86 351.11 1249.08 348.06 1252.45 348.006C1255.71 347.98 1257.96 350.816 1258.57 351.672C1262.18 356.675 1261.25 364.729 1260.61 369.947C1259.83 376.395 1257.32 389.051 1253.65 391.432V517.026H1254.96V664.453H1256.17V892.283H1248.97V664.453H1250.04V517.026H1251.35V391.539C1247.63 389.398 1245.01 376.769 1244.24 369.947H1244.26Z" fill="#3E122B"/>
<path d="M1947.03 880.671H-6.74414V916.712H1947.03V880.671Z" fill="#E2BB8D"/>
<path d="M913.713 923.772L491.078 923.942C490.172 938.174 489.21 952.406 488.305 966.638C523.784 971.778 559.319 976.917 594.798 982.113C670.396 980.927 746.051 979.797 821.649 978.611C853.393 972.851 885.194 967.09 916.938 961.329C915.863 948.792 914.788 936.254 913.77 923.772H913.713Z" fill="#3A1723"/>
<path d="M931.48 917.39C929.67 915.752 927.802 914.058 925.992 912.42C925.709 906.829 924.407 897.793 918.409 889.265C912.977 881.471 906.187 877.744 898.718 873.621C893.342 870.628 885.477 867.013 875.178 864.697C863.465 850.578 843.83 831.376 814.632 820.646C796.242 813.925 781.02 812.626 771.57 812.626C699.141 812.682 626.769 812.908 554.34 813.304C535.553 813.417 516.767 813.529 497.924 813.642C495.944 822.679 493.737 834.313 491.756 847.924C488.814 868.312 487.852 883.843 487.229 893.896C486.437 907.394 485.871 923.942 486.211 942.861C483.551 947.718 480.892 952.632 478.176 957.489C478.402 963.927 478.628 970.366 478.855 976.804C502.338 976.465 525.764 976.126 549.247 975.787C546.814 950.26 567.354 928.573 591.29 928.855C614.829 929.137 634.747 950.655 632.314 975.787H803.485C800.599 946.137 824.704 923.264 847.508 924.845C867.765 926.257 886.778 946.871 885.533 972.794C893.851 969.914 902.226 967.033 910.544 964.153C917.221 960.595 923.898 957.037 930.575 953.479C930.801 941.449 931.084 929.363 931.311 917.334L931.48 917.39Z" fill="#FAF4E9"/>
<mask id="mask2_330_83" style="mask-type:luminance" maskUnits="userSpaceOnUse" x="478" y="812" width="454" height="165">
<path d="M931.48 917.39C929.67 915.752 927.802 914.058 925.992 912.42C925.709 906.829 924.407 897.792 918.409 889.264C912.977 881.471 906.187 877.743 898.718 873.62C893.342 870.627 885.477 867.013 875.178 864.697C863.465 850.578 843.83 831.376 814.632 820.645C796.242 813.924 781.02 812.625 771.57 812.625C699.141 812.682 626.769 812.908 554.34 813.303C535.553 813.416 516.767 813.529 497.924 813.642C495.944 822.678 493.737 834.312 491.756 847.923C488.814 868.311 487.852 883.843 487.229 893.895C486.437 907.393 485.871 923.941 486.211 942.861C483.551 947.718 480.892 952.631 478.176 957.488C478.402 963.927 478.628 970.365 478.855 976.803C502.338 976.465 525.764 976.126 549.247 975.787C546.814 950.259 567.354 928.572 591.29 928.855C614.829 929.137 634.747 950.655 632.314 975.787H803.485C800.599 946.137 824.704 923.263 847.508 924.845C867.765 926.257 886.778 946.871 885.533 972.794C893.851 969.913 902.226 967.033 910.544 964.153C917.221 960.595 923.898 957.037 930.575 953.479C930.801 941.449 931.084 929.363 931.311 917.333L931.48 917.39Z" fill="white"/>
</mask>
<g mask="url(#mask2_330_83)">
<path d="M926.388 912.59C918.806 911.799 911.28 911.008 903.697 910.274C890.23 920.271 876.763 930.267 863.295 940.263C844.566 949.921 825.836 959.579 807.05 969.236H595.308C593.78 970.704 586.141 977.651 579.633 975.618C572.221 973.302 566.902 959.353 572.277 941.788C538.383 942.127 504.545 942.466 470.65 942.805C460.804 965.678 454.806 992.053 464.482 1015.89C513.033 1135.9 924.238 1101.79 949.645 1010.92C952.983 998.886 960.735 946.024 931.65 917.334C929.5 915.244 927.576 913.663 926.331 912.646L926.388 912.59Z" fill="#27111A"/>
</g>
<path d="M843.771 930.945C863.859 929.929 881.06 947.098 881.513 967.09C881.909 986.518 866.348 1004.14 846.826 1004.76C825.663 1005.44 808.744 985.897 809.876 965.566C810.838 948.001 825.267 931.849 843.827 930.945H843.771Z" fill="#27111A"/>
<path d="M844.449 942.466C858.086 941.789 869.743 953.423 870.026 966.977C870.309 980.136 859.784 992.109 846.486 992.505C832.114 992.957 820.683 979.741 821.419 965.961C822.098 954.044 831.831 943.088 844.449 942.466Z" fill="#999296"/>
<path d="M854.637 872.774C850.166 862.947 841.396 847.586 824.873 834.313C818.083 828.892 811.349 824.882 805.464 822.002C788.489 822.002 771.513 821.889 754.537 821.832V872.774H854.637Z" fill="#2FA0DA" stroke="white" stroke-width="0.39" stroke-miterlimit="10"/>
<path d="M589.308 934.615C609.396 933.599 626.598 950.768 627.05 970.76C627.446 990.188 611.885 1007.81 592.363 1008.43C571.201 1009.11 554.282 989.567 555.413 969.235C556.375 951.671 570.804 935.519 589.364 934.615H589.308Z" fill="#27111A"/>
<path d="M589.986 946.136C603.623 945.459 615.28 957.093 615.563 970.647C615.846 983.806 605.321 995.779 592.023 996.175C577.651 996.627 566.22 983.411 566.956 969.631C567.635 957.714 577.368 946.758 589.986 946.136Z" fill="#999296"/>
<path d="M486.099 893.896H491.248V942.466H486.099V893.896Z" fill="#A93825"/>
<path opacity="0.1" d="M518.295 873.451H735.526V821.493C665.304 821.662 595.025 821.832 524.803 822.001C520.106 831.659 514.731 846.907 516.768 864.98C517.107 867.973 517.616 870.797 518.295 873.451Z" fill="#FAF4E9" stroke="#A3949C" stroke-width="0.35" stroke-miterlimit="10"/>
<path opacity="0.1" d="M491.303 892.936H894.699V895.251H491.303V892.936Z" fill="#A3949C"/>
<path d="M921.861 895.534C918.127 894.404 913.43 893.387 907.941 892.879C901.83 892.314 896.511 892.597 892.324 893.105C896.058 898.753 899.793 904.457 903.528 910.105C911.11 910.895 918.636 911.742 926.218 912.533C926.501 910.613 926.671 907.507 925.709 903.779C924.747 899.882 922.993 897.115 921.805 895.534H921.861Z" fill="#F4BB30"/>
<path opacity="0.3" d="M650.422 812.795C650.422 812.795 647.763 845.608 647.763 889.716C647.763 923.376 649.46 950.937 650.932 969.123L650.083 968.953C648.442 950.598 646.631 923.15 646.744 889.603C646.914 846.511 650.196 812.738 650.422 812.738V812.795Z" fill="#27111A"/>
<path opacity="0.15" d="M746.275 812.626C746.671 812.626 747.068 812.626 747.464 812.569C746.332 832.279 745.596 852.668 745.257 873.79C745.03 886.554 745.03 899.035 745.087 911.234C747.124 911.516 750.18 912.251 753.405 914.171C759.007 917.503 761.553 922.36 763.025 925.184C770.664 939.698 768.457 967.428 768.287 969.123C767.325 969.179 766.363 969.292 765.401 969.349C767.099 949.638 764.439 933.994 760.139 926.37C756.178 919.31 750.859 915.978 750.859 915.978C748.143 914.284 745.54 913.437 743.899 913.041C743.729 900.221 743.786 887.118 743.955 873.677C744.295 852.555 745.087 832.223 746.219 812.626H746.275Z" fill="#27111A"/>
<path d="M-34 710.474L155.105 676.654L52.9026 651.369L-34 710.474Z" fill="#EE4266"/>
<path d="M108.938 684.922L155.105 676.654L52.9023 651.369L108.938 684.922Z" fill="#FFD23F"/>
<path d="M12.1662 702.233L-34 710.474L52.9026 651.369L12.1662 702.233Z" fill="#FFD23F"/>
<path d="M76.8947 798.716L82.2175 795.184L63.8419 692.975L58.0645 693.992L76.8947 798.716Z" fill="#B2B2B2"/>
<path d="M52.9023 651.369C52.9023 651.369 107.467 685.189 108.938 684.922C110.409 684.654 52.9023 651.369 52.9023 651.369Z" fill="white"/>
<path d="M12.1665 702.233C14.2795 701.858 52.9029 651.369 52.9029 651.369C52.9029 651.369 10.0534 702.608 12.1665 702.233Z" fill="white"/>
<path d="M175.272 852.657H30.9697V862.958H175.272V852.657Z" fill="#2D2628"/>
<path d="M183.832 781.672H26.2354V857.446H183.832V781.672Z" fill="#167DE5"/>
<mask id="mask3_330_83" style="mask-type:luminance" maskUnits="userSpaceOnUse" x="26" y="781" width="158" height="77">
<path d="M183.832 781.672H26.2354V857.446H183.832V781.672Z" fill="white"/>
</mask>
<g mask="url(#mask3_330_83)">
<path d="M13.1025 795.291L112.897 882.918H146.787L18.5055 770.274L13.1025 795.291Z" fill="#EE4266"/>
<path d="M40.9199 777.418L140.715 865.018L154.035 864.296L52.8226 773.137L40.9199 777.418Z" fill="#EE4266"/>
</g>
<path d="M54.0796 859.319C48.2753 859.025 43.3003 864.002 43.1933 869.781C43.0596 875.4 47.5799 880.51 53.2236 880.671C59.3488 880.858 64.2169 875.212 63.8959 869.326C63.6017 864.242 59.4558 859.56 54.0796 859.292V859.319Z" fill="#161314"/>
<path d="M53.8653 862.637C49.9334 862.45 46.5632 865.821 46.483 869.727C46.4028 873.554 49.452 877.005 53.2769 877.112C57.4227 877.246 60.7394 873.42 60.5254 869.433C60.3382 865.982 57.503 862.824 53.8653 862.637Z" fill="#B2B2B2"/>
<path d="M157.111 859.319C151.307 859.025 146.332 864.002 146.225 869.781C146.091 875.4 150.611 880.51 156.255 880.671C162.38 880.858 167.248 875.212 166.927 869.326C166.633 864.242 162.487 859.56 157.111 859.292V859.319Z" fill="#161314"/>
<path d="M156.897 862.637C152.965 862.45 149.594 865.821 149.514 869.727C149.434 873.554 152.483 877.005 156.308 877.112C160.454 877.246 163.771 873.42 163.557 869.433C163.369 865.982 160.534 862.824 156.897 862.637Z" fill="#B2B2B2"/>
<path d="M1324.83 1020.86H1025C1021.45 1020.86 1018.58 1023.74 1018.58 1027.28V1060.81C1018.58 1064.35 1021.45 1067.23 1025 1067.23H1324.83C1328.38 1067.23 1331.25 1064.35 1331.25 1060.81V1027.28C1331.25 1023.74 1328.38 1020.86 1324.83 1020.86Z" fill="#191817"/>
<path d="M1189.34 901.55H1034.85V908.045H1189.34V901.55Z" fill="#E5A34C"/>
<path d="M1058.31 918.251C1057.33 918.251 1056.56 917.148 1056.56 915.794V908.02H1060.09V915.794C1060.09 917.148 1059.29 918.251 1058.34 918.251H1058.31Z" fill="#E5A34C"/>
<path d="M1160.51 918.251C1159.54 918.251 1158.73 917.148 1158.73 915.794V908.02H1162.27V915.794C1162.27 917.148 1161.47 918.251 1160.51 918.251Z" fill="#E5A34C"/>
<path d="M1042.44 901.55C1042.44 888.235 1049.69 877.327 1058.54 877.327H1165.63C1174.48 877.327 1181.72 888.235 1181.72 901.55H1042.42H1042.44Z" fill="#F5C636"/>
<path d="M1320.95 1070.24C1325.16 1049.12 1320.02 1023.82 1287.71 1026.73C1266.6 1028.64 1256.9 1052.23 1260.89 1070.24L1080.57 1070.69C1084.58 1052.56 1070.24 1027.16 1049.14 1027.16C1025.45 1027.16 1011.11 1048.05 1015.32 1069.16L957.163 1070.24C960.547 1017.85 963.104 978.534 966.564 924.771C966.914 919.204 971.051 914.916 975.989 914.966C976.114 914.966 987.245 914.816 986.543 914.816H1213.51C1228.72 914.816 1250.96 938.538 1253.89 940.318C1313.23 989.066 1316.11 989.493 1324.16 999.247C1335.44 1012.86 1342.28 1030.64 1343.23 1049.6L1344.26 1070.26H1320.95V1070.24Z" fill="#F5C636"/>
<path d="M1038.03 1034.75H952.2C950.511 1034.75 949.142 1036.12 949.142 1037.81V1067.18C949.142 1068.87 950.511 1070.24 952.2 1070.24H1038.03C1039.72 1070.24 1041.09 1068.87 1041.09 1067.18V1037.81C1041.09 1036.12 1039.72 1034.75 1038.03 1034.75Z" fill="#ED4265"/>
<path d="M970.724 986.534L962.577 986.483L960.998 1007.62L970.724 1007.7" fill="#E28130"/>
<path d="M1072.7 1074.15C1073.48 1068.98 1073.63 1063.52 1072.95 1057.85H1278.88C1278.23 1063.52 1278.38 1068.98 1279.16 1074.15H1072.7Z" fill="#ED4265"/>
<path d="M1212.8 1001.18C1212.8 1002.53 1211.6 1003.64 1210.12 1003.64H1188.26C1186.78 1003.64 1185.58 1002.53 1185.58 1001.18C1185.58 999.824 1186.78 998.72 1188.26 998.72H1210.12C1211.6 998.72 1212.8 999.824 1212.8 1001.18Z" fill="#3E111A"/>
<path d="M1347.97 1068.81H1309.39V1030.29C1309.39 1023.45 1311.6 1017.9 1317.64 1017.9H1330.6C1338.9 1017.9 1346.07 1024.5 1347.8 1033.7C1354.94 1072.17 1352.48 1058.9 1353.01 1061.79C1353.66 1065.35 1351.28 1068.81 1347.97 1068.81Z" fill="#F9F8E8"/>
<path d="M1354.51 1070.59H1309.49V1045.14H1334.23C1343.94 1045.14 1353.36 1050.38 1355.52 1059.5C1355.52 1059.5 1358.32 1070.59 1354.51 1070.59Z" fill="#ED4265"/>
<path d="M1323.36 1061.79C1323.36 1080.07 1309.69 1094.91 1292.85 1094.91C1276 1094.91 1262.34 1080.09 1262.34 1061.79C1262.34 1043.48 1276 1028.66 1292.85 1028.66C1309.69 1028.66 1323.36 1043.48 1323.36 1061.79Z" fill="#2B2925"/>
<path d="M1292.85 1078.44C1301.32 1078.44 1308.19 1070.98 1308.19 1061.79C1308.19 1052.59 1301.32 1045.14 1292.85 1045.14C1284.37 1045.14 1277.51 1052.59 1277.51 1061.79C1277.51 1070.98 1284.37 1078.44 1292.85 1078.44Z" fill="#EFE7D3"/>
<path d="M1078.22 1061.79C1078.22 1080.07 1064.55 1094.66 1047.71 1094.66C1030.86 1094.66 1017.2 1080.09 1017.2 1061.79C1017.2 1043.48 1030.86 1028.66 1047.71 1028.66C1064.55 1028.66 1078.22 1043.48 1078.22 1061.79Z" fill="#2B2925"/>
<path d="M1063.02 1061.79C1063.02 1070.99 1056.16 1078.44 1047.68 1078.44C1039.21 1078.44 1032.34 1070.99 1032.34 1061.79C1032.34 1052.58 1039.21 1045.14 1047.68 1045.14C1056.16 1045.14 1063.02 1052.58 1063.02 1061.79Z" fill="#EFE7D3"/>
<path d="M1146.28 933.849H1208.77C1211.88 933.849 1214.41 936.381 1214.41 939.491V986.96C1214.41 990.069 1211.88 992.602 1208.77 992.602H1146.28C1143.17 992.602 1140.64 990.069 1140.64 986.96V939.491C1140.64 936.381 1143.17 933.849 1146.28 933.849Z" fill="#167DE5" stroke="white" stroke-width="0.75" stroke-miterlimit="10"/>
<path d="M1067.39 933.849H1129.88C1132.99 933.849 1135.52 936.381 1135.52 939.491V986.96C1135.52 990.069 1132.99 992.602 1129.88 992.602H1067.39C1064.28 992.602 1061.75 990.069 1061.75 986.96V939.491C1061.75 936.381 1064.28 933.849 1067.39 933.849Z" fill="#167DE5" stroke="white" stroke-width="0.75" stroke-miterlimit="10"/>
<path d="M988.473 933.849H1050.97C1054.08 933.849 1056.61 936.381 1056.61 939.491V986.96C1056.61 990.069 1054.08 992.602 1050.97 992.602H988.473C985.365 992.602 982.833 990.069 982.833 986.96V939.491C982.833 936.381 985.365 933.849 988.473 933.849Z" fill="#167DE5" stroke="white" stroke-width="0.75" stroke-miterlimit="10"/>
<path d="M1226.02 937.51L1226.39 990.671C1226.39 992.351 1227.57 993.73 1229 993.73H1297.79C1300.32 993.73 1301.37 989.869 1299.29 988.138C1299.29 988.138 1233.86 934.751 1230.63 934.099C1229.02 933.799 1226.02 935.604 1226.04 937.51H1226.02Z" fill="#167DE5" stroke="white" stroke-width="0.74" stroke-miterlimit="10"/>
<path d="M1877.94 929.161L1471.89 923.935C1470.83 936.067 1469.71 948.261 1468.65 960.393C1502.69 965.246 1536.72 970.099 1570.69 974.952C1643.38 974.952 1716 974.889 1788.68 974.827C1819.28 970.286 1849.83 965.806 1880.44 961.264C1879.56 950.563 1878.75 939.8 1877.88 929.099L1877.94 929.161Z" fill="#3A161E"/>
<path d="M1416.98 911.679L1412.61 914.23L1415.23 931.215H1423.52L1416.98 911.679Z" fill="#999295"/>
<path d="M1910.98 906.764C1912.73 910.621 1914.41 914.478 1916.16 918.336C1918.52 921.509 1921.02 926.113 1919.52 930.343C1917.59 935.881 1910.48 936.316 1909.92 940.796C1909.3 945.959 1918.28 948.573 1918.4 954.421C1918.4 957.158 1916.53 960.891 1908.36 965.371C1898.76 964.935 1889.23 964.5 1879.63 964.064C1878.75 961.202 1873.02 944.093 1854.82 935.383C1851.7 933.89 1835.18 926.424 1816.98 934.076C1794.79 943.409 1789.93 966.677 1789.55 968.606C1715.5 968.979 1641.45 969.353 1567.39 969.726C1567.14 966.802 1565.46 947.95 1549.94 937.374C1528.74 922.878 1502.75 938.245 1501 939.302C1489.29 946.457 1483.68 956.661 1481.43 961.451C1464.48 960.58 1447.46 959.709 1430.5 958.838C1424.64 950.563 1418.78 942.351 1412.86 934.076C1414.86 932.583 1417.48 930.032 1418.72 926.237C1421.34 918.211 1415.29 911.679 1415.48 908.008C1415.79 900.044 1445.65 891.708 1538.65 884.677C1557.85 867.941 1568.14 859.915 1573.25 856.867C1573.56 856.68 1579.05 853.445 1578.49 851.454C1578.18 850.396 1576.37 850.334 1576.31 849.525C1576.18 848.094 1581.48 846.539 1582.41 846.29C1594.01 842.931 1605.29 842.06 1605.29 842.06C1619.25 842.06 1663.45 841.811 1723.42 842.371C1742.05 857.489 1760.75 872.67 1779.39 887.788C1808.25 889.779 1837.05 891.708 1865.91 893.698C1880.94 898.054 1895.96 902.409 1910.98 906.702V906.764Z" fill="#EF446E"/>
<path d="M1464.29 944.591C1467.53 944.031 1470.27 946.333 1470.39 948.946C1470.52 950.999 1468.9 953.115 1466.47 953.737C1447.89 953.426 1429.32 953.177 1410.74 952.866C1410.12 951.995 1404.51 943.534 1408 936.814C1408.37 936.068 1409.99 933.019 1412.92 932.584C1416.1 932.148 1419.28 935.134 1420.4 938.121C1421.27 940.298 1420.96 942.351 1420.71 943.347C1435.24 943.782 1449.7 944.218 1464.22 944.653L1464.29 944.591Z" fill="#7C787A"/>
<mask id="mask4_330_83" style="mask-type:luminance" maskUnits="userSpaceOnUse" x="1406" y="932" width="65" height="22">
<path d="M1464.29 944.591C1467.53 944.031 1470.27 946.333 1470.39 948.946C1470.52 950.999 1468.9 953.115 1466.47 953.737C1447.89 953.426 1429.32 953.177 1410.74 952.866C1410.12 951.995 1404.51 943.534 1408 936.814C1408.37 936.068 1409.99 933.019 1412.92 932.584C1416.1 932.148 1419.28 935.134 1420.4 938.121C1421.27 940.298 1420.96 942.351 1420.71 943.347C1435.24 943.782 1449.7 944.218 1464.22 944.653L1464.29 944.591Z" fill="white"/>
</mask>
<g mask="url(#mask4_330_83)">
<path d="M1408.18 948.635C1407.5 948.262 1406.44 947.577 1405.44 946.458C1404.38 945.275 1403.82 944.156 1403.57 943.596C1401.51 939.427 1400.2 934.201 1402.63 930.282C1404.01 928.042 1406.44 926.549 1408.99 925.802C1411.55 925.055 1414.23 924.931 1416.85 924.869C1419.84 924.807 1422.89 924.744 1425.76 925.615C1428.63 926.486 1431.12 928.104 1433.74 929.597C1443.09 934.823 1453.56 937.436 1463.54 941.294C1464.35 941.605 1466.4 942.165 1468.46 943.844C1470.7 945.711 1471.83 948.075 1472.39 949.568C1450.94 949.257 1429.5 948.884 1408.06 948.573L1408.18 948.635Z" fill="#999295"/>
</g>
<path d="M1560.28 889.779C1577.8 875.096 1591.51 863.773 1598.25 858.174C1599.68 856.992 1602.48 854.814 1606.66 852.823C1612.21 850.21 1617.26 849.277 1620.56 848.966H1721.05C1736.82 862.529 1752.59 876.03 1768.36 889.593C1698.98 889.655 1629.6 889.717 1560.22 889.779H1560.28Z" fill="#3D7EBD"/>
<path d="M1881.81 948.386C1880.19 948.759 1877.57 949.382 1877.44 950.564C1877.32 951.932 1880.94 953.301 1881.99 953.674C1887.6 955.728 1893.59 955.665 1904.19 953.861C1915.53 951.932 1921.27 950.937 1922.45 947.826C1923.82 944.404 1920.7 940.236 1919.83 939.054C1918.52 937.312 1917.03 935.196 1914.6 935.134C1912.04 935.134 1909.67 937.374 1909.05 939.738C1908.3 942.476 1910.05 944.653 1910.36 945.026C1902.38 945.586 1889.6 946.706 1881.75 948.448L1881.81 948.386Z" fill="#7C787A"/>
<mask id="mask5_330_83" style="mask-type:luminance" maskUnits="userSpaceOnUse" x="1877" y="935" width="46" height="21">
<path d="M1881.81 948.386C1880.19 948.759 1877.57 949.382 1877.44 950.564C1877.32 951.932 1880.94 953.301 1881.99 953.674C1887.6 955.728 1893.59 955.665 1904.19 953.861C1915.53 951.932 1921.27 950.937 1922.45 947.826C1923.82 944.404 1920.7 940.236 1919.83 939.054C1918.52 937.312 1917.03 935.196 1914.6 935.134C1912.04 935.134 1909.67 937.374 1909.05 939.738C1908.3 942.476 1910.05 944.653 1910.36 945.026C1902.38 945.586 1889.6 946.706 1881.75 948.448L1881.81 948.386Z" fill="white"/>
</mask>
<g mask="url(#mask5_330_83)">
<path d="M1877.32 951.871C1876.13 951.684 1874.95 951.435 1873.77 951.248C1873.02 950.377 1871.65 948.511 1871.77 946.147C1871.9 943.658 1873.77 942.041 1874.58 941.107C1884.74 929.286 1902.31 925.429 1917.4 929.473C1926 931.775 1928.56 935.197 1929.12 936.006C1933.36 942.289 1930.49 950.315 1929.93 951.684C1912.41 951.684 1894.83 951.746 1877.32 951.808V951.871Z" fill="#999295"/>
</g>
<path d="M1778.08 886.481C1777.71 887.601 1777.21 888.285 1776.77 888.783C1774.84 890.836 1771.35 891.334 1767.86 890.214C1751.78 876.278 1735.7 862.404 1719.55 848.468C1720.36 847.845 1722.23 846.539 1724.91 846.29C1726.66 846.103 1728.03 846.414 1728.9 846.725C1745.29 859.977 1761.63 873.291 1778.02 886.543L1778.08 886.481Z" fill="#EF446C"/>
<path d="M1546.14 882.81C1545.51 883.37 1543.95 884.615 1541.58 884.988C1540.09 885.174 1538.84 884.988 1538.09 884.801C1551.12 872.669 1564.21 860.537 1577.24 848.405C1577.43 848.53 1578.42 849.276 1578.74 850.707C1579.11 852.511 1577.99 853.88 1577.86 854.004C1567.27 863.586 1556.67 873.229 1546.14 882.81Z" fill="#3D7EBD"/>
<path d="M1718.74 849.089H1719.86V889.654H1718.74V849.089Z" fill="#2D388E"/>
<path d="M1631.6 849.525H1632.72V890.09H1631.6V849.525Z" fill="#2D388E"/>
<path d="M1564.65 956.971C1640.95 956.971 1717.31 956.971 1793.6 956.909C1793.48 957.282 1793.29 957.656 1793.17 958.029C1717.18 958.216 1641.26 958.34 1565.27 958.527C1565.08 958.029 1564.83 957.531 1564.65 957.034V956.971Z" fill="#2D388E"/>
<path d="M1637.58 902.658H1655.22V910.497H1637.58V902.658Z" fill="#999295"/>
<path d="M1638.27 903.342H1646.12V909.875H1638.27V903.342Z" fill="#7C787A"/>
<path d="M1768.36 892.516H1769.17V968.792H1768.36V892.516Z" fill="#2D388E"/>
<path d="M1768.3 892.516C1768.3 892.516 1768.86 892.516 1769.11 892.516C1768.67 891.769 1768.23 890.961 1767.8 890.214H1766.92L1768.3 892.516Z" fill="#8B2D1E"/>
<path d="M1628.85 969.477H1628.04V893.2H1628.85V969.477Z" fill="#2D388E"/>
<path d="M1628.85 893.263C1628.85 893.263 1628.29 893.263 1628.04 893.263C1628.48 892.516 1628.91 891.708 1629.35 890.961H1630.22L1628.85 893.263Z" fill="#8B2D1E"/>
<path d="M1829.76 934.574C1849.77 933.579 1866.97 950.688 1867.41 970.597C1867.85 990.008 1852.32 1007.55 1832.81 1008.18C1811.68 1008.8 1794.85 989.386 1795.97 969.104C1796.97 951.559 1811.31 935.507 1829.82 934.574H1829.76Z" fill="#271117"/>
<path d="M1830.45 946.084C1844.03 945.4 1855.63 957.034 1855.94 970.535C1856.25 983.663 1845.72 995.608 1832.5 995.981C1818.17 996.417 1806.76 983.227 1807.51 969.477C1808.19 957.594 1817.92 946.707 1830.45 946.084Z" fill="#999295"/>
<path d="M1525.75 933.703C1545.76 932.708 1562.96 949.817 1563.4 969.726C1563.84 989.137 1548.31 1006.68 1528.8 1007.3C1507.67 1007.93 1490.84 988.515 1491.96 968.233C1492.96 950.688 1507.3 934.637 1525.81 933.703H1525.75Z" fill="#271117"/>
<path d="M1525.62 946.084C1539.21 945.4 1550.81 957.034 1551.12 970.535C1551.43 983.663 1540.9 995.608 1527.68 995.981C1513.34 996.417 1501.94 983.227 1502.68 969.477C1503.37 957.594 1513.09 946.707 1525.62 946.084Z" fill="#999295"/>
<path d="M561.492 963.993H60.0461C50.4959 963.993 42.7539 971.738 42.7539 981.291V1023.03C42.7539 1032.58 50.4959 1040.32 60.0461 1040.32H561.492C571.043 1040.32 578.785 1032.58 578.785 1023.03V981.291C578.785 971.738 571.043 963.993 561.492 963.993Z" fill="#232328"/>
<path d="M601.676 800.795H31.1187C24.3294 800.795 18.7588 806.367 18.7588 813.159V1039.54C18.7588 1046.33 24.3294 1051.91 31.1187 1051.91H84.0399C83.1695 1047.64 82.7053 1043.2 82.7053 1038.61C82.7053 1004.71 108.034 977.228 139.253 977.228C170.472 977.228 195.801 1004.71 195.801 1038.61C195.801 1043.17 195.337 1047.61 194.467 1051.91H460.001C459.131 1047.64 458.667 1043.2 458.667 1038.61C458.667 1004.71 483.996 977.228 515.215 977.228C546.434 977.228 571.763 1004.71 571.763 1038.61C571.763 1043.17 571.298 1047.61 570.428 1051.91C570.428 1051.91 631.125 1049.58 630.98 1042.79C630.284 1011.77 627.469 949.337 622.595 895.672C617.721 842.008 610.09 800.505 601.647 800.824L601.676 800.795Z" fill="#EE426A"/>
<path d="M189.708 1051.88H464.005C463.135 1047.61 462.671 1043.17 462.671 1038.58C462.671 1031.56 463.773 1024.8 465.775 1018.5H187.938C189.94 1024.8 191.043 1031.56 191.043 1038.58C191.043 1043.14 190.579 1047.58 189.708 1051.88Z" fill="#1B7DE3"/>
<path d="M88.9438 1038.58C88.9438 1031.56 90.0463 1024.8 92.0482 1018.5H21.8638C19.4847 1018.5 17.5117 1020.44 17.5117 1022.85V1047.52C17.5117 1049.9 19.4556 1051.88 21.8638 1051.88H90.2784C89.408 1047.61 88.9438 1043.17 88.9438 1038.58Z" fill="#1B7DE3"/>
<path d="M637.189 1018.5H564.277C566.279 1024.8 567.382 1031.56 567.382 1038.58C567.382 1043.14 566.918 1047.58 566.047 1051.88H637.189C639.568 1051.88 641.541 1049.93 641.541 1047.52V1022.85C641.541 1020.47 639.597 1018.5 637.189 1018.5Z" fill="#ED4265"/>
<path d="M561.665 1035.36C561.665 1061.63 540.717 1082.58 514.866 1082.58C489.014 1082.58 468.066 1061.63 468.066 1035.36C468.066 1009.1 489.014 987.764 514.866 987.764C540.717 987.764 561.665 1009.07 561.665 1035.36Z" fill="#0B0A08"/>
<path d="M538.368 1035.36C538.368 1048.57 527.836 1059.28 514.838 1059.28C501.84 1059.28 491.308 1048.57 491.308 1035.36C491.308 1022.16 501.84 1011.45 514.838 1011.45C527.836 1011.45 538.368 1022.16 538.368 1035.36Z" fill="#EFE7D3"/>
<path d="M528.067 1035.36C528.067 1042.76 522.148 1048.77 514.865 1048.77C507.583 1048.77 501.664 1042.76 501.664 1035.36C501.664 1027.96 507.583 1021.95 514.865 1021.95C522.148 1021.95 528.067 1027.96 528.067 1035.36Z" fill="#0B0A08"/>
<path d="M185.677 1033.94C185.677 1060.21 164.729 1081.16 138.877 1081.16C113.026 1081.16 92.0781 1060.21 92.0781 1033.94C92.0781 1007.67 113.026 986.342 138.877 986.342C164.729 986.342 185.677 1007.64 185.677 1033.94Z" fill="#0B0A08"/>
<path d="M162.38 1033.94C162.38 1047.15 151.848 1057.86 138.85 1057.86C125.851 1057.86 115.319 1047.15 115.319 1033.94C115.319 1020.73 125.851 1010.02 138.85 1010.02C151.848 1010.02 162.38 1020.73 162.38 1033.94Z" fill="#EFE7D3"/>
<path d="M152.078 1033.94C152.078 1041.34 146.16 1047.35 138.877 1047.35C131.595 1047.35 125.676 1041.34 125.676 1033.94C125.676 1026.54 131.595 1020.53 138.877 1020.53C146.16 1020.53 152.078 1026.54 152.078 1033.94Z" fill="#0B0A08"/>
<path d="M147.146 827.583H94.3411C89.7101 827.583 85.9561 831.339 85.9561 835.971V921.271C85.9561 925.903 89.7101 929.659 94.3411 929.659H147.146C151.777 929.659 155.531 925.903 155.531 921.271V835.971C155.531 831.339 151.777 827.583 147.146 827.583Z" fill="#F5C636"/>
<path d="M233.259 827.583H180.453C175.822 827.583 172.068 831.339 172.068 835.971V921.271C172.068 925.903 175.822 929.659 180.453 929.659H233.259C237.889 929.659 241.644 925.903 241.644 921.271V835.971C241.644 831.339 237.889 827.583 233.259 827.583Z" fill="#F5C636"/>
<path d="M319.343 827.583H266.537C261.906 827.583 258.152 831.339 258.152 835.971V921.271C258.152 925.903 261.906 929.659 266.537 929.659H319.343C323.973 929.659 327.728 925.903 327.728 921.271V835.971C327.728 831.339 323.973 827.583 319.343 827.583Z" fill="#F5C636"/>
<path d="M405.457 827.583H352.652C348.021 827.583 344.267 831.339 344.267 835.971V921.271C344.267 925.903 348.021 929.659 352.652 929.659H405.457C410.088 929.659 413.842 925.903 413.842 921.271V835.971C413.842 831.339 410.088 827.583 405.457 827.583Z" fill="#F5C636"/>
<path d="M491.54 827.583H438.735C434.104 827.583 430.35 831.339 430.35 835.971V921.271C430.35 925.903 434.104 929.659 438.735 929.659H491.54C496.171 929.659 499.925 925.903 499.925 921.271V835.971C499.925 831.339 496.171 827.583 491.54 827.583Z" fill="#F5C636"/>
<path d="M625.381 929.63H559.664C555.051 929.659 551.279 925.886 551.279 921.271V835.971C551.279 831.356 555.051 827.583 559.664 827.583H613.949C613.949 827.583 617.779 852.34 620.303 872.279C622.711 891.493 625.381 929.659 625.381 929.659V929.63Z" fill="#F5C636"/>
<path d="M446.742 947.16H195.105C191.147 947.16 187.938 950.369 187.938 954.329V998.473C187.938 1002.43 191.147 1005.64 195.105 1005.64H446.742C450.7 1005.64 453.908 1002.43 453.908 998.473V954.329C453.908 950.369 450.7 947.16 446.742 947.16Z" fill="#3399FF"/>
<path d="M38.4594 950.788H19.0781V995.048H38.4594V950.788Z" fill="#3399FF"/>
<path d="M583.456 941.877C583.456 943.967 581.628 945.65 579.336 945.65H545.796C543.533 945.65 541.676 943.967 541.676 941.877C541.676 939.788 543.504 938.104 545.796 938.104H579.336C581.599 938.104 583.456 939.788 583.456 941.877Z" fill="#3E111A"/>
</g>
</g>
<defs>
<clipPath id="clip0_330_83">
<rect width="1920" height="1078" fill="white"/>
</clipPath>
</defs>
</svg>
