<svg width="1919" height="380" viewBox="0 0 1919 380" fill="none" xmlns="http://www.w3.org/2000/svg">
<g clip-path="url(#clip0_30_1400)">
<path d="M798.418 21.9921C798.981 18.5452 799.878 12.9596 796.29 9.4919C795.894 9.11814 793.725 7.02093 790.429 7.00017C787.238 6.9794 785.027 8.91049 784.443 9.4919C780.898 12.9388 781.836 18.4414 782.441 21.9921C783.192 26.3941 785.653 35.0529 789.241 36.6933V122.596H787.968V223.448H786.779V379.285H793.787V223.448H792.724V122.596H791.451V36.7763C795.081 35.3228 797.625 26.6641 798.397 22.0128L798.418 21.9921Z" fill="#3E122B"/>
</g>
<g clip-path="url(#clip1_30_1400)">
<path d="M475.196 21.3721C475.759 17.9252 476.656 12.3396 473.068 8.8719C472.672 8.49814 470.503 6.40094 467.207 6.38017C464.016 6.35941 461.805 8.2905 461.221 8.8719C457.676 12.3188 458.614 17.8214 459.219 21.3721C459.97 25.7741 462.431 34.4329 466.019 36.0733V121.976H464.746V222.828H463.557V378.665H470.566V222.828H469.502V121.976H468.229V36.1563C471.859 34.7028 474.403 26.0441 475.175 21.3928L475.196 21.3721Z" fill="#3E122B"/>
</g>
<g clip-path="url(#clip2_30_1400)">
<path d="M166.401 21.3721C166.964 17.9252 167.861 12.3396 164.273 8.8719C163.877 8.49814 161.708 6.40094 158.413 6.38017C155.221 6.35941 153.01 8.2905 152.426 8.8719C148.881 12.3188 149.819 17.8214 150.424 21.3721C151.175 25.7741 153.636 34.4329 157.224 36.0733V121.976H155.951V222.828H154.762V378.665H161.771V222.828H160.707V121.976H159.435V36.1563C163.064 34.7028 165.608 26.0441 166.38 21.3928L166.401 21.3721Z" fill="#3E122B"/>
</g>
<g clip-path="url(#clip3_30_1400)">
<path d="M1106.64 14.9919C1107.21 11.5451 1108.1 5.95943 1104.52 2.49177C1104.12 2.11801 1101.95 0.0208085 1098.65 4.41034e-05C1095.46 -0.0207203 1093.25 1.91037 1092.67 2.49177C1089.12 5.93867 1090.06 11.4412 1090.67 14.9919C1091.42 19.394 1093.88 28.0528 1097.47 29.6932V115.596H1096.19V216.448H1095V372.285H1102.01V216.448H1100.95V115.596H1099.68V29.7762C1103.31 28.3227 1105.85 19.6639 1106.62 15.0127L1106.64 14.9919Z" fill="#3E122B"/>
</g>
<g clip-path="url(#clip4_30_1400)">
<path d="M1414.73 20.9919C1415.29 17.5451 1416.19 11.9594 1412.6 8.49177C1412.2 8.11801 1410.03 6.02081 1406.74 6.00004C1403.55 5.97928 1401.33 7.91037 1400.75 8.49177C1397.21 11.9387 1398.14 17.4412 1398.75 20.9919C1399.5 25.394 1401.96 34.0528 1405.55 35.6932V121.596H1404.28V222.448H1403.09V378.285H1410.1V222.448H1409.03V121.596H1407.76V35.7762C1411.39 34.3227 1413.93 25.6639 1414.7 21.0127L1414.73 20.9919Z" fill="#3E122B"/>
</g>
<g clip-path="url(#clip5_30_1400)">
<path d="M1717.56 14.9919C1718.12 11.5451 1719.02 5.95943 1715.43 2.49177C1715.04 2.11801 1712.87 0.0208085 1709.57 4.41034e-05C1706.38 -0.0207203 1704.17 1.91037 1703.59 2.49177C1700.04 5.93867 1700.98 11.4412 1701.58 14.9919C1702.33 19.394 1704.8 28.0528 1708.38 29.6932V115.596H1707.11V216.448H1705.92V372.285H1712.93V216.448H1711.87V115.596H1710.59V29.7762C1714.22 28.3227 1716.77 19.6639 1717.54 15.0127L1717.56 14.9919Z" fill="#3E122B"/>
</g>
<rect y="352" width="1919" height="28" fill="#D9D9D9"/>
<defs>
<clipPath id="clip0_30_1400">
<rect width="17.0823" height="372.306" fill="white" transform="translate(782 7)"/>
</clipPath>
<clipPath id="clip1_30_1400">
<rect width="17.0823" height="372.306" fill="white" transform="translate(458.635 6.38013)"/>
</clipPath>
<clipPath id="clip2_30_1400">
<rect width="17.0823" height="372.306" fill="white" transform="translate(149.84 6.38013)"/>
</clipPath>
<clipPath id="clip3_30_1400">
<rect width="17.0823" height="372.306" fill="white" transform="translate(1090.08)"/>
</clipPath>
<clipPath id="clip4_30_1400">
<rect width="17.0823" height="372.306" fill="white" transform="translate(1398.16 6)"/>
</clipPath>
<clipPath id="clip5_30_1400">
<rect width="17.0823" height="372.306" fill="white" transform="translate(1701)"/>
</clipPath>
</defs>
</svg>
