<svg width="205" height="68" viewBox="0 0 205 68" fill="none" xmlns="http://www.w3.org/2000/svg">
<g clip-path="url(#clip0_45_407)">
<path d="M42.88 33.57L53.71 44.4H21.65C15.67 44.4 10.26 41.98 6.34 38.06C2.55 34.26 0.16 29.08 0 23.33C0 23 0.26 22.74 0.59 22.74H53.71L42.88 33.57Z" fill="#2EA0DA"/>
<path d="M64.78 33.57L53.95 44.4L31.39 66.97C31.16 67.2 30.78 67.2 30.56 66.97C27.84 64.03 26.48 60.3 26.48 56.56C26.48 52.82 27.97 48.72 30.97 45.73L32.29 44.41L43.12 33.58L53.95 44.41L64.77 33.58L64.78 33.57Z" fill="#FFD340"/>
<path d="M53.71 22.74L42.88 33.57L32.06 22.74L30.74 21.42C27.74 18.43 26.25 14.51 26.25 10.59C26.25 6.67 27.6 3.11 30.32 0.18C30.54 -0.06 30.92 -0.06 31.15 0.18L53.71 22.74Z" fill="#EE3864"/>
<path d="M74.37 43.4C74.74 43.77 74.4799 44.39 73.9599 44.39H53.7L64.5199 33.56L74.36 43.4H74.37Z" fill="#2EA0DA"/>
<path d="M106.6 25.86L102.29 45.65H93.46L89.15 25.86H87.75V21.48H96.31V25.86H94.08L97.37 41.27H98.77L101.95 25.86H99.69V21.48H107.94V25.86H106.6Z" fill="#194276"/>
<path d="M122.08 42.37L118.79 45.66H112.04L108.17 41.79V32.75L112.04 28.88H118.1L121.97 32.75V36.52L119.88 38.61H112.69V40.25L113.85 41.41H117.24L119.16 39.46L122.07 42.37H122.08ZM112.69 34.29V35.42H117.45V34.29L116.29 33.13H113.86L112.7 34.29H112.69Z" fill="#194276"/>
<path d="M132.69 41.65V45.66H124.33V41.65H126.25V32.88H124.33V28.87H128.68L130.63 30.79L132.55 28.87H136.52L140.39 32.74V41.64H142.31V45.65H137.52L135.88 43.53V34.66L134.54 33.32H132.52L130.81 35.03V41.64H132.69V41.65Z" fill="#194276"/>
<path d="M154.67 41.61V45.65H149.36L145.66 41.95V32.91H143.78V28.87H145.66V24.69H150.18V28.87H154.63V32.91H150.18V39.79L152 41.6H154.67V41.61Z" fill="#194276"/>
<path d="M169.84 45.65L167.92 43.7L165.97 45.65H162.31L158.48 41.78V32.88H156.56V28.87H163V39.86L164.34 41.2H166.05L167.76 39.45V32.88H165.16V28.87H170.16L172.28 30.99V41.64H174.2V45.65H169.85H169.84Z" fill="#194276"/>
<path d="M186.11 41.65V45.66H176.21V41.65H178.3V32.88H176.21V28.87H180.59L182.58 30.89L184.6 28.87H187.82V33.25H184.81L182.69 35.2V41.64H186.11V41.65Z" fill="#194276"/>
<path d="M200.73 45.65L198.74 43.66L196.75 45.65H192.33L189.59 42.91V38.9L192.47 35.99H198.39V34.38L197.26 33.22H194.04L192.46 34.8L189.69 32.03L192.84 28.88H199.07L202.94 32.75V41.62H204.82V45.66H200.71L200.73 45.65ZM197.24 41.72L198.4 40.56V39.16H195.01L193.81 40.36V40.8L194.73 41.72H197.23H197.24Z" fill="#194276"/>
</g>
<defs>
<clipPath id="clip0_45_407">
<rect width="204.84" height="67.13" fill="white"/>
</clipPath>
</defs>
</svg>
