<svg width="250" height="226" viewBox="0 0 250 226" fill="none" xmlns="http://www.w3.org/2000/svg">
<path d="M143.394 112.517L179.61 148.816H72.3992C52.4016 148.816 34.3102 140.705 21.2014 127.566C8.52739 114.829 0.535052 97.4676 0 78.1953C0 77.0892 0.869459 76.2178 1.973 76.2178H179.61L143.394 112.517Z" fill="#2EA0DA"/>
<path d="M216.629 112.517L180.413 148.816L104.97 224.464C104.201 225.235 102.931 225.235 102.195 224.464C93.099 214.61 88.551 202.108 88.551 189.572C88.551 177.037 93.5337 163.295 103.566 153.273L107.98 148.849L144.196 112.55L180.413 148.849L216.596 112.55L216.629 112.517Z" fill="#FFD340"/>
<path d="M179.61 76.2178L143.394 112.517L107.211 76.2178L102.797 71.7935C92.7647 61.7719 87.782 48.6333 87.782 35.4946C87.782 22.3559 92.2965 10.4238 101.392 0.603307C102.128 -0.201102 103.399 -0.201102 104.168 0.603307L179.61 76.2178Z" fill="#EE3864"/>
<path d="M248.699 145.464C249.936 146.704 249.067 148.782 247.328 148.782H179.577L215.76 112.483L248.665 145.464H248.699Z" fill="#2EA0DA"/>
</svg>
