<svg width="387" height="246" viewBox="0 0 387 246" fill="none" xmlns="http://www.w3.org/2000/svg">
<g clip-path="url(#clip0_394_283)">
<path d="M360.269 114.624H338.855C329.365 114.624 308.596 83.3586 301.591 71.2798C290.213 51.7449 269.941 18.8389 234.764 18.8389H90.825C72.0439 18.8389 56.0949 32.558 53.3125 51.1484L46.3068 97.7239C44.8163 107.417 36.4691 114.624 26.6811 114.624C19.3276 114.624 12.6698 117.607 7.8503 122.478C2.98113 127.3 0 133.96 0 141.317V196.541C0 211.255 11.9742 223.284 26.6811 223.284H45.8597C44.6175 219.357 43.9716 215.231 43.9716 210.956C43.9716 199.623 48.5924 189.384 56.0452 181.878C63.498 174.422 73.8326 169.799 85.1112 169.799C96.3898 169.799 106.724 174.422 114.177 181.878C121.63 189.384 126.251 199.623 126.251 210.956C126.251 215.231 125.605 219.357 124.363 223.284H242.713C241.471 219.357 240.825 215.231 240.825 210.956C240.825 199.623 245.446 189.384 252.899 181.878C260.352 174.422 270.637 169.799 281.965 169.799C293.293 169.799 303.578 174.422 311.031 181.878C318.484 189.384 323.104 199.623 323.104 210.956C323.104 215.231 322.459 219.357 321.216 223.284H360.269C374.976 223.284 387 211.255 387 196.541V141.317C387 126.604 374.976 114.624 360.269 114.624ZM65.237 106.224L72.2923 47.2713C73.0376 41.0579 78.354 36.3357 84.6143 36.3357H133.256V106.224H65.237ZM133.207 160.901H117.307C114.227 160.901 111.743 158.416 111.743 155.334V139.378C111.743 136.297 114.227 133.811 117.307 133.811H133.207C136.287 133.811 138.771 136.297 138.771 139.378V155.334C138.771 158.416 136.287 160.901 133.207 160.901ZM165.85 182.375C165.85 185.457 163.366 187.942 160.285 187.942H144.336C141.305 187.942 138.771 185.457 138.771 182.375V166.469C138.771 163.387 141.305 160.901 144.336 160.901H160.285C163.366 160.901 165.85 163.387 165.85 166.469V182.375ZM187.91 160.901H172.011C168.931 160.901 166.397 158.416 166.397 155.334V139.378C166.397 136.297 168.931 133.811 172.011 133.811H187.91C190.991 133.811 193.475 136.297 193.475 139.378V155.334C193.475 158.416 190.991 160.901 187.91 160.901ZM220.554 182.375C220.554 185.457 218.069 187.942 214.989 187.942H199.04C195.959 187.942 193.475 185.457 193.475 182.375V166.469C193.475 163.387 195.959 160.901 199.04 160.901H214.989C218.069 160.901 220.554 163.387 220.554 166.469V182.375ZM247.583 155.334C247.583 158.416 245.098 160.901 242.018 160.901H226.118C223.038 160.901 220.554 158.416 220.554 155.334V139.378C220.554 136.297 223.038 133.811 226.118 133.811H242.018C245.098 133.811 247.583 136.297 247.583 139.378V155.334ZM154.87 106.224V36.3357H236.254C251.309 36.3357 265.221 44.2889 272.872 57.3121L301.591 106.224H154.87Z" fill="white"/>
<path d="M120.09 210.957C120.09 191.63 104.429 175.963 85.1114 175.963C65.7932 175.963 50.1328 191.63 50.1328 210.957C50.1328 230.283 65.7932 245.95 85.1114 245.95C104.429 245.95 120.09 230.283 120.09 210.957Z" fill="white"/>
<path d="M316.894 210.957C316.894 191.63 301.233 175.963 281.915 175.963C262.597 175.963 246.937 191.63 246.937 210.957C246.937 230.283 262.597 245.95 281.915 245.95C301.233 245.95 316.894 230.283 316.894 210.957Z" fill="white"/>
<path d="M199.437 16.6021H168.136C167.043 16.6021 166.248 15.5583 166.595 14.5144L170.57 1.14326C170.769 0.447363 171.415 0 172.16 0H195.463C196.158 0 196.804 0.447363 197.003 1.14326L200.978 14.5144C201.276 15.5583 200.531 16.6021 199.437 16.6021Z" fill="white"/>
</g>
<defs>
<clipPath id="clip0_394_283">
<rect width="387" height="246" fill="white"/>
</clipPath>
</defs>
</svg>
