<svg width="1751" height="285" viewBox="0 0 1751 285" fill="none" xmlns="http://www.w3.org/2000/svg">
<g clip-path="url(#clip0_30_1402)">
<path d="M430.564 186.668H41.1633C36.553 186.668 32.8086 190.418 32.8086 195.036V238.597C32.8086 243.215 36.553 246.965 41.1633 246.965H430.564C435.174 246.965 438.918 243.215 438.918 238.597V195.036C438.918 190.418 435.174 186.68 430.576 186.68L430.564 186.668Z" fill="#191817"/>
<path d="M217.123 31.5165H417.782V39.9575H217.123V31.5165Z" fill="#E5A34C"/>
<path d="M387.303 53.2482C388.571 53.2482 389.595 51.819 389.595 50.0599V39.9453H385.01V50.0599C385.01 51.819 386.034 53.2482 387.303 53.2482Z" fill="#E5A34C"/>
<path d="M254.591 53.2482C255.86 53.2482 256.884 51.819 256.884 50.0599V39.9453H252.298V50.0599C252.298 51.819 253.323 53.2482 254.591 53.2482Z" fill="#E5A34C"/>
<path d="M407.915 31.5165C407.915 14.1824 398.499 0 386.998 0H247.908C236.406 0 226.991 14.1824 226.991 31.5165H407.915Z" fill="#F5C636"/>
<path d="M46.2007 250.898C40.7244 223.45 47.4203 190.528 89.3766 194.328C116.782 196.807 129.381 227.493 124.222 250.898L358.409 251.485C353.201 227.896 371.837 194.889 399.243 194.889C430.003 194.889 448.627 222.057 443.151 249.506L518.684 250.898C514.281 182.759 510.988 131.649 506.463 61.7382C506 54.4943 500.646 48.9239 494.23 48.985C494.072 48.985 479.606 48.8018 480.521 48.7896H185.742C165.971 48.7896 137.09 79.6342 133.284 81.943C56.2263 145.318 52.4819 145.904 42.0295 158.56C27.3692 176.26 18.4778 199.385 17.246 224.036L15.8921 250.898H46.1763H46.2007Z" fill="#F5C636"/>
<path d="M413.672 204.735H525.148C527.338 204.735 529.112 206.513 529.112 208.705V246.916C529.112 249.109 527.338 250.886 525.148 250.886H413.672C411.482 250.886 409.708 249.109 409.708 246.916V208.705C409.708 206.513 411.482 204.735 413.672 204.735Z" fill="#ED4265"/>
<path d="M501.06 142.032L511.659 141.971L513.72 169.469L501.06 169.542" fill="#E28130"/>
<path d="M368.642 255.98C367.654 249.274 367.434 242.152 368.3 234.786H100.817C101.671 242.152 101.463 249.262 100.463 255.98H368.63H368.642Z" fill="#ED4265"/>
<path d="M186.656 161.089C186.656 162.86 188.218 164.301 190.133 164.301H218.538C220.453 164.301 222.014 162.86 222.014 161.089C222.014 159.317 220.453 157.876 218.538 157.876H190.133C188.218 157.876 186.656 159.317 186.656 161.089Z" fill="#3E111A"/>
<path d="M11.0988 249.017H61.2024V198.945C61.2024 190.04 58.3362 182.833 50.4938 182.833H33.6503C22.8685 182.833 13.5503 191.42 11.3306 203.379C2.04896 253.415 5.25668 236.154 4.56147 239.892C3.70771 244.534 6.81782 249.017 11.0988 249.017Z" fill="#F9F8E8"/>
<path d="M2.59767 251.326H61.0803V218.234H28.9301C16.3432 218.234 4.08564 225.062 1.29262 236.911C1.29262 236.911 -2.35415 251.326 2.59767 251.326Z" fill="#ED4265"/>
<path d="M43.0781 239.88C43.0781 263.664 60.8242 282.952 82.717 282.952C104.61 282.952 122.356 263.676 122.356 239.88C122.356 216.084 104.61 196.807 82.717 196.807C60.8242 196.807 43.0781 216.096 43.0781 239.88Z" fill="#2B2925"/>
<path d="M82.7048 261.526C71.6982 261.526 62.7756 251.835 62.7756 239.88C62.7756 227.925 71.6982 218.234 82.7048 218.234C93.7114 218.234 102.634 227.925 102.634 239.88C102.634 251.835 93.7114 261.526 82.7048 261.526Z" fill="#EFE7D3"/>
<path d="M361.47 239.88C361.47 263.664 379.216 282.623 401.109 282.623C423.002 282.623 440.748 263.664 440.748 239.88C440.748 216.096 423.002 196.807 401.109 196.807C379.216 196.807 361.47 216.096 361.47 239.88Z" fill="#2B2925"/>
<path d="M381.18 239.88C381.18 251.827 390.096 261.526 401.097 261.526C412.098 261.526 421.014 251.839 421.014 239.88C421.014 227.921 412.098 218.234 401.097 218.234C390.096 218.234 381.18 227.921 381.18 239.88Z" fill="#EFE7D3"/>
<path d="M273.069 73.5264H191.913C187.864 73.5264 184.583 76.8124 184.583 80.868V142.594C184.583 146.65 187.864 149.936 191.913 149.936H273.069C277.119 149.936 280.399 146.65 280.399 142.594V80.868C280.399 76.8124 277.119 73.5264 273.069 73.5264Z" fill="#167DE5" stroke="white" stroke-width="2" stroke-miterlimit="10"/>
<path d="M375.545 73.5264H294.389C290.34 73.5264 287.059 76.8124 287.059 80.868V142.594C287.059 146.65 290.34 149.936 294.389 149.936H375.545C379.594 149.936 382.875 146.65 382.875 142.594V80.868C382.875 76.8124 379.594 73.5264 375.545 73.5264Z" fill="#167DE5" stroke="white" stroke-width="2" stroke-miterlimit="10"/>
<path d="M478.009 73.5264H396.853C392.803 73.5264 389.522 76.8124 389.522 80.868V142.594C389.522 146.65 392.803 149.936 396.853 149.936H478.009C482.058 149.936 485.339 146.65 485.339 142.594V80.868C485.339 76.8124 482.058 73.5264 478.009 73.5264Z" fill="#167DE5" stroke="white" stroke-width="2" stroke-miterlimit="10"/>
<path d="M169.496 78.2661L169.008 147.395C168.996 149.594 167.483 151.365 165.63 151.365H76.2895C72.9964 151.365 71.6426 146.332 74.3503 144.084C74.3503 144.084 159.336 74.6502 163.544 73.8196C165.617 73.4165 169.52 75.7863 169.508 78.2661H169.496Z" fill="#167DE5" stroke="white" stroke-width="1.99" stroke-miterlimit="10"/>
</g>
<g clip-path="url(#clip1_30_1402)">
<path d="M1245.94 195.128L1716.09 195.341C1717.1 211.226 1718.14 227.134 1719.15 243.019C1679.67 248.778 1640.19 254.514 1600.7 260.273C1516.6 258.975 1432.49 257.653 1348.36 256.355C1313.03 249.911 1277.71 243.491 1242.38 237.047C1243.56 223.074 1244.74 209.101 1245.94 195.105V195.128Z" fill="#3A1723"/>
<path d="M1226.21 187.977C1228.26 186.112 1230.29 184.271 1232.34 182.406C1232.62 176.199 1234.13 166.12 1240.78 156.585C1246.83 147.899 1254.35 143.745 1262.68 139.118C1268.64 135.814 1277.43 131.754 1288.84 129.181C1301.88 113.438 1323.73 91.9831 1356.21 80.0399C1376.6 72.5105 1393.53 71.0944 1404.09 71.0944C1484.63 71.1652 1565.16 71.4012 1645.7 71.8261C1666.61 71.9441 1687.52 72.0621 1708.43 72.2037C1710.6 82.3058 1713.1 95.2639 1715.29 110.488C1718.56 133.218 1719.63 150.589 1720.31 161.777C1721.2 176.86 1721.82 195.317 1721.42 216.418C1724.39 221.871 1727.36 227.323 1730.33 232.775C1730.09 239.951 1729.83 247.149 1729.6 254.325C1703.5 253.947 1677.38 253.593 1651.29 253.215C1653.98 224.727 1631.13 200.51 1604.52 200.817C1578.31 201.124 1556.2 225.151 1558.86 253.215H1368.47C1371.67 220.124 1344.9 194.585 1319.48 196.356C1296.97 197.937 1275.8 220.926 1277.17 249.864C1267.88 246.654 1258.62 243.42 1249.33 240.21C1241.91 236.245 1234.48 232.28 1227.06 228.314C1226.77 214.884 1226.49 201.43 1226.23 188L1226.21 187.977Z" fill="#FAF5E8"/>
<mask id="mask0_30_1402" style="mask-type:luminance" maskUnits="userSpaceOnUse" x="1226" y="71" width="505" height="184">
<path d="M1226.21 187.977C1228.26 186.112 1230.29 184.271 1232.34 182.406C1232.62 176.199 1234.13 166.12 1240.78 156.585C1246.83 147.899 1254.35 143.745 1262.68 139.118C1268.64 135.814 1277.43 131.754 1288.84 129.181C1301.88 113.438 1323.73 91.9831 1356.21 80.0399C1376.6 72.5105 1393.53 71.0944 1404.09 71.0944C1484.63 71.1652 1565.16 71.4012 1645.7 71.8261C1666.61 71.9441 1687.52 72.0621 1708.43 72.2037C1710.6 82.3058 1713.1 95.2639 1715.29 110.488C1718.56 133.218 1719.63 150.589 1720.31 161.777C1721.2 176.86 1721.82 195.317 1721.42 216.418C1724.39 221.871 1727.36 227.323 1730.33 232.775C1730.09 239.951 1729.83 247.149 1729.6 254.325C1703.5 253.947 1677.38 253.593 1651.29 253.215C1653.98 224.727 1631.13 200.51 1604.52 200.817C1578.31 201.124 1556.2 225.151 1558.86 253.215H1368.47C1371.67 220.124 1344.9 194.585 1319.48 196.356C1296.97 197.937 1275.8 220.926 1277.17 249.864C1267.88 246.654 1258.62 243.42 1249.33 240.21C1241.91 236.245 1234.48 232.28 1227.06 228.314C1226.77 214.884 1226.49 201.43 1226.23 188L1226.21 187.977Z" fill="white"/>
</mask>
<g mask="url(#mask0_30_1402)">
<path d="M1231.87 182.595C1240.28 181.722 1248.7 180.872 1257.11 179.999C1272.08 191.139 1287.05 202.304 1302.02 213.444C1322.86 224.231 1343.72 234.994 1364.55 245.78H1600.04C1601.76 247.385 1610.27 255.151 1617.46 252.885C1625.74 250.312 1631.65 234.734 1625.64 215.12C1663.31 215.498 1700.98 215.852 1738.65 216.229C1749.61 241.721 1756.26 271.177 1745.51 297.802C1691.5 431.702 1234.08 393.63 1205.84 292.231C1202.12 278.825 1193.49 219.841 1225.88 187.811C1228.26 185.475 1230.38 183.728 1231.82 182.619L1231.87 182.595Z" fill="#261019"/>
</g>
<path d="M1323.73 203.083C1301.38 201.973 1282.24 221.139 1281.75 243.42C1281.27 265.111 1298.6 284.773 1320.36 285.457C1343.91 286.189 1362.74 264.427 1361.49 241.744C1360.41 222.107 1344.4 204.121 1323.73 203.083Z" fill="#261019"/>
<path d="M1322.97 215.923C1307.82 215.167 1294.85 228.173 1294.52 243.279C1294.19 257.983 1305.93 271.319 1320.71 271.767C1336.67 272.263 1349.45 257.511 1348.6 242.146C1347.87 228.834 1337 216.631 1323 215.923H1322.97Z" fill="#989195"/>
<path d="M1311.68 138.174C1316.66 127.199 1326.39 110.063 1344.82 95.2403C1352.37 89.1743 1359.84 84.7369 1366.39 81.4797C1385.28 81.4089 1404.16 81.3617 1423.04 81.2909V138.151H1311.68V138.174Z" fill="#2F9FD9" stroke="white" stroke-width="1.05" stroke-miterlimit="10"/>
<path d="M1606.78 207.19C1584.44 206.08 1565.3 225.246 1564.8 247.527C1564.33 269.218 1581.66 288.88 1603.41 289.564C1626.96 290.296 1645.8 268.534 1644.55 245.851C1643.46 226.214 1627.46 208.228 1606.78 207.19Z" fill="#261019"/>
<path d="M1606.03 220.053C1590.87 219.298 1577.91 232.303 1577.58 247.409C1577.25 262.114 1588.99 275.45 1603.77 275.898C1619.73 276.394 1632.5 261.642 1631.65 246.276C1630.92 232.964 1620.06 220.761 1606.05 220.053H1606.03Z" fill="#989195"/>
<path d="M1721.56 161.777H1715.85V215.994H1721.56V161.777Z" fill="#A93825"/>
<path opacity="0.1" d="M1685.8 138.906H1444.18V80.9369C1522.3 81.1257 1600.44 81.3145 1678.56 81.5034C1683.8 92.3136 1689.76 109.308 1687.47 129.441C1687.1 132.793 1686.51 135.956 1685.8 138.93V138.906Z" fill="#FAF5E8" stroke="#A2949C" stroke-width="0.93" stroke-miterlimit="10"/>
<path opacity="0.1" d="M1715.85 160.668H1267.13V163.264H1715.85V160.668Z" fill="#A2949C"/>
<path d="M1236.89 163.618C1241.06 162.367 1246.29 161.211 1252.35 160.644C1259.14 160.007 1265.06 160.338 1269.72 160.904C1265.55 167.23 1261.4 173.555 1257.23 179.881C1248.81 180.778 1240.4 181.698 1231.98 182.595C1231.7 180.447 1231.51 176.954 1232.53 172.847C1233.61 168.504 1235.57 165.412 1236.86 163.642L1236.89 163.618Z" fill="#F3BA2F"/>
<path opacity="0.3" d="M1538.83 71.2832C1538.61 71.2832 1541.82 107.892 1541.8 157.128C1541.8 194.704 1539.89 225.435 1538.26 245.757L1539.18 245.568C1540.99 225.104 1543.02 194.42 1542.88 157.033C1542.71 108.954 1539.01 71.2596 1538.8 71.2832H1538.83Z" fill="#261019"/>
<path opacity="0.15" d="M1432.21 71.0944C1431.76 71.0708 1431.34 71.0236 1430.89 71C1432.11 92.9744 1432.96 115.751 1433.34 139.284C1433.57 153.516 1433.62 167.442 1433.5 181.085C1431.22 181.439 1427.82 182.241 1424.26 184.342C1418.04 188.024 1415.19 193.476 1413.54 196.615C1405.05 212.807 1407.53 243.727 1407.69 245.663C1408.75 245.757 1409.84 245.851 1410.9 245.946C1409.01 223.948 1412.01 206.505 1416.74 198.008C1421.13 190.148 1427.05 186.442 1427.05 186.442C1430.09 184.531 1432.94 183.61 1434.8 183.138C1434.97 168.835 1434.97 154.201 1434.73 139.189C1434.35 115.633 1433.48 92.9036 1432.18 71.0944H1432.21Z" fill="#261019"/>
</g>
<g clip-path="url(#clip2_30_1402)">
<path d="M623.579 205.656L1038.28 200.521C1039.39 212.487 1040.51 224.465 1041.62 236.431C1006.87 241.218 972.11 245.992 937.362 250.778C863.152 250.742 788.942 250.706 714.732 250.67C683.485 246.22 652.238 241.771 621.003 237.309C621.866 226.762 622.729 216.203 623.579 205.656Z" fill="#3C121A"/>
<path d="M1094.38 188.435L1098.84 190.996L1096.16 207.665H1087.72L1094.38 188.435Z" fill="#999295"/>
<path d="M589.806 183.636C588.043 187.437 586.28 191.237 584.53 195.037C582.141 198.176 579.553 202.686 581.079 206.871C583.042 212.307 590.294 212.752 590.869 217.165C591.532 222.228 582.329 224.802 582.229 230.55C582.179 233.256 584.155 236.912 592.482 241.35C602.26 240.917 612.038 240.496 621.816 240.063C622.741 237.237 628.556 220.424 647.149 211.85C650.337 210.383 667.18 203.035 685.823 210.563C708.48 219.727 713.456 242.661 713.831 244.549C789.454 244.91 865.09 245.27 940.713 245.643C940.938 242.745 942.676 224.201 958.518 213.774C980.187 199.523 1006.7 214.628 1008.52 215.698C1020.49 222.721 1026.24 232.811 1028.53 237.502C1045.86 236.648 1063.2 235.794 1080.53 234.94C1086.53 226.822 1092.53 218.693 1098.54 210.575C1096.51 209.084 1093.8 206.594 1092.53 202.878C1089.83 194.977 1096.02 188.555 1095.87 184.923C1095.53 177.082 1065.08 168.904 970.059 161.965C950.453 145.489 939.925 137.576 934.723 134.606C934.373 134.413 928.784 131.226 929.384 129.266C929.697 128.232 931.535 128.148 931.61 127.342C931.747 125.947 926.358 124.407 925.383 124.131C913.542 120.812 902.051 119.958 902.051 119.958C887.822 119.958 842.645 119.741 781.377 120.283C762.309 135.183 743.24 150.083 724.172 164.984C694.726 166.92 665.279 168.868 635.833 170.804C620.503 175.074 605.161 179.355 589.831 183.624L589.806 183.636Z" fill="#EE4266"/>
<path d="M1046.06 220.833C1042.77 220.28 1039.96 222.577 1039.83 225.103C1039.73 227.123 1041.36 229.191 1043.83 229.805C1062.8 229.516 1081.76 229.24 1100.72 228.951C1101.34 228.085 1107.1 219.751 1103.5 213.136C1103.1 212.403 1101.46 209.384 1098.5 208.963C1095.22 208.506 1092.01 211.477 1090.83 214.411C1089.97 216.564 1090.27 218.56 1090.5 219.546C1075.68 219.979 1060.86 220.4 1046.04 220.833H1046.06Z" fill="#7B7778"/>
<mask id="mask1_30_1402" style="mask-type:luminance" maskUnits="userSpaceOnUse" x="1039" y="208" width="66" height="22">
<path d="M1046.06 220.833C1042.77 220.28 1039.96 222.577 1039.83 225.103C1039.73 227.123 1041.36 229.191 1043.83 229.805C1062.8 229.516 1081.76 229.24 1100.72 228.951C1101.34 228.085 1107.1 219.751 1103.5 213.136C1103.1 212.403 1101.46 209.384 1098.5 208.963C1095.22 208.506 1092.01 211.477 1090.83 214.411C1089.97 216.564 1090.27 218.56 1090.5 219.546C1075.68 219.979 1060.86 220.4 1046.04 220.833H1046.06Z" fill="white"/>
</mask>
<g mask="url(#mask1_30_1402)">
<path d="M1103.37 224.814C1104.1 224.429 1105.15 223.768 1106.18 222.697C1107.26 221.543 1107.8 220.46 1108.09 219.907C1110.16 215.782 1111.53 210.683 1109.03 206.787C1107.6 204.562 1105.13 203.131 1102.52 202.397C1099.92 201.663 1097.19 201.567 1094.47 201.483C1091.41 201.399 1088.28 201.351 1085.34 202.193C1082.43 203.022 1079.85 204.67 1077.2 206.101C1067.69 211.26 1056.92 213.822 1046.74 217.646C1045.93 217.947 1043.79 218.488 1041.73 220.172C1039.43 222.036 1038.29 224.333 1037.7 225.812C1059.6 225.475 1081.49 225.151 1103.39 224.814H1103.37Z" fill="#999295"/>
</g>
<path d="M948.027 166.884C930.134 152.428 916.118 141.304 909.241 135.748C907.803 134.582 904.914 132.453 900.65 130.493C894.986 127.895 889.81 127.029 886.446 126.692H783.803C767.685 140.017 751.568 153.342 735.463 166.667C806.322 166.74 877.181 166.812 948.04 166.872L948.027 166.884Z" fill="#167DE5"/>
<path d="M619.59 224.585C621.216 224.934 623.917 225.584 624.029 226.702C624.179 228.061 620.478 229.384 619.365 229.781C613.664 231.813 607.512 231.741 596.696 229.973C585.105 228.073 579.278 227.063 578.028 224.008C576.652 220.665 579.816 216.516 580.691 215.349C582.004 213.618 583.567 211.561 586.03 211.501C588.643 211.441 591.057 213.69 591.694 216.023C592.432 218.705 590.657 220.869 590.356 221.218C598.484 221.783 611.563 222.866 619.578 224.585H619.59Z" fill="#7B7778"/>
<mask id="mask2_30_1402" style="mask-type:luminance" maskUnits="userSpaceOnUse" x="577" y="211" width="48" height="21">
<path d="M619.59 224.585C621.216 224.934 623.917 225.584 624.029 226.702C624.179 228.061 620.478 229.384 619.365 229.781C613.664 231.813 607.512 231.741 596.696 229.973C585.105 228.073 579.278 227.063 578.028 224.008C576.652 220.665 579.816 216.516 580.691 215.349C582.004 213.618 583.567 211.561 586.03 211.501C588.643 211.441 591.057 213.69 591.694 216.023C592.432 218.705 590.657 220.869 590.356 221.218C598.484 221.783 611.563 222.866 619.578 224.585H619.59Z" fill="white"/>
</mask>
<g mask="url(#mask2_30_1402)">
<path d="M624.192 227.989C625.392 227.784 626.592 227.58 627.805 227.375C628.593 226.498 629.981 224.67 629.843 222.385C629.693 219.955 627.805 218.368 626.98 217.442C616.602 205.813 598.634 201.988 583.254 205.993C574.477 208.278 571.888 211.609 571.313 212.439C566.999 218.632 569.925 226.522 570.45 227.881C588.368 227.917 606.274 227.953 624.192 227.989Z" fill="#999295"/>
</g>
<path d="M725.585 163.661C725.935 164.743 726.473 165.453 726.923 165.91C728.911 167.954 732.45 168.423 736.026 167.305C752.468 153.607 768.911 139.921 785.353 126.223C784.54 125.61 782.627 124.323 779.851 124.071C778.101 123.902 776.663 124.203 775.763 124.468C759.045 137.528 742.315 150.6 725.597 163.661H725.585Z" fill="#ED4265"/>
<path d="M962.469 160.041C963.107 160.594 964.708 161.845 967.133 162.182C968.659 162.398 969.922 162.182 970.684 161.965C957.343 150.023 944.014 138.093 930.672 126.151C930.46 126.296 929.447 126.993 929.159 128.4C928.797 130.168 929.922 131.527 930.035 131.659C940.838 141.124 951.654 150.576 962.457 160.041H962.469Z" fill="#167DE5"/>
<path d="M786.178 126.861H785.016V166.776H786.178V126.861Z" fill="#212996"/>
<path d="M875.18 127.258H874.018V167.173H875.18V127.258Z" fill="#212996"/>
<path d="M943.589 233.04C865.64 233.004 787.691 232.98 709.73 232.944C709.88 233.316 710.018 233.677 710.168 234.05C787.754 234.206 865.327 234.375 942.913 234.531C943.139 234.038 943.364 233.533 943.576 233.04H943.589Z" fill="#212996"/>
<path d="M869.028 179.596H851.023V187.292H869.028V179.596Z" fill="#999295"/>
<path d="M868.353 180.245H860.351V186.655H868.353V180.245Z" fill="#7B7778"/>
<path d="M735.526 169.59H734.675V244.681H735.526V169.59Z" fill="#212996"/>
<path d="M735.538 169.602C735.25 169.602 734.975 169.602 734.688 169.59C735.138 168.832 735.576 168.074 736.026 167.317H736.938C736.476 168.086 736.013 168.844 735.538 169.614V169.602Z" fill="#892D1C"/>
<path d="M877.981 245.403H878.831V170.311H877.981V245.403Z" fill="#212996"/>
<path d="M877.969 170.311C878.256 170.311 878.531 170.311 878.819 170.299C878.369 169.542 877.931 168.784 877.481 168.026H876.568C877.031 168.796 877.493 169.554 877.969 170.323V170.311Z" fill="#892D1C"/>
<path d="M672.769 210.984C652.3 210.01 634.782 226.858 634.345 246.461C633.92 265.547 649.762 282.828 669.693 283.417C691.25 284.055 708.492 264.909 707.354 244.982C706.367 227.724 691.7 211.886 672.769 210.984Z" fill="#260F14"/>
<path d="M672.069 222.288C658.189 221.627 646.323 233.052 646.023 246.341C645.736 259.281 656.476 270.994 669.993 271.391C684.61 271.824 696.301 258.848 695.526 245.331C694.851 233.629 684.91 222.89 672.081 222.276L672.069 222.288Z" fill="#999295"/>
<path d="M983.288 210.118C962.819 209.144 945.302 225.992 944.864 245.595C944.439 264.681 960.281 281.962 980.212 282.551C1001.77 283.189 1019.01 264.043 1017.87 244.116C1016.89 226.858 1002.22 211.02 983.288 210.118Z" fill="#260F14"/>
<path d="M983.438 222.349C969.559 221.687 957.693 233.112 957.393 246.401C957.105 259.341 967.846 271.055 981.363 271.451C995.98 271.884 1007.67 258.908 1006.9 245.391C1006.22 233.689 996.28 222.95 983.451 222.337L983.438 222.349Z" fill="#999295"/>
</g>
<defs>
<clipPath id="clip0_30_1402">
<rect width="529.112" height="282.952" fill="white" transform="matrix(-1 0 0 1 529.112 0)"/>
</clipPath>
<clipPath id="clip1_30_1402">
<rect width="549" height="214" fill="white" transform="translate(1202 71)"/>
</clipPath>
<clipPath id="clip2_30_1402">
<rect width="570.723" height="219.441" fill="white" transform="translate(569 64)"/>
</clipPath>
</defs>
</svg>
