<svg width="278" height="168" viewBox="0 0 278 168" fill="none" xmlns="http://www.w3.org/2000/svg">
<g clip-path="url(#clip0_326_4182)">
<path d="M269.857 0.658691H7.69767C3.70902 0.658691 0.475586 3.88842 0.475586 7.87249V160.054C0.475586 164.038 3.70902 167.268 7.69767 167.268H269.857C273.846 167.268 277.079 164.038 277.079 160.054V7.87249C277.079 3.88842 273.846 0.658691 269.857 0.658691Z" fill="#F6C731"/>
<path d="M277.079 27.9946H0.475586V58.1592H277.079V27.9946Z" fill="#2D2628"/>
<path d="M124.512 83.2222H9.65137V108.656H124.512V83.2222Z" fill="white"/>
<path d="M46.0957 119.513H13.3737C11.3179 119.513 9.65137 121.178 9.65137 123.231V141.229C9.65137 143.282 11.3179 144.947 13.3737 144.947H46.0957C48.1515 144.947 49.818 143.282 49.818 141.229V123.231C49.818 121.178 48.1515 119.513 46.0957 119.513Z" fill="#167DE5"/>
</g>
<defs>
<clipPath id="clip0_326_4182">
<rect width="276.603" height="166.609" fill="white" transform="translate(0.475586 0.658691)"/>
</clipPath>
</defs>
</svg>
